<svg width="152" height="154" viewBox="0 0 152 154" fill="none" xmlns="http://www.w3.org/2000/svg">
<g clip-path="url(#clip0_3830_16313)">
<path fill-rule="evenodd" clip-rule="evenodd" d="M63.2257 7.26605C75.1486 3.51871 95.626 5.89371 91.4244 19.4948C84.4904 41.9416 16.595 75.4762 57.3983 111C45.0886 91.8777 55.8886 71.7634 71.6775 56.4788C83.6517 44.8857 100.466 25.0852 97.0165 14.0267C93.5942 3.05594 74.4343 2.30328 63.2257 7.26871" fill="#2D3E89"/>
<path fill-rule="evenodd" clip-rule="evenodd" d="M63.2742 4.04792C51.9872 -0.499948 44.7204 4.54792 41.3143 9.02399C36.918 14.7979 39.7018 25.7554 52.2577 43.7953C35.5652 26.9947 31.9129 12.9495 37.1479 5.90165C41.1925 0.457499 51.6734 -3.20208 63.2742 4.04792Z" fill="#2D3E89"/>
<path fill-rule="evenodd" clip-rule="evenodd" d="M23.1887 41.6275L43.0114 83.1967C43.7797 77.8217 46.0766 72.6142 49.1202 67.7179L34.4622 37.085H21" fill="#2D3E89"/>
<path fill-rule="evenodd" clip-rule="evenodd" d="M75.8359 54.678V103.516H88.2024V73.3296H107.357C112.611 73.3296 117.007 72.4201 120.546 70.6036C124.085 68.7871 126.712 66.4812 128.427 63.6887C130.142 60.8961 131 58.0504 131 55.1568C131 52.2632 130.142 49.4174 128.427 46.6249C126.712 43.8323 124.066 41.5424 120.492 39.7605C116.915 37.9786 112.538 37.085 107.36 37.085H90.7672C90.2937 37.7605 89.8095 38.436 89.3144 39.1036H103.748C106.229 39.1036 108.618 39.7924 110.917 41.1754C113.217 42.5557 115.075 44.4733 116.499 46.9307C117.922 49.3882 118.633 52.0956 118.633 55.0584C118.633 58.0211 117.922 60.8483 116.499 63.3376C115.075 65.827 113.214 67.7791 110.917 69.194C108.618 70.6062 106.229 71.3137 103.748 71.3137H88.2052V40.5823C84.0875 45.9626 79.518 50.9413 75.8386 54.6807" fill="#2D3E89"/>
<path d="M57.4075 11.4561H57.4056C56.8515 11.4561 56.4023 11.8935 56.4023 12.433V28.4678C56.4023 29.0074 56.8515 29.4448 57.4056 29.4448H57.4075C57.9616 29.4448 58.4108 29.0074 58.4108 28.4678V12.433C58.4108 11.8935 57.9616 11.4561 57.4075 11.4561Z" fill="#2D3E89"/>
<path d="M61.9642 10.4336H61.9623C61.4082 10.4336 60.959 10.871 60.959 11.4106V36.1141C60.959 36.6536 61.4082 37.091 61.9623 37.091H61.9642C62.5183 37.091 62.9675 36.6536 62.9675 36.1141V11.4106C62.9675 10.871 62.5183 10.4336 61.9642 10.4336Z" fill="#2D3E89"/>
<path d="M71.4271 13.2729H71.4251C70.8711 13.2729 70.4219 13.7104 70.4219 14.2499V27.1128C70.4219 27.6523 70.8711 28.0898 71.4251 28.0898H71.4271C71.9812 28.0898 72.4303 27.6523 72.4303 27.1128V14.2499C72.4303 13.7104 71.9812 13.2729 71.4271 13.2729Z" fill="#2D3E89"/>
<path d="M66.8704 11.7949H66.8685C66.3144 11.7949 65.8652 12.2323 65.8652 12.7719V37.4754C65.8652 38.015 66.3144 38.4524 66.8685 38.4524H66.8704C67.4245 38.4524 67.8737 38.015 67.8737 37.4754V12.7719C67.8737 12.2323 67.4245 11.7949 66.8704 11.7949Z" fill="#2D3E89"/>
<path d="M53.3392 24.4429H53.6523V16.514H53.3392V24.4429Z" fill="#2D3E89"/>
<path d="M50.0677 23.3794H50.3809V17.5212H50.0677V23.3794Z" fill="#2D3E89"/>
<path d="M47.0325 22.4736H47.3457V18.4828H47.0325V22.4736Z" fill="#2D3E89"/>
<path d="M44.2962 21.9507H44.6094V19.4094H44.2962V21.9507Z" fill="#2D3E89"/>
<path d="M75.487 15.8325H75.1738V23.7614H75.487V15.8325Z" fill="#2D3E89"/>
<path d="M78.7604 16.8398H78.4473V22.698H78.7604V16.8398Z" fill="#2D3E89"/>
<path d="M81.7936 17.8032H81.4805V21.794H81.7936V17.8032Z" fill="#2D3E89"/>
<path d="M84.53 18.7295H84.2168V21.2708H84.53V18.7295Z" fill="#2D3E89"/>
</g>
<path d="M17.6674 153.316C16.8457 153.316 15.9617 153.304 15.0154 153.278C14.0692 153.278 13.1603 153.266 12.2887 153.241C11.4421 153.215 10.72 153.19 10.1223 153.165C10.1223 151.949 10.1348 150.595 10.1597 149.101C10.1846 147.582 10.2219 146.063 10.2717 144.544C10.3216 143 10.3714 141.595 10.4212 140.329C9.05159 138.506 7.69447 136.658 6.34981 134.785C5.00514 132.886 3.77253 131.114 2.65198 129.468C1.55633 127.823 0.672333 126.456 0 125.367C0.722135 125.114 1.75554 124.873 3.1002 124.646C4.46977 124.392 5.95139 124.177 7.54507 124C8.39171 125.696 9.49981 127.696 10.8694 130C12.2638 132.304 13.8326 134.772 15.5757 137.405C16.9951 135.278 18.3646 133.101 19.6844 130.873C21.0291 128.646 22.2866 126.392 23.4569 124.114L27.6403 125.025C26.8186 126.418 25.835 127.962 24.6896 129.658C23.569 131.354 22.3613 133.114 21.0664 134.937C19.7965 136.734 18.5265 138.481 17.2565 140.177C17.3312 141.392 17.3935 142.759 17.4433 144.278C17.518 145.772 17.5678 147.304 17.5927 148.873C17.6425 150.418 17.6674 151.899 17.6674 153.316Z" fill="#2D3E89"/>
<path d="M34.2195 153.43C32.2523 153.43 30.4719 152.962 28.8782 152.025C27.2845 151.089 26.0146 149.823 25.0683 148.228C24.147 146.633 23.6863 144.861 23.6863 142.911C23.6863 141.367 23.9727 139.924 24.5454 138.582C25.1181 137.241 25.915 136.063 26.9359 135.051C27.9818 134.013 29.177 133.215 30.5217 132.658C31.8664 132.076 33.2982 131.785 34.8171 131.785C36.7843 131.785 38.5648 132.253 40.1585 133.19C41.7521 134.127 43.0096 135.392 43.931 136.987C44.8772 138.557 45.3504 140.329 45.3504 142.304C45.3504 143.848 45.064 145.291 44.4913 146.633C43.9185 147.975 43.1093 149.165 42.0634 150.203C41.0425 151.215 39.8596 152.013 38.515 152.595C37.1952 153.152 35.7634 153.43 34.2195 153.43ZM35.3027 150.354C36.6225 150.354 37.6559 149.785 38.4029 148.646C39.15 147.481 39.5235 145.873 39.5235 143.823C39.5235 142.101 39.2745 140.57 38.7764 139.228C38.2784 137.886 37.5936 136.823 36.7221 136.038C35.8505 135.253 34.8545 134.861 33.7339 134.861C32.4142 134.861 31.3808 135.443 30.6337 136.608C29.8867 137.747 29.5132 139.342 29.5132 141.392C29.5132 143.089 29.7622 144.62 30.2602 145.987C30.7582 147.329 31.443 148.392 32.3146 149.177C33.211 149.962 34.2071 150.354 35.3027 150.354Z" fill="#2D3E89"/>
<path d="M55.9078 153.43C50.3548 153.43 47.5783 148.278 47.5783 137.975C47.5783 136.253 47.653 134.405 47.8024 132.43C48.4001 132.38 49.2094 132.342 50.2303 132.316C51.2762 132.291 52.6084 132.278 54.227 132.278C54.0776 134.81 54.0029 137.063 54.0029 139.038C54.0029 142.937 54.3017 145.81 54.8993 147.658C55.5218 149.481 56.4681 150.392 57.738 150.392C58.5847 150.392 59.4313 150.038 60.278 149.329C61.1495 148.62 61.8965 147.684 62.5191 146.519C62.4942 144.519 62.4693 142.278 62.4444 139.797C62.4444 137.291 62.4444 134.722 62.4444 132.089C63.4653 132.089 64.5859 132.101 65.806 132.127C67.0511 132.152 68.072 132.19 68.8689 132.241C68.8689 134.291 68.8564 136.367 68.8315 138.468C68.8315 140.57 68.8191 142.582 68.7942 144.506C68.7942 146.43 68.7817 148.152 68.7568 149.671C68.7319 151.165 68.707 152.329 68.6821 153.165C67.711 153.215 66.7025 153.253 65.6566 153.278C64.6108 153.304 63.6023 153.316 62.6311 153.316C62.6062 152.709 62.5813 151.924 62.5564 150.962C60.4149 152.608 58.1987 153.43 55.9078 153.43Z" fill="#2D3E89"/>
<path d="M78.8389 153.316C77.9673 153.316 76.9713 153.291 75.8507 153.241C74.7551 153.215 73.7341 153.19 72.7879 153.165C72.763 152.405 72.7381 151.316 72.7132 149.899C72.6883 148.481 72.6634 146.835 72.6385 144.962C72.6385 143.063 72.626 141.038 72.6011 138.886C72.6011 136.709 72.6011 134.494 72.6011 132.241C73.149 132.215 73.8213 132.19 74.6181 132.165C75.415 132.139 76.2118 132.127 77.0087 132.127C77.8055 132.101 78.4778 132.089 79.0256 132.089C79.0256 132.823 79.0256 133.557 79.0256 134.291C79.9968 133.506 80.9928 132.899 82.0138 132.468C83.0596 132.013 84.0681 131.785 85.0393 131.785C86.3092 131.785 87.4672 132.139 88.513 132.848C89.5589 133.532 90.4055 134.468 91.0529 135.658C91.7253 136.848 92.1112 138.19 92.2108 139.684C91.2148 140.013 90.2187 140.304 89.2227 140.557C88.2266 140.81 87.2804 141.013 86.384 141.165C86.384 140.025 86.2345 138.975 85.9357 138.013C85.6618 137.051 85.2883 136.278 84.8152 135.696C84.3421 135.114 83.8191 134.823 83.2464 134.823C82.5741 134.823 81.827 135.241 81.0053 136.076C80.1836 136.911 79.5237 137.937 79.0256 139.152C79.0007 142.367 78.9758 145.241 78.9509 147.772C78.926 150.278 78.8887 152.127 78.8389 153.316Z" fill="#2D3E89"/>
<path d="M94.6548 153.316C94.6548 149.823 94.6423 146.544 94.6174 143.481C94.6174 140.392 94.605 137.595 94.5801 135.089C94.5801 132.582 94.5676 130.443 94.5427 128.671C94.5178 126.899 94.4929 125.595 94.468 124.759C95.9372 124.557 97.2694 124.405 98.4646 124.304C99.6848 124.203 100.83 124.152 101.901 124.152C104.839 124.152 107.367 124.519 109.483 125.253C111.625 125.962 113.268 127 114.414 128.367C115.559 129.709 116.132 131.316 116.132 133.19C116.132 135.165 115.497 136.937 114.227 138.506C112.982 140.076 111.239 141.329 108.998 142.266C106.782 143.203 104.217 143.722 101.303 143.823C101.328 145.392 101.341 146.962 101.341 148.532C101.366 150.101 101.378 151.646 101.378 153.165C100.531 153.215 99.5603 153.253 98.4646 153.278C97.3939 153.304 96.1239 153.316 94.6548 153.316ZM100.78 127.152C100.88 128.544 100.967 130.443 101.042 132.848C101.142 135.253 101.216 137.886 101.266 140.747C106.57 140.013 109.222 137.759 109.222 133.987C109.222 131.886 108.462 130.228 106.944 129.013C105.425 127.772 103.37 127.152 100.78 127.152Z" fill="#2D3E89"/>
<path d="M125.186 153.43C123.069 153.43 121.339 152.911 119.994 151.873C118.674 150.81 118.014 149.43 118.014 147.734C118.014 146.19 118.562 144.759 119.658 143.443C120.778 142.127 122.322 141.013 124.289 140.101C126.257 139.165 128.51 138.519 131.05 138.165C130.154 135.937 128.921 134.823 127.352 134.823C126.406 134.823 125.186 135.19 123.692 135.924C122.198 136.658 120.679 137.62 119.135 138.81L118.014 135.013C121.725 132.861 125.236 131.785 128.547 131.785C131.137 131.785 133.216 132.506 134.785 133.949C136.354 135.367 137.499 137.646 138.222 140.785C138.944 143.899 139.305 148.025 139.305 153.165C138.832 153.19 137.985 153.215 136.765 153.241C135.57 153.291 134.275 153.316 132.88 153.316C132.88 152.506 132.868 151.709 132.843 150.924C130.278 152.595 127.726 153.43 125.186 153.43ZM124.177 147.468C124.177 148.253 124.476 148.873 125.074 149.329C125.696 149.785 126.518 150.013 127.539 150.013C129.332 150.013 131.062 149.228 132.731 147.658C132.581 144.975 132.295 142.709 131.872 140.861C130.901 141.063 129.954 141.392 129.033 141.848C128.137 142.304 127.315 142.848 126.568 143.481C125.846 144.089 125.26 144.747 124.812 145.456C124.389 146.139 124.177 146.81 124.177 147.468Z" fill="#2D3E89"/>
<path d="M148.713 124.494C148.663 125.937 148.626 127.354 148.601 128.747C148.576 130.139 148.564 131.43 148.564 132.62C148.564 136.62 148.676 139.899 148.9 142.456C149.149 144.987 149.522 146.937 150.02 148.304C150.518 149.646 151.178 150.532 152 150.962L149.385 154C148.041 153.848 146.908 153.405 145.986 152.671C145.09 151.911 144.368 150.785 143.82 149.291C143.272 147.772 142.874 145.81 142.625 143.405C142.401 141 142.289 138.063 142.289 134.595C142.289 133.152 142.301 131.582 142.326 129.886C142.376 128.165 142.425 126.418 142.475 124.646C143.197 124.595 144.057 124.557 145.053 124.532C146.049 124.506 147.269 124.494 148.713 124.494Z" fill="#2D3E89"/>
<defs>
<clipPath id="clip0_3830_16313">
<rect width="110" height="111" fill="white" transform="translate(21)"/>
</clipPath>
</defs>
</svg>
