<svg width="40" height="40" viewBox="0 0 40 40" fill="none" xmlns="http://www.w3.org/2000/svg">
<path d="M35.5211 20.503C35.4952 20.3732 35.4693 20.2443 35.4407 20.1163C35.412 19.9875 35.3825 19.8595 35.3501 19.7315C35.3187 19.6044 35.2855 19.4773 35.2504 19.3502C35.2337 19.2867 35.2153 19.2231 35.1968 19.1596C35.1608 19.0334 35.122 18.9072 35.0823 18.781C35.0425 18.6557 35.0019 18.5304 34.9585 18.4059C34.8513 18.0936 34.734 17.7848 34.6065 17.4796C34.5557 17.3579 34.503 17.2361 34.4485 17.1153C34.4217 17.0553 34.394 16.9945 34.3663 16.9345C34.3109 16.8146 34.2536 16.6947 34.1945 16.5756C34.1363 16.4566 34.0753 16.3384 34.0134 16.2212C33.921 16.0449 33.824 15.8694 33.7242 15.6967C33.6245 15.5231 33.521 15.3521 33.4139 15.1821C33.3427 15.0693 33.2707 14.9565 33.1959 14.8455C32.8245 14.2879 32.4152 13.7509 31.9681 13.2389C31.8785 13.1369 31.788 13.0358 31.6956 12.9355C31.5108 12.735 31.3205 12.539 31.1238 12.3466C31.0258 12.2508 30.9261 12.1551 30.8245 12.0611C30.757 11.9984 30.6886 11.9358 30.6194 11.8749C30.4817 11.7514 30.3413 11.6297 30.199 11.5089C30.0568 11.388 29.9136 11.2672 29.7685 11.1464C29.6235 11.0255 29.4766 10.9029 29.3297 10.7794C29.2558 10.7168 29.1819 10.655 29.108 10.5914C29.5117 9.90675 29.9062 9.21758 30.3284 8.54451C30.3404 8.52482 30.3644 8.50871 30.394 8.49439C30.4013 8.49081 30.4106 8.48813 30.4189 8.48455C30.4346 8.47828 30.4512 8.47381 30.4688 8.47023C30.4789 8.46754 30.4891 8.46486 30.4993 8.46307C30.5039 8.46217 30.5085 8.46128 30.5131 8.46128C30.5307 8.45859 30.5482 8.45591 30.5658 8.45501C30.5898 8.45322 30.6138 8.45233 30.636 8.45322C30.6415 8.45322 30.648 8.45322 30.6536 8.45322C30.6665 8.45322 30.6785 8.45501 30.6905 8.4568C30.6942 8.4568 30.6979 8.4577 30.7016 8.45859C30.7053 8.45859 30.709 8.45859 30.7127 8.46038C30.9648 8.51677 31.2134 8.53467 31.4508 8.51677C31.5182 8.5114 31.5847 8.50334 31.6503 8.4926C31.691 8.48634 31.7316 8.47828 31.7714 8.46933C31.824 8.4577 31.8766 8.44427 31.9284 8.42816C31.9736 8.41384 32.018 8.39862 32.0623 8.38251C32.0845 8.37356 32.1067 8.36551 32.1288 8.35566C32.1935 8.32792 32.2563 8.29749 32.3173 8.26437C32.3496 8.24647 32.3811 8.22767 32.4125 8.20709C32.4282 8.19814 32.4439 8.1874 32.4596 8.17666C32.49 8.15607 32.5196 8.13459 32.5482 8.11311C32.5935 8.0782 32.6369 8.04151 32.6785 8.00213C32.6868 7.99497 32.696 7.98691 32.7044 7.97796C32.8688 7.81954 33.0028 7.628 33.0961 7.40783C33.4148 6.66048 33.2568 5.89075 32.6998 5.33494C32.6683 5.30361 32.6351 5.27229 32.6 5.24186C32.5658 5.21142 32.5298 5.18189 32.4928 5.15325C32.4697 5.13535 32.4457 5.11745 32.4217 5.10044C32.3736 5.06553 32.3238 5.03242 32.2721 5.0002C32.2462 4.98409 32.2194 4.96798 32.1926 4.95276C31.5662 4.59654 30.9381 4.24121 30.3062 3.89394C30.0955 3.77759 29.884 3.66302 29.6725 3.54846C28.6729 3.00876 27.6447 3.18418 27.0258 3.97986C26.4188 4.76033 26.5204 5.74934 27.2752 6.53875C27.35 6.61752 27.4248 6.79384 27.3851 6.86454C27.2373 7.12858 27.0849 7.39082 26.9325 7.65127C26.8308 7.82401 26.7283 7.99676 26.6267 8.16771C26.4743 8.42368 26.3219 8.67787 26.1731 8.92848C25.06 8.57942 23.9966 8.24557 22.8733 7.89383C22.8733 6.62826 22.8761 5.36179 22.8705 4.09532C22.8705 4.03804 22.8761 3.98971 22.889 3.94943C22.8945 3.92974 22.9029 3.91274 22.9121 3.89663C22.9306 3.8653 22.9564 3.84113 22.9888 3.82413C22.9971 3.81965 23.0054 3.81607 23.0147 3.81249C23.0276 3.80712 23.0405 3.80265 23.0553 3.79996C23.0618 3.79817 23.0673 3.79728 23.0738 3.79638C23.1116 3.78833 23.1551 3.78654 23.204 3.78743C23.6197 3.79728 24.0354 3.79549 24.4512 3.78743C24.72 3.78206 24.8927 3.73194 24.9934 3.60843C25.0267 3.56636 25.0525 3.51713 25.071 3.45896C25.0775 3.43927 25.083 3.41868 25.0877 3.3972C25.1015 3.33276 25.1089 3.25847 25.1098 3.17344C25.1107 3.09916 25.1107 3.02487 25.1117 2.95058C25.1154 2.61584 25.1182 2.2811 25.1182 1.94546V1.87297C25.1182 1.53196 25.1154 1.19095 25.1117 0.849946C25.1117 0.773869 25.1117 0.698686 25.1098 0.622609C25.1098 0.608288 25.1098 0.594863 25.108 0.581438C25.108 0.568012 25.108 0.554587 25.1061 0.541161C25.0941 0.358575 25.047 0.228796 24.9555 0.143768C24.9426 0.130343 24.9287 0.119602 24.914 0.109757C24.9029 0.101702 24.8909 0.0945416 24.8789 0.0873813C24.8548 0.0730609 24.8281 0.0614255 24.7994 0.0515802C24.7856 0.04621 24.7708 0.0417349 24.7551 0.0372597C24.7237 0.0283095 24.6904 0.0211493 24.6553 0.0166741C24.6193 0.0113039 24.5814 0.00772375 24.5408 0.00593369C24.514 0.00414363 24.4863 0.00324871 24.4567 0.00324871C23.7999 0.00235368 23.1431 0.00145863 22.4862 0.00235366C19.8488 -0.000331428 17.2104 0.000563622 14.573 0.00324871C14.3226 0.00414374 14.1554 0.045315 14.051 0.146453C14.0381 0.158984 14.0261 0.172409 14.0141 0.185835C14.003 0.201945 13.9928 0.217161 13.9836 0.233271C13.9633 0.269967 13.9467 0.312034 13.9337 0.35947C13.9245 0.394376 13.9171 0.432863 13.9116 0.474034C13.9097 0.488354 13.9079 0.502675 13.9069 0.516995C13.9042 0.557272 13.9014 0.600233 13.9014 0.646775C13.8968 1.26255 13.8958 1.87834 13.8977 2.49322C13.8986 2.69818 13.9005 2.90314 13.9014 3.10811C13.9014 3.14212 13.9023 3.17434 13.9032 3.20477C13.906 3.26653 13.9116 3.32202 13.9199 3.37124C13.931 3.433 13.9457 3.4867 13.967 3.53235C13.9882 3.57889 14.016 3.61648 14.0501 3.6487C14.0769 3.67376 14.1083 3.69524 14.1462 3.71315C14.1647 3.7221 14.1841 3.73015 14.2053 3.73731C14.3097 3.77222 14.4474 3.78654 14.6275 3.78833C14.8363 3.79012 15.0442 3.79101 15.2566 3.79101C15.5402 3.79101 15.8294 3.78922 16.1324 3.78922C16.1324 4.92412 16.136 6.01606 16.1277 7.09994C16.1268 7.31116 16.125 7.52239 16.1222 7.73362C16.1213 7.82312 15.9947 7.96274 15.8977 7.99318C15.7721 8.03256 15.6464 8.07104 15.5199 8.10953C15.2677 8.1874 15.0155 8.26347 14.7605 8.34045C14.2829 8.48365 13.7998 8.62596 13.3083 8.77275C13.1476 8.82018 12.985 8.86851 12.8224 8.91684C12.6654 8.65371 12.5055 8.3852 12.342 8.11311C12.0723 7.65933 11.7951 7.1957 11.518 6.73208C11.5309 6.71865 11.5439 6.70702 11.5559 6.69538C11.5938 6.65869 11.6298 6.62468 11.6649 6.59245C11.7185 6.54144 11.7683 6.4949 11.8145 6.44746C11.8358 6.42777 11.8552 6.40718 11.8746 6.3866C12.475 5.75023 12.5323 4.72721 12.0094 4.0282C11.9383 3.93243 11.8589 3.84471 11.7729 3.76416C11.6593 3.65676 11.5337 3.56278 11.3998 3.48581C11.2871 3.42047 11.1688 3.36587 11.0478 3.32381C11.0072 3.30949 10.9665 3.29696 10.9258 3.28532C10.9046 3.27906 10.8843 3.27369 10.863 3.26921C10.827 3.26026 10.791 3.2531 10.754 3.24594C10.6145 3.21998 10.4723 3.21014 10.3309 3.21819C10.2995 3.21909 10.2681 3.22177 10.2367 3.22535C10.2302 3.22625 10.2238 3.22625 10.2173 3.22804C10.1572 3.2343 10.0972 3.24415 10.0381 3.25758C10.0233 3.26026 10.0094 3.26384 9.99558 3.26742C9.9263 3.28443 9.85792 3.30591 9.79048 3.33186C9.76831 3.34081 9.74616 3.34976 9.72399 3.35961C9.69166 3.37303 9.66022 3.38825 9.62881 3.40436C8.59601 3.93243 7.57338 4.48824 6.59323 5.10313C6.48699 5.17025 6.38998 5.24454 6.30314 5.32599C6.28836 5.33941 6.2736 5.35284 6.25975 5.36716C6.24589 5.38058 6.23296 5.39491 6.21911 5.40923C6.13874 5.49425 6.0685 5.58555 6.00845 5.68132C5.56226 6.38839 5.66112 7.34338 6.32533 7.98065C6.50086 8.14891 6.68652 8.2769 6.88051 8.3673C6.93594 8.39236 6.99232 8.41563 7.04867 8.43532C7.07731 8.44517 7.10592 8.45412 7.13456 8.46307C7.17798 8.4756 7.22141 8.48723 7.26483 8.49618C7.30917 8.50513 7.3526 8.51319 7.39695 8.51945C7.41912 8.52214 7.44219 8.52482 7.46528 8.52751C7.49854 8.53109 7.53273 8.53377 7.56691 8.53556C7.58354 8.53646 7.59925 8.53735 7.61495 8.53646C7.66668 8.53825 7.71841 8.53646 7.77107 8.53556C7.8071 8.53377 7.84314 8.53109 7.88009 8.52751C7.95123 8.52124 8.02329 8.5105 8.09534 8.49797C8.11013 8.49529 8.12491 8.4926 8.13969 8.48902C8.19234 8.47828 8.24497 8.46665 8.29855 8.45322C8.35214 8.4389 8.40666 8.42368 8.46117 8.40668C8.49997 8.39415 8.53969 8.38162 8.57849 8.36819C8.69027 8.55525 8.80296 8.74321 8.91382 8.92938C9.0256 9.11733 9.13739 9.3035 9.24825 9.48966C9.46996 9.86289 9.69259 10.2361 9.91615 10.6111C9.74155 10.7517 9.61592 10.8591 9.48289 10.9584C8.95079 11.3549 8.44914 11.78 7.97892 12.2338C7.92811 12.2822 7.87824 12.3314 7.82836 12.3815C7.6787 12.5292 7.53366 12.6804 7.3914 12.8344C7.01172 13.2461 6.65603 13.6784 6.32439 14.134C6.28282 14.1913 6.24036 14.2414 6.19786 14.2852C6.1683 14.3139 6.13966 14.3398 6.10918 14.364C6.07962 14.3873 6.04821 14.4079 6.0168 14.4266C6.00479 14.4338 5.99277 14.4401 5.98076 14.4463C5.95582 14.458 5.93089 14.4696 5.90502 14.4795C5.89209 14.4839 5.87822 14.4884 5.86529 14.4929C5.42823 15.2941 5.60313 14.8572 5.29161 15.5866C5.22509 15.7423 5.18904 15.8524 5.13269 15.9527C5.00983 16.1728 4.8916 16.3939 4.77982 16.6186C4.70499 16.768 4.63293 16.9175 4.56272 17.0688C4.5387 17.1207 4.5156 17.1726 4.49158 17.2254C4.44539 17.3301 4.40015 17.4348 4.35581 17.5405C4.31978 17.6264 4.28557 17.7123 4.25139 17.7982C3.10074 20.7219 2.70658 24.2025 3.68605 27.205C3.80892 27.5827 3.94008 27.9577 4.07587 28.3318C4.16641 28.5806 4.25879 28.8286 4.35301 29.0774C4.44724 29.3253 4.5424 29.5723 4.63755 29.8203C4.68559 29.9438 4.73363 30.0673 4.78167 30.1908C4.88052 30.4468 5.01632 30.6902 5.16228 30.9614C5.19924 31.0294 5.23524 31.0984 5.27311 31.1709C5.55587 31.7188 5.87865 32.1 6.25145 32.5966C6.9406 33.5176 7.69256 34.3464 8.50551 35.0803C8.64962 35.2092 8.79465 35.3363 8.94246 35.4598C8.99142 35.501 9.04039 35.5413 9.09028 35.5825C9.18912 35.663 9.28982 35.7427 9.39051 35.8214C9.5919 35.9781 9.79695 36.1293 10.0057 36.2761C10.1101 36.3495 10.2154 36.4211 10.3208 36.4918C10.3743 36.5267 10.427 36.5616 10.4806 36.5965C10.5877 36.6654 10.6949 36.7335 10.8039 36.7997C12.5416 37.8639 14.4991 38.5871 16.6756 38.9576C16.7966 38.9782 16.9176 38.9979 17.0395 39.0158C17.0996 39.0247 17.1605 39.0328 17.2206 39.0417C17.4026 39.0668 17.5837 39.0883 17.7647 39.108C18.1268 39.1456 18.488 39.1724 18.8474 39.1876C18.9675 39.193 19.0867 39.1966 19.2068 39.1993C23.9033 39.2977 28.308 37.445 31.4194 34.2014C31.557 34.0573 31.6928 33.9114 31.8249 33.762C31.9579 33.6134 32.0882 33.4612 32.2148 33.3064C32.406 33.0755 32.5907 32.8374 32.769 32.594C32.8882 32.432 33.0046 32.2673 33.1173 32.0999C33.2309 31.9325 33.3409 31.7634 33.448 31.5906C33.5025 31.5047 33.5552 31.4179 33.6069 31.3302C33.8157 30.9811 34.0116 30.6222 34.1945 30.2535C34.3783 29.8847 34.5492 29.507 34.7053 29.1203C34.7839 28.927 34.8578 28.7328 34.927 28.5368C35.0434 28.2119 35.1478 27.8834 35.2411 27.5531C35.2744 27.4359 35.3058 27.3178 35.3363 27.2005C35.3659 27.0824 35.3954 26.9642 35.4222 26.8461C35.436 26.7861 35.449 26.727 35.4619 26.668C35.5137 26.4308 35.5589 26.1936 35.5986 25.9555C35.6291 25.7774 35.6559 25.5984 35.679 25.4185C35.6947 25.2986 35.7086 25.1786 35.7215 25.0596C35.7344 24.9397 35.7455 24.8206 35.7557 24.7016C35.8721 23.2937 35.7917 21.8796 35.5238 20.5012L35.5211 20.503ZM27.7445 4.94918C27.7583 4.89995 27.775 4.85252 27.7935 4.80777C27.7999 4.79076 27.8083 4.77375 27.8166 4.75675C27.8212 4.7478 27.8258 4.73885 27.8304 4.7299C27.8378 4.71379 27.847 4.69857 27.8563 4.68425C27.8646 4.66904 27.8738 4.65472 27.8831 4.64129L27.884 4.6404C27.8905 4.63055 27.8969 4.62071 27.9043 4.61175C27.9265 4.58222 27.9505 4.55358 27.9764 4.52762C27.9828 4.52136 27.9893 4.5142 27.9967 4.50793C28.005 4.49988 28.0133 4.49182 28.0226 4.48466C28.0318 4.4766 28.0411 4.46855 28.0512 4.46139C28.0688 4.44796 28.0872 4.43454 28.1066 4.42201C28.138 4.40142 28.1722 4.38263 28.2092 4.36562C28.2193 4.36025 28.2304 4.35578 28.2415 4.3513C28.2544 4.34504 28.2674 4.33967 28.2812 4.33519C28.2941 4.32982 28.3071 4.32535 28.321 4.32177C28.3376 4.3155 28.3542 4.31013 28.3708 4.30565C28.3893 4.30028 28.4087 4.29581 28.429 4.29133C28.4383 4.28865 28.4475 4.28686 28.4567 4.28507C28.4835 4.2788 28.5112 4.27433 28.5399 4.26985C28.5445 4.26985 28.55 4.26806 28.5547 4.26806C28.5805 4.26359 28.6082 4.2609 28.6369 4.25822C28.7912 4.31998 29.0267 4.38979 29.2355 4.50435C30.0364 4.94202 30.8309 5.39132 31.6235 5.84331C31.667 5.86838 31.7076 5.89344 31.7464 5.92118C31.7593 5.93013 31.7713 5.93908 31.7834 5.94803C31.8065 5.96504 31.8286 5.98294 31.8498 6.00084C31.8646 6.01337 31.8794 6.0259 31.8933 6.03933C31.9071 6.05186 31.9201 6.06439 31.933 6.07781C31.9598 6.10466 31.9838 6.13151 32.0051 6.15926C32.0171 6.17358 32.0272 6.1879 32.0374 6.20222C32.0411 6.2067 32.0439 6.21117 32.0467 6.21475C32.0587 6.22997 32.0679 6.24518 32.0762 6.26129C32.0974 6.2962 32.115 6.33111 32.1298 6.3678C32.1381 6.3857 32.1445 6.4036 32.1501 6.4215C32.1621 6.4582 32.1713 6.49579 32.1769 6.53249C32.1806 6.55128 32.1824 6.57008 32.1843 6.58887C32.187 6.62199 32.187 6.65421 32.1843 6.68733C32.1843 6.70165 32.1824 6.71597 32.1806 6.73118C32.1797 6.74013 32.1787 6.74908 32.1769 6.75803C32.1741 6.7831 32.1686 6.80816 32.1612 6.83322C32.1566 6.85022 32.1519 6.86812 32.1464 6.88513C32.1298 6.93704 32.1076 6.98806 32.0789 7.03997C32.0328 7.125 31.9755 7.19749 31.9099 7.25836C31.8998 7.26731 31.8896 7.27715 31.8785 7.2861C31.8683 7.29505 31.8572 7.30311 31.8461 7.31206C31.824 7.32817 31.8009 7.34428 31.7769 7.3586C31.7649 7.36576 31.7529 7.37292 31.7409 7.37919C31.7289 7.38545 31.7159 7.39172 31.703 7.39798C31.666 7.41678 31.6263 7.4311 31.5866 7.44273C31.5727 7.44631 31.5598 7.44989 31.5459 7.45347C31.5182 7.46063 31.4905 7.46511 31.4619 7.46958C31.448 7.47137 31.4332 7.47316 31.4184 7.47495C31.4046 7.47495 31.3898 7.47674 31.375 7.47764C31.3464 7.47943 31.3177 7.47943 31.2882 7.47764C31.2743 7.47674 31.2605 7.47585 31.2457 7.47495C31.2318 7.47406 31.218 7.47316 31.2041 7.47048H31.2023C31.1875 7.46869 31.1727 7.466 31.1579 7.46332C31.1506 7.46332 31.1431 7.46153 31.1358 7.45974C31.1284 7.45795 31.121 7.45705 31.1136 7.45526C31.097 7.45258 31.0803 7.4481 31.0637 7.44363C31.0508 7.44005 31.0388 7.43647 31.0258 7.43289L31.0221 7.43199C31.0073 7.42752 30.9935 7.42304 30.9796 7.41857C30.9325 7.40246 30.8845 7.38277 30.8355 7.36039C30.8115 7.34965 30.7875 7.33712 30.7635 7.32369C30.3219 7.08293 29.8831 6.83948 29.4452 6.59335C29.0073 6.34722 28.5704 6.10019 28.1325 5.85406C28.0974 5.83436 28.0641 5.81378 28.0336 5.7923C27.9865 5.76008 27.945 5.72517 27.9089 5.68847C27.8923 5.67147 27.8766 5.65446 27.8618 5.63656C27.8535 5.62761 27.8461 5.61866 27.8397 5.60971C27.8323 5.60076 27.8258 5.59181 27.8203 5.58286C27.8138 5.57391 27.8073 5.56407 27.8018 5.55422C27.7962 5.54527 27.7907 5.53543 27.7851 5.52558C27.774 5.50589 27.7648 5.4862 27.7565 5.46651C27.75 5.45129 27.7445 5.43608 27.7399 5.42086C27.738 5.41907 27.738 5.41639 27.738 5.41639C27.7353 5.41102 27.7343 5.40475 27.7325 5.39938C27.7251 5.3779 27.7205 5.35552 27.7168 5.33315C27.7131 5.31346 27.7103 5.29377 27.7084 5.27318C27.7057 5.25081 27.7048 5.22753 27.7048 5.20426C27.7048 5.12371 27.7186 5.03958 27.7445 4.94918ZM27.2817 9.16387C27.3657 9.02246 27.4498 8.88194 27.5329 8.74142C27.6382 8.5651 27.7436 8.38878 27.8498 8.20977C27.8978 8.13011 27.9449 8.04956 27.993 7.96901C28.1371 7.72646 28.284 7.48032 28.4336 7.22882C28.4974 7.26552 28.5611 7.30132 28.6239 7.33712C28.6868 7.37292 28.7496 7.40783 28.8115 7.44363C28.9371 7.51433 29.0618 7.58594 29.1902 7.65843C29.29 7.71572 29.3925 7.773 29.4979 7.83296C29.0507 8.583 28.6249 9.29634 28.1879 10.0312C28.1427 10.0061 28.0983 9.98104 28.0549 9.95687C27.7463 9.78413 27.4535 9.62123 27.1219 9.43507C27.1487 9.38942 27.1754 9.34467 27.2022 9.29902C27.229 9.25338 27.2558 9.20773 27.2826 9.16298L27.2817 9.16387ZM14.9924 1.0925H23.9967C24.0151 1.17216 24.0355 1.21512 24.0345 1.25718C24.0235 1.73066 24.0087 2.20502 23.9948 2.67849C23.5246 2.70266 23.0553 2.74562 22.586 2.74741C20.8326 2.75278 19.0784 2.75188 17.3259 2.75099C16.7412 2.75099 16.1573 2.75009 15.5726 2.75009H14.9924V1.0925ZM17.2612 3.81428H21.7417V7.68081H17.2612V3.81428ZM8.7937 7.00685C8.5572 7.13663 8.31982 7.26552 8.0824 7.3953C8.05376 7.41141 8.02233 7.42394 7.99092 7.43378C7.95951 7.44363 7.92718 7.45168 7.89669 7.45795C7.87268 7.46242 7.8496 7.4669 7.82836 7.47048C7.7914 7.47674 7.75724 7.48211 7.72952 7.48927C7.70643 7.48838 7.68424 7.48748 7.66299 7.4848C7.65006 7.4839 7.63711 7.48301 7.6251 7.48122C7.61032 7.48122 7.59554 7.47764 7.58076 7.47585C7.57337 7.47585 7.566 7.47406 7.55861 7.47227C7.55122 7.47137 7.54381 7.47048 7.53642 7.46869C7.52256 7.4669 7.50966 7.46332 7.49673 7.46063C7.47917 7.45705 7.46069 7.45258 7.44314 7.44721C7.43482 7.44542 7.42743 7.44363 7.42004 7.44094C7.40526 7.43736 7.39138 7.43289 7.3766 7.42662C7.36736 7.42394 7.35905 7.42036 7.34981 7.41678C7.29808 7.39709 7.24913 7.37292 7.20479 7.34338C7.19555 7.33801 7.18539 7.33175 7.17615 7.32459C7.14566 7.304 7.11795 7.28073 7.09116 7.25478C7.06068 7.22524 7.03295 7.19391 7.00708 7.15901C6.95627 7.09099 6.91377 7.01222 6.88051 6.92272C6.8722 6.90124 6.86483 6.87976 6.85837 6.85738C6.84359 6.80995 6.83251 6.76341 6.82512 6.71776C6.8242 6.71239 6.82419 6.70791 6.82327 6.70344C6.81958 6.67838 6.8168 6.65421 6.81587 6.62915C6.81587 6.6211 6.81493 6.61393 6.81493 6.60498C6.81308 6.57366 6.81495 6.54144 6.81772 6.51101C6.81772 6.49937 6.81958 6.48863 6.82142 6.47789C6.82142 6.46715 6.8242 6.45641 6.82697 6.44567C6.82882 6.43314 6.83158 6.41971 6.83527 6.40718C6.84081 6.38212 6.84913 6.35706 6.85837 6.3329C6.8676 6.30694 6.8796 6.28098 6.89346 6.25682C6.90732 6.23265 6.92302 6.20849 6.93965 6.18611C6.95258 6.16911 6.96646 6.1521 6.98124 6.13599C6.99602 6.11988 7.0117 6.10466 7.02833 6.08945C7.03665 6.08229 7.04591 6.07423 7.05422 6.06797C7.06161 6.0617 7.06898 6.05633 7.07637 6.05096C7.09669 6.03485 7.11981 6.02053 7.1429 6.00621C8.1092 5.4316 9.09026 4.87579 10.0898 4.35667C10.5055 4.14097 10.9785 4.35041 11.1864 4.74064C11.2021 4.77107 11.2159 4.8015 11.2279 4.83372C11.2344 4.84983 11.2399 4.86594 11.2446 4.88205C11.2464 4.88653 11.2473 4.8919 11.2492 4.89727C11.2556 4.91875 11.2612 4.94113 11.2649 4.9635C11.2658 4.96619 11.2667 4.96887 11.2667 4.97156C11.2686 4.98051 11.2704 4.98856 11.2714 4.99751C11.2732 5.00825 11.275 5.01989 11.276 5.03063C11.2769 5.03779 11.2778 5.04495 11.2778 5.05211L11.2788 5.05658C11.2843 5.1085 11.2843 5.15951 11.2788 5.21053C11.2778 5.22306 11.2769 5.23559 11.2751 5.24812C11.2732 5.26065 11.2714 5.27318 11.2695 5.28571C11.2649 5.31077 11.2593 5.33494 11.2529 5.3591C11.2464 5.38327 11.239 5.40744 11.2307 5.43071C11.2252 5.44682 11.2187 5.46203 11.2113 5.47725C11.2058 5.49246 11.1984 5.50768 11.1901 5.522C11.1836 5.53543 11.1762 5.54885 11.1679 5.56138C11.1605 5.57481 11.1522 5.58734 11.1429 5.59987C11.1383 5.60703 11.1337 5.61419 11.1281 5.62135C11.1226 5.6303 11.1152 5.63925 11.1078 5.6482C11.0986 5.66073 11.0875 5.67326 11.0755 5.68579C11.0644 5.69832 11.0515 5.71085 11.0395 5.72159C11.0025 5.7565 10.961 5.78782 10.9148 5.81467C10.5656 6.01964 10.2127 6.22012 9.85886 6.41792C9.68242 6.51727 9.50505 6.61573 9.32768 6.71328C9.15031 6.81174 8.97199 6.90929 8.7937 7.00685ZM9.51149 7.84371C9.85976 7.63964 10.1803 7.45079 10.5582 7.22882L10.5591 7.22793C10.669 7.4123 10.7781 7.59489 10.8861 7.77658C10.9951 7.95916 11.1041 8.13996 11.2122 8.32255C11.3212 8.50424 11.4312 8.68682 11.5411 8.8712C11.651 9.05557 11.7628 9.24085 11.8755 9.4297C11.5282 9.63018 11.2076 9.81546 10.8224 10.0374C10.767 9.94434 10.7115 9.85215 10.6561 9.75996C10.5739 9.62123 10.4926 9.48519 10.4103 9.34825C10.112 8.84882 9.81819 8.35656 9.51149 7.84371ZM19.5107 38.1566C11.1106 38.1709 4.30035 31.5888 4.28188 23.4387C4.26248 15.3002 11.0487 8.69846 19.4626 8.67071C27.8877 8.64297 34.7109 15.2402 34.7127 23.4145C34.7127 31.5727 27.9394 38.1431 19.5107 38.1566Z" fill="#3F51B5"/>
<path d="M19.4794 11.8749C12.9047 11.8928 7.58918 17.0419 7.58179 23.402C7.57347 29.7701 12.9287 34.9702 19.496 34.9702C26.0632 34.9702 31.4084 29.797 31.4047 23.4091C31.401 17.0142 26.0688 11.857 19.4794 11.8749ZM20.0327 33.8416C20.0327 33.0397 20.029 32.2664 20.0346 31.494C20.0373 31.1887 19.9292 30.9668 19.6022 30.8988C19.2512 30.8272 18.9713 31.0661 18.9602 31.4725C18.9445 32.099 18.9547 32.7255 18.9537 33.352V33.8336C13.8886 33.8398 8.86402 29.4703 8.71714 23.9426C9.38966 23.9426 10.0622 23.9435 10.7347 23.9426C10.9047 23.9426 11.0737 23.9462 11.2428 23.9372C11.5957 23.9184 11.7906 23.7242 11.7795 23.3921C11.7684 23.0798 11.5634 22.9035 11.2363 22.899C10.5592 22.8909 9.88205 22.8936 9.20398 22.8918H8.71344C8.84924 17.8054 13.2945 13.1512 18.9537 12.9695C18.9537 13.452 18.9537 13.9344 18.9537 14.4177C18.9537 14.7462 18.9454 15.0746 18.9602 15.4022C18.974 15.7325 19.1514 15.9437 19.5071 15.9374C19.8618 15.9321 20.029 15.72 20.03 15.3852C20.0327 14.5967 20.0309 13.8091 20.0309 12.9445C22.684 13.0841 24.9483 13.9952 26.8467 15.7074C28.9732 17.6273 30.1391 20.0018 30.31 22.8918H28.3118C28.1427 22.8918 27.9737 22.8918 27.8046 22.8954C27.4397 22.9017 27.2078 23.0619 27.2189 23.4342C27.2291 23.7779 27.4508 23.9381 27.7945 23.9399C28.4411 23.9435 29.0878 23.9417 29.7344 23.9426H30.2324C30.3617 28.6236 25.8203 33.7772 20.0327 33.8416Z" fill="#3F51B5"/>
<path d="M20.0336 22.8918C20.8133 22.8918 21.5172 22.8918 22.2211 22.8918C22.3745 22.8918 22.5288 22.8918 22.6821 22.9008C23.0175 22.9223 23.1837 23.1129 23.181 23.4262C23.1782 23.7162 23.0239 23.9247 22.7098 23.9283C21.6345 23.9399 20.5593 23.9426 19.4849 23.9283C19.1311 23.9238 18.9629 23.6839 18.962 23.3626C18.9546 21.9037 18.9546 20.4448 18.9647 18.9859C18.9666 18.6628 19.1412 18.4418 19.5024 18.4435C19.895 18.4444 20.0336 18.6843 20.0336 19.0307C20.0336 20.1325 20.0345 21.2342 20.0355 22.3351C20.0355 22.4962 20.0355 22.6573 20.0355 22.8909L20.0336 22.8918Z" fill="#3F51B5"/>
</svg>
