<svg width="40" height="40" viewBox="0 0 40 40" fill="none" xmlns="http://www.w3.org/2000/svg">
<path d="M38.2882 28.0483C37.6122 26.8787 36.0978 26.4947 34.8714 27.1963C33.1946 28.1547 31.525 29.1251 29.8514 30.0899C29.5098 30.2867 29.165 30.4803 28.8042 30.6851C28.3594 30.0091 27.709 29.7371 26.9954 29.5483C24.3042 28.8371 21.617 28.1131 18.9266 27.3963C18.1162 27.1803 17.3058 26.9203 16.4522 27.0619C15.9154 27.1507 15.3858 27.2891 14.8554 27.4155C14.121 27.5907 13.389 27.7755 12.5954 27.9715C12.5954 27.5947 12.6026 27.2779 12.593 26.9627C12.5802 26.5075 12.353 26.2739 11.8938 26.2715C10.2818 26.2651 8.669 26.2651 7.0562 26.2715C6.6018 26.2731 6.3698 26.5131 6.3514 26.9619C6.3442 27.1331 6.3498 27.3051 6.3498 27.5299C4.917 27.5299 3.5466 27.5283 2.1762 27.5299C1.561 27.5315 1.3618 27.7283 1.3618 28.3443C1.3594 31.1299 1.3594 33.9155 1.3618 36.7011C1.3618 37.3251 1.5722 37.5275 2.2114 37.5283C3.4378 37.5307 4.6634 37.5291 5.8898 37.5291H6.3514C6.3514 37.7459 6.345 37.9163 6.3522 38.0867C6.3714 38.5203 6.593 38.7595 7.0274 38.7619C8.6666 38.7699 10.3058 38.7699 11.945 38.7611C12.3594 38.7587 12.5754 38.5243 12.5938 38.1067C12.6042 37.8587 12.5954 37.6091 12.5954 37.2899C12.8546 37.4163 13.0554 37.5107 13.253 37.6115C13.9162 37.9491 14.6138 38.1555 15.3618 38.1563C18.4802 38.1595 21.5986 38.1587 24.717 38.1563C25.4794 38.1563 26.2002 37.9683 26.8578 37.5899C30.3666 35.5691 33.873 33.5435 37.373 31.5083C38.6306 30.7771 39.009 29.2963 38.289 28.0483H38.2882ZM6.337 36.2395H2.6194V28.7923H6.337V36.2395ZM11.3346 37.4979H7.6314V27.5507H11.3346V37.4979ZM36.701 30.4611C33.9586 32.0531 31.2106 33.6347 28.465 35.2203C27.8186 35.5939 27.1682 35.9603 26.5282 36.3427C25.8954 36.7211 25.2258 36.9187 24.4802 36.9091C23.0002 36.8891 21.5202 36.9027 20.041 36.9027C18.7082 36.9027 17.3738 36.8699 16.0426 36.9139C15.9722 36.9163 15.9018 36.9171 15.8322 36.9163C15.7938 36.9163 15.7562 36.9155 15.7186 36.9139C15.7034 36.9139 15.6874 36.9131 15.6722 36.9123C15.5938 36.9091 15.5162 36.9043 15.4394 36.8971C15.409 36.8939 15.3778 36.8915 15.3482 36.8883C15.2962 36.8827 15.2442 36.8763 15.193 36.8691C15.1458 36.8627 15.0994 36.8555 15.053 36.8475C15.037 36.8451 15.0218 36.8427 15.0066 36.8395C14.9906 36.8371 14.9754 36.8339 14.9594 36.8307C14.921 36.8235 14.8834 36.8163 14.845 36.8083C14.7986 36.7987 14.7522 36.7883 14.7058 36.7771C14.6594 36.7659 14.613 36.7547 14.5674 36.7419H14.5658C14.5226 36.7307 14.4802 36.7187 14.4378 36.7059C14.4018 36.6955 14.3658 36.6843 14.3298 36.6731C14.2906 36.6611 14.2522 36.6491 14.213 36.6355C14.1666 36.6203 14.121 36.6043 14.0746 36.5875C14.021 36.5683 13.9682 36.5483 13.9154 36.5275C13.8874 36.5171 13.8586 36.5059 13.8306 36.4939C13.8066 36.4851 13.7834 36.4747 13.7602 36.4651C13.6138 36.4051 13.4682 36.3395 13.3226 36.2691C12.7434 35.9899 12.5594 35.6723 12.5778 35.0363C12.629 33.2379 12.6042 31.4371 12.5874 29.6371C12.5874 29.5955 12.589 29.5579 12.5922 29.5235C12.5954 29.4923 12.601 29.4635 12.6082 29.4371C12.613 29.4203 12.6186 29.4043 12.625 29.3891C12.629 29.3787 12.6338 29.3691 12.6386 29.3595C12.6394 29.3579 12.6402 29.3563 12.6418 29.3547C12.645 29.3467 12.649 29.3403 12.6538 29.3331C12.6586 29.3259 12.6634 29.3187 12.669 29.3123C12.6746 29.3051 12.681 29.2979 12.6874 29.2915C12.6914 29.2867 12.6962 29.2827 12.7002 29.2787C12.7026 29.2755 12.7058 29.2731 12.7082 29.2715C12.7146 29.2659 12.721 29.2603 12.7274 29.2555C12.737 29.2483 12.7474 29.2411 12.7586 29.2347C12.7666 29.2299 12.7754 29.2243 12.785 29.2203C12.7914 29.2163 12.7986 29.2131 12.8058 29.2099C12.8242 29.2011 12.8434 29.1939 12.865 29.1867C12.8746 29.1835 12.885 29.1803 12.8954 29.1771C12.9066 29.1731 12.9186 29.1699 12.9314 29.1667C12.9434 29.1635 12.9562 29.1603 12.969 29.1571C13.1698 29.1115 13.3722 29.0667 13.5738 29.0227C13.769 28.9795 13.965 28.9363 14.1594 28.8899C14.2082 28.8787 14.257 28.8675 14.305 28.8555C14.4474 28.8211 14.589 28.7859 14.7298 28.7475C14.7962 28.7299 14.8626 28.7115 14.9282 28.6931C14.9938 28.6747 15.0586 28.6555 15.1234 28.6355C15.2066 28.6107 15.289 28.5843 15.3714 28.5571C15.465 28.5259 15.5578 28.4987 15.6506 28.4747C15.7122 28.4579 15.7738 28.4435 15.8354 28.4299C15.8738 28.4211 15.9122 28.4139 15.9506 28.4067C15.9738 28.4019 15.9962 28.3979 16.0194 28.3939C16.0714 28.3843 16.1226 28.3763 16.1746 28.3691C16.1922 28.3667 16.209 28.3643 16.2258 28.3627C16.245 28.3595 16.265 28.3571 16.2842 28.3555C16.3226 28.3507 16.361 28.3467 16.3986 28.3435C16.433 28.3403 16.4674 28.3371 16.5018 28.3347C16.5786 28.3291 16.6546 28.3259 16.7314 28.3243C16.7682 28.3235 16.8058 28.3227 16.8434 28.3227C16.9258 28.3227 17.009 28.3243 17.0922 28.3291C17.1186 28.3299 17.1434 28.3315 17.169 28.3331C17.2146 28.3355 17.261 28.3395 17.3066 28.3435C17.345 28.3467 17.3842 28.3499 17.4226 28.3547C17.461 28.3587 17.5002 28.3627 17.5386 28.3683C17.5898 28.3747 17.641 28.3819 17.6922 28.3891C17.7194 28.3931 17.7458 28.3979 17.773 28.4027C17.8098 28.4083 17.8466 28.4147 17.8834 28.4211C17.9138 28.4267 17.945 28.4323 17.9754 28.4387C18.0234 28.4475 18.0714 28.4571 18.1194 28.4675C18.1466 28.4731 18.1746 28.4795 18.2026 28.4859C18.2298 28.4923 18.2578 28.4987 18.2858 28.5051C18.3466 28.5187 18.4082 28.5339 18.4698 28.5499C18.5474 28.5699 18.6258 28.5907 18.7042 28.6131C18.9802 28.6907 19.257 28.7683 19.533 28.8443C19.6482 28.8771 19.7634 28.9091 19.8786 28.9403C20.121 29.0075 20.3634 29.0739 20.605 29.1395C20.9922 29.2451 21.3794 29.3499 21.7666 29.4547C23.129 29.8227 24.493 30.1851 25.8546 30.5571C26.1954 30.6499 26.5354 30.7435 26.8754 30.8371C26.8882 30.8403 26.901 30.8443 26.9138 30.8491C26.9226 30.8515 26.9306 30.8539 26.9394 30.8571C26.9546 30.8611 26.9698 30.8659 26.985 30.8723C27.0074 30.8803 27.0306 30.8883 27.0538 30.8971C27.0858 30.9099 27.1178 30.9235 27.1498 30.9379C27.1626 30.9435 27.1754 30.9491 27.1882 30.9555C27.2258 30.9731 27.2626 30.9923 27.2986 31.0131C27.3258 31.0275 27.3522 31.0427 27.3786 31.0595C27.4042 31.0755 27.4298 31.0915 27.4546 31.1083C27.4682 31.1163 27.481 31.1259 27.4938 31.1355C27.501 31.1403 27.5074 31.1451 27.5138 31.1499C27.5418 31.1707 27.569 31.1923 27.5954 31.2139C27.6202 31.2339 27.6442 31.2547 27.6674 31.2763C27.6714 31.2795 27.6754 31.2835 27.6794 31.2875C27.7018 31.3083 27.7234 31.3299 27.7442 31.3515C27.7626 31.3707 27.7794 31.3907 27.7962 31.4115C27.8026 31.4187 27.8082 31.4275 27.8146 31.4355C27.8258 31.4499 27.8354 31.4643 27.8458 31.4795C27.8554 31.4939 27.865 31.5091 27.8738 31.5243C27.885 31.5427 27.8954 31.5611 27.905 31.5803C27.9114 31.5923 27.917 31.6051 27.9226 31.6171C27.9298 31.6331 27.937 31.6491 27.9434 31.6651C27.9498 31.6811 27.9554 31.6971 27.961 31.7139C27.9658 31.7283 27.9706 31.7427 27.9746 31.7571C27.977 31.7643 27.9794 31.7715 27.981 31.7787C27.9826 31.7859 27.985 31.7923 27.9858 31.7995C27.9898 31.8147 27.993 31.8299 27.9962 31.8459C27.9994 31.8611 28.0018 31.8755 28.0042 31.8907C28.0066 31.9067 28.0082 31.9227 28.0098 31.9387C28.0114 31.9547 28.013 31.9707 28.0138 31.9875C28.0154 32.0099 28.0162 32.0315 28.0162 32.0539C28.0162 32.0763 28.0154 32.0987 28.0138 32.1219C28.013 32.1451 28.0106 32.1675 28.0082 32.1907C28.005 32.2139 28.0018 32.2371 27.9978 32.2595C27.9938 32.2827 27.989 32.3051 27.9842 32.3283C27.9794 32.3467 27.9746 32.3643 27.9698 32.3827C27.965 32.4011 27.9594 32.4195 27.953 32.4379C27.949 32.4515 27.9442 32.4659 27.9386 32.4795C27.925 32.5187 27.9082 32.5571 27.8906 32.5955C27.8642 32.6531 27.8322 32.7099 27.797 32.7643C27.7826 32.7867 27.7674 32.8083 27.7506 32.8299C27.7354 32.8515 27.7194 32.8723 27.7018 32.8923C27.6858 32.9123 27.6682 32.9323 27.6506 32.9507C27.613 32.9907 27.5738 33.0275 27.5314 33.0611C27.5154 33.0747 27.4978 33.0883 27.4802 33.1011H27.4794C27.4594 33.1163 27.4394 33.1299 27.4186 33.1427C27.4002 33.1547 27.381 33.1659 27.361 33.1771C27.3386 33.1891 27.3162 33.2011 27.293 33.2115C27.249 33.2331 27.2034 33.2507 27.1562 33.2659C27.1482 33.2691 27.1394 33.2715 27.1306 33.2739C27.1154 33.2795 27.0994 33.2835 27.0826 33.2875C27.0722 33.2907 27.061 33.2931 27.0498 33.2955C27.0386 33.2987 27.0282 33.3011 27.017 33.3027C27.005 33.3051 26.993 33.3075 26.9802 33.3091C26.9786 33.3099 26.9778 33.3099 26.977 33.3099C26.9722 33.3115 26.9666 33.3123 26.9618 33.3123C26.9466 33.3155 26.9314 33.3171 26.9154 33.3187C26.8986 33.3211 26.8802 33.3227 26.8626 33.3235C26.8586 33.3243 26.8538 33.3251 26.8482 33.3243C26.8434 33.3251 26.8386 33.3251 26.833 33.3251C26.8098 33.3275 26.7858 33.3275 26.7618 33.3275C26.733 33.3275 26.7034 33.3275 26.6746 33.3243C26.6546 33.3235 26.6354 33.3219 26.6154 33.3195C26.6146 33.3195 26.613 33.3195 26.6122 33.3187C26.6018 33.3179 26.5914 33.3163 26.581 33.3155C26.5506 33.3115 26.5194 33.3067 26.489 33.3011C26.4586 33.2955 26.4274 33.2883 26.3962 33.2803C25.609 33.0803 24.8266 32.8627 24.0418 32.6523C23.2242 32.4331 22.4066 32.2147 21.589 31.9955C20.7722 31.7771 19.9554 31.5579 19.1378 31.3403C19.0474 31.3163 18.9626 31.3011 18.8842 31.2955H18.8826C18.8562 31.2931 18.8314 31.2923 18.8066 31.2923H18.8058C18.785 31.2923 18.765 31.2931 18.745 31.2947C18.7298 31.2955 18.7154 31.2971 18.701 31.2995C18.6922 31.3003 18.6834 31.3019 18.6746 31.3035C18.665 31.3051 18.6562 31.3067 18.6466 31.3083C18.637 31.3099 18.6282 31.3123 18.6202 31.3147C18.609 31.3171 18.5978 31.3203 18.5874 31.3243C18.581 31.3259 18.5754 31.3275 18.5698 31.3299C18.561 31.3331 18.5522 31.3363 18.5434 31.3403C18.521 31.3491 18.4994 31.3603 18.4786 31.3723C18.4738 31.3755 18.469 31.3779 18.4642 31.3811C18.441 31.3955 18.4194 31.4115 18.3994 31.4299C18.3882 31.4395 18.3778 31.4507 18.3674 31.4619C18.357 31.4731 18.3466 31.4843 18.3378 31.4971C18.3282 31.5091 18.3186 31.5219 18.3106 31.5355C18.3018 31.5483 18.2938 31.5627 18.2858 31.5771C18.2786 31.5907 18.2722 31.6043 18.2658 31.6187C18.2618 31.6275 18.2578 31.6363 18.2546 31.6459C18.2498 31.6571 18.245 31.6699 18.241 31.6827C18.237 31.6947 18.233 31.7083 18.229 31.7211C18.2186 31.7579 18.2106 31.7931 18.2058 31.8275C18.2034 31.8443 18.2018 31.8603 18.2002 31.8763C18.1994 31.8787 18.1994 31.8811 18.1994 31.8835C18.1962 31.9283 18.197 31.9707 18.2034 32.0115C18.205 32.0243 18.2074 32.0371 18.2098 32.0491C18.2154 32.0739 18.2226 32.0979 18.2314 32.1211C18.2362 32.1331 18.241 32.1451 18.2466 32.1563C18.249 32.1619 18.2514 32.1675 18.2546 32.1731C18.2578 32.1787 18.261 32.1843 18.2642 32.1899C18.2706 32.2003 18.277 32.2115 18.2842 32.2219C18.3042 32.2499 18.3266 32.2763 18.3522 32.3019C18.4554 32.4027 18.6114 32.4827 18.821 32.5387C21.2506 33.1931 23.6786 33.8555 26.113 34.4899C26.1418 34.4971 26.1698 34.5043 26.1986 34.5107C26.2802 34.5291 26.361 34.5443 26.441 34.5547C26.5578 34.5699 26.6738 34.5779 26.7874 34.5779C26.8274 34.5779 26.8674 34.5779 26.9074 34.5747C26.9874 34.5707 27.0666 34.5635 27.145 34.5523C27.2234 34.5403 27.3002 34.5251 27.3762 34.5067C27.4074 34.4995 27.4378 34.4907 27.4682 34.4819C27.4698 34.4819 27.4706 34.4811 27.4722 34.4811C27.5058 34.4707 27.5402 34.4595 27.5738 34.4483C27.5874 34.4443 27.6002 34.4395 27.613 34.4347C27.6466 34.4227 27.6794 34.4099 27.7122 34.3971C27.745 34.3835 27.777 34.3699 27.809 34.3547C27.845 34.3379 27.8802 34.3211 27.9154 34.3027C27.949 34.2851 27.9826 34.2667 28.0154 34.2467C28.081 34.2083 28.145 34.1667 28.2066 34.1219C28.2322 34.1043 28.257 34.0851 28.281 34.0659L28.2826 34.0643C28.2946 34.0555 28.3066 34.0459 28.3178 34.0363H28.3186C28.329 34.0275 28.3394 34.0195 28.3498 34.0099C28.3506 34.0099 28.3522 34.0083 28.353 34.0067C28.3674 33.9939 28.3834 33.9819 28.3978 33.9683C28.4202 33.9491 28.4418 33.9291 28.4626 33.9091C28.489 33.8835 28.5154 33.8571 28.541 33.8299C28.5634 33.8067 28.5858 33.7827 28.6058 33.7587C28.6194 33.7435 28.6338 33.7275 28.6466 33.7115C28.681 33.6707 28.7138 33.6291 28.7442 33.5867C28.7586 33.5683 28.7722 33.5491 28.785 33.5299C28.7882 33.5267 28.7898 33.5235 28.7922 33.5203C28.8026 33.5051 28.813 33.4899 28.8226 33.4739C28.8242 33.4723 28.8258 33.4707 28.8266 33.4683C28.8346 33.4571 28.8418 33.4451 28.8482 33.4339C28.8658 33.4067 28.8818 33.3795 28.8978 33.3523C28.9178 33.3187 28.9362 33.2835 28.9546 33.2483C28.969 33.2195 28.9834 33.1899 28.997 33.1603C29.0058 33.1419 29.0138 33.1235 29.0218 33.1051C29.0218 33.1051 29.0234 33.1043 29.0226 33.1035C29.033 33.0811 29.0434 33.0579 29.0522 33.0339C29.053 33.0331 29.0538 33.0315 29.0538 33.0299C29.0658 33.0019 29.0762 32.9739 29.0858 32.9451C29.1042 32.8971 29.1202 32.8483 29.1346 32.7995C29.1466 32.7603 29.157 32.7203 29.1674 32.6795C29.1986 32.5587 29.221 32.4331 29.2338 32.3043C29.2394 32.2611 29.2434 32.2179 29.2458 32.1739C29.2466 32.1643 29.2474 32.1547 29.2482 32.1451C29.2506 32.1283 29.2538 32.1115 29.2586 32.0947C29.2618 32.0811 29.2666 32.0675 29.2714 32.0539C29.2762 32.0411 29.281 32.0283 29.2866 32.0155C29.2938 31.9971 29.3026 31.9795 29.3122 31.9619C29.3194 31.9483 29.3274 31.9347 29.3354 31.9219C29.3466 31.9027 29.3586 31.8851 29.3722 31.8675C29.3802 31.8563 29.389 31.8451 29.3986 31.8347C29.405 31.8275 29.4114 31.8203 29.4178 31.8139C29.4242 31.8075 29.4306 31.8011 29.437 31.7947C29.4442 31.7883 29.4506 31.7827 29.4578 31.7771C29.4642 31.7715 29.4714 31.7659 29.4778 31.7611C29.4858 31.7547 29.4938 31.7499 29.5018 31.7451C29.9986 31.4539 30.4962 31.1635 30.9938 30.8739C31.9898 30.2939 32.9874 29.7163 33.9866 29.1419C34.4866 28.8547 34.9858 28.5675 35.4866 28.2819C35.5938 28.2203 35.705 28.1755 35.817 28.1459C35.845 28.1387 35.873 28.1323 35.9018 28.1267C35.957 28.1155 36.013 28.1075 36.069 28.1043H36.0698C36.117 28.1003 36.165 28.1003 36.2114 28.1035C36.2154 28.1027 36.2186 28.1035 36.2226 28.1043C36.2314 28.1043 36.241 28.1051 36.2498 28.1059C36.2546 28.1051 36.2586 28.1059 36.2634 28.1067C36.281 28.1083 36.2986 28.1091 36.3162 28.1123C36.3434 28.1155 36.3698 28.1195 36.3962 28.1251C36.4194 28.1291 36.4418 28.1347 36.4642 28.1403C36.4698 28.1419 36.4762 28.1435 36.4826 28.1451C36.5058 28.1515 36.529 28.1579 36.5514 28.1659C36.577 28.1739 36.6018 28.1827 36.6266 28.1931C36.6466 28.2011 36.6666 28.2099 36.6858 28.2195C36.6994 28.2259 36.713 28.2323 36.7258 28.2395C36.7274 28.2387 36.7282 28.2395 36.7298 28.2411C36.737 28.2443 36.7442 28.2475 36.7514 28.2523C36.7642 28.2595 36.777 28.2667 36.7898 28.2747C36.8034 28.2819 36.8162 28.2899 36.8298 28.2987C36.8434 28.3075 36.857 28.3163 36.8698 28.3259C36.8842 28.3347 36.8978 28.3451 36.9114 28.3555C36.9226 28.3643 36.9338 28.3723 36.9442 28.3819C36.9458 28.3819 36.9474 28.3843 36.9498 28.3867C36.9626 28.3971 36.9762 28.4083 36.989 28.4203C37.0026 28.4315 37.0154 28.4435 37.0282 28.4563C37.033 28.4611 37.0386 28.4659 37.0434 28.4715C37.0882 28.5163 37.1298 28.5659 37.1674 28.6187C37.1778 28.6331 37.1882 28.6475 37.1986 28.6627C37.2114 28.6811 37.2234 28.7003 37.2346 28.7195C37.5954 29.3291 37.385 30.0635 36.7002 30.4611H36.701Z" fill="#3F51B5"/>
<path d="M38.1744 17.5387C37.8912 15.7795 36.376 14.4547 34.592 14.4147C34.144 14.4043 33.696 14.4131 33.2504 14.4131C33.1736 7.01789 27.3448 1.59629 20.8032 1.29629C17.5928 1.14829 14.6712 2.00589 12.1304 3.98189C8.75436 6.60749 7.08796 10.1203 6.95836 14.4419C6.35116 14.4419 5.75996 14.3819 5.18556 14.4531C3.29836 14.6875 1.92796 16.3587 1.99116 18.2859C2.05516 20.2099 3.56636 21.7867 5.49836 21.8811C6.58876 21.9339 7.68316 21.9043 8.77596 21.8971C9.24636 21.8939 9.47116 21.6475 9.47356 21.1603C9.47916 20.0411 9.47596 18.9211 9.47596 17.8011C9.47596 16.9083 9.48076 16.0147 9.47356 15.1219C9.46956 14.6331 9.24956 14.4219 8.76076 14.4107C8.60476 14.4067 8.44796 14.4099 8.29516 14.4099C8.07036 11.3299 9.77196 6.82669 13.8672 4.28829C17.9904 1.73149 23.4072 1.94989 27.2704 4.93949C30.3424 7.31629 31.8832 10.4843 31.9856 14.4107C31.7328 14.4107 31.5616 14.4043 31.3912 14.4115C30.968 14.4291 30.74 14.6379 30.7384 15.0555C30.732 17.1219 30.732 19.1883 30.7392 21.2547C30.7408 21.6443 30.972 21.8683 31.3616 21.8963C31.5552 21.9107 31.7504 21.8987 31.9808 21.8987C31.9808 22.4915 31.9832 23.0227 31.98 23.5531C31.976 24.1907 31.7744 24.3963 31.144 24.3979C29.8376 24.4011 28.5312 24.3939 27.2248 24.4035C26.9888 24.4051 26.8472 24.3531 26.7232 24.1235C26.3864 23.5011 25.836 23.1795 25.1296 23.1539C24.6768 23.1379 24.2224 23.1347 23.7704 23.1539C22.7472 23.1987 21.9776 24.0211 21.9864 25.0403C21.9944 26.0539 22.7848 26.8675 23.804 26.8987C24.244 26.9123 24.6848 26.9155 25.1232 26.8971C25.828 26.8683 26.384 26.5491 26.7176 25.9267C26.8496 25.6827 26.9976 25.6291 27.2472 25.6307C28.5936 25.6411 29.94 25.6411 31.2864 25.6339C32.4296 25.6275 33.2136 24.8379 33.224 23.6939C33.2296 23.1211 33.2248 22.5483 33.2248 21.8899C33.744 21.8899 34.2232 21.9147 34.6984 21.8859C36.924 21.7515 38.528 19.7387 38.1744 17.5387ZM5.69916 20.6163H5.69836C5.65356 20.6179 5.60876 20.6187 5.56476 20.6171C5.55756 20.6171 5.55036 20.6171 5.54236 20.6163C5.53516 20.6163 5.52716 20.6163 5.51996 20.6155C5.50316 20.6155 5.48636 20.6147 5.47036 20.6131C5.44156 20.6115 5.41276 20.6091 5.38396 20.6059C5.35516 20.6027 5.32636 20.5995 5.29836 20.5955C5.26396 20.5907 5.22956 20.5851 5.19596 20.5787C5.17116 20.5739 5.14716 20.5683 5.12236 20.5627C5.09516 20.5563 5.06796 20.5499 5.04076 20.5427C5.01596 20.5363 4.99116 20.5291 4.96716 20.5219C4.93916 20.5131 4.91116 20.5043 4.88396 20.4947C4.85676 20.4859 4.82876 20.4755 4.80156 20.4651C4.74716 20.4435 4.69356 20.4203 4.64076 20.3955C4.60556 20.3787 4.57116 20.3611 4.53676 20.3427C4.51516 20.3307 4.49436 20.3195 4.47356 20.3067C4.45196 20.2947 4.43116 20.2819 4.41116 20.2691C4.39036 20.2563 4.36956 20.2435 4.34956 20.2299C4.32956 20.2163 4.30956 20.2027 4.28956 20.1883C4.25756 20.1659 4.22636 20.1427 4.19596 20.1187C4.17276 20.1011 4.14956 20.0827 4.12796 20.0635C4.10556 20.0443 4.08396 20.0251 4.06236 20.0059C4.03276 19.9803 4.00476 19.9531 3.97676 19.9251C3.92156 19.8699 3.86876 19.8123 3.81836 19.7523C3.80876 19.7411 3.79916 19.7299 3.79036 19.7179C3.78076 19.7067 3.77196 19.6955 3.76316 19.6835C3.72716 19.6371 3.69196 19.5891 3.65916 19.5403C3.64316 19.5155 3.62716 19.4907 3.61116 19.4659C3.59516 19.4411 3.57996 19.4155 3.56556 19.3899C3.55036 19.3643 3.53596 19.3379 3.52236 19.3115C3.51116 19.2915 3.50156 19.2715 3.49196 19.2515C3.44796 19.1611 3.40876 19.0683 3.37436 18.9731C3.36316 18.9411 3.35276 18.9083 3.34236 18.8763C3.33916 18.8675 3.33596 18.8587 3.33436 18.8507C3.32956 18.8371 3.32636 18.8243 3.32316 18.8115C3.31516 18.7819 3.30716 18.7531 3.29996 18.7235C3.29276 18.6939 3.28636 18.6643 3.27996 18.6347C3.27596 18.6123 3.27196 18.5899 3.26796 18.5675C3.26316 18.5395 3.25916 18.5123 3.25516 18.4843C3.25116 18.4579 3.24796 18.4315 3.24556 18.4059C3.24156 18.3755 3.23916 18.3451 3.23756 18.3155C3.23276 18.2451 3.23116 18.1747 3.23196 18.1035C3.23356 18.0043 3.24156 17.9059 3.25436 17.8091C3.25756 17.7835 3.26156 17.7587 3.26556 17.7339C3.26956 17.7107 3.27356 17.6883 3.27836 17.6659C3.28316 17.6419 3.28876 17.6179 3.29356 17.5947C3.30636 17.5411 3.31996 17.4883 3.33676 17.4355C3.34476 17.4075 3.35356 17.3803 3.36316 17.3531C3.37676 17.3139 3.39116 17.2747 3.40636 17.2355C3.41436 17.2155 3.42236 17.1955 3.43116 17.1755C3.43836 17.1571 3.44636 17.1387 3.45516 17.1211C3.47116 17.0859 3.48796 17.0507 3.50556 17.0163C3.52556 16.9771 3.54636 16.9387 3.56876 16.9011C3.58956 16.8651 3.61116 16.8299 3.63356 16.7947C3.65676 16.7587 3.68076 16.7235 3.70556 16.6891C3.73196 16.6515 3.75996 16.6147 3.78956 16.5779C3.81036 16.5515 3.83196 16.5259 3.85436 16.5003C3.89516 16.4531 3.93756 16.4075 3.98156 16.3643C3.99516 16.3507 4.00876 16.3371 4.02316 16.3243C4.03676 16.3107 4.05036 16.2979 4.06476 16.2851C4.09276 16.2595 4.12236 16.2347 4.15116 16.2099C4.18076 16.1859 4.21036 16.1619 4.24076 16.1395C4.27116 16.1171 4.30236 16.0947 4.33356 16.0731C4.36076 16.0547 4.38796 16.0371 4.41516 16.0203C4.44476 16.0019 4.47516 15.9843 4.50556 15.9667C4.53596 15.9499 4.56716 15.9331 4.59836 15.9171C4.61596 15.9083 4.63356 15.8995 4.65196 15.8907C4.67676 15.8795 4.70076 15.8683 4.72556 15.8579C4.77516 15.8363 4.82556 15.8171 4.87676 15.7995C4.88956 15.7947 4.90236 15.7907 4.91516 15.7867C4.95756 15.7731 5.00076 15.7603 5.04476 15.7491C5.06396 15.7435 5.08396 15.7387 5.10316 15.7347C5.13996 15.7267 5.17676 15.7195 5.21436 15.7131C5.24236 15.7083 5.27036 15.7043 5.29836 15.7011C5.32636 15.6971 5.35436 15.6939 5.38236 15.6915C5.40396 15.6899 5.42556 15.6883 5.44796 15.6875C5.46076 15.6875 5.47356 15.6859 5.48556 15.6859C5.50796 15.6851 5.53116 15.6843 5.55356 15.6843C5.60156 15.6843 5.64956 15.6867 5.69836 15.6899H5.69916V20.6163ZM8.23916 20.6163H7.01036V15.6755C7.06636 15.6699 7.11996 15.6651 7.17116 15.6603C7.18876 15.6587 7.20556 15.6571 7.22156 15.6555C7.25436 15.6523 7.28636 15.6491 7.31756 15.6467C7.33356 15.6451 7.34876 15.6443 7.36316 15.6427C7.39196 15.6395 7.42076 15.6379 7.44796 15.6355C7.44876 15.6363 7.44956 15.6363 7.45036 15.6355C7.47836 15.6339 7.50476 15.6323 7.53116 15.6307C7.54716 15.6299 7.56316 15.6291 7.57836 15.6283C7.59436 15.6267 7.60956 15.6259 7.62476 15.6259C7.63916 15.6251 7.65276 15.6251 7.66636 15.6251C7.71196 15.6235 7.75356 15.6243 7.79276 15.6267C7.79836 15.6267 7.80476 15.6267 7.81036 15.6267C7.82876 15.6275 7.84636 15.6291 7.86316 15.6323C7.87516 15.6331 7.88636 15.6347 7.89756 15.6371C7.91196 15.6387 7.92556 15.6419 7.93836 15.6451C7.94556 15.6467 7.95196 15.6491 7.95836 15.6507C7.97116 15.6547 7.98396 15.6587 7.99596 15.6635C8.00076 15.6643 8.00556 15.6667 8.01036 15.6691C8.01356 15.6707 8.01596 15.6723 8.01916 15.6731C8.02556 15.6755 8.03036 15.6779 8.03596 15.6811C8.04636 15.6875 8.05676 15.6939 8.06716 15.7003C8.07276 15.7043 8.07756 15.7083 8.08316 15.7131C8.08796 15.7171 8.09276 15.7219 8.09756 15.7259C8.10156 15.7291 8.10476 15.7331 8.10796 15.7371C8.11036 15.7395 8.11196 15.7411 8.11356 15.7427C8.12476 15.7555 8.13516 15.7691 8.14476 15.7851C8.15196 15.7963 8.15836 15.8083 8.16396 15.8211C8.17036 15.8339 8.17596 15.8483 8.18076 15.8627C8.18316 15.8691 8.18476 15.8755 8.18716 15.8819C8.19356 15.9011 8.19836 15.9203 8.20316 15.9419C8.20476 15.9523 8.20716 15.9635 8.20876 15.9747C8.21116 15.9859 8.21276 15.9979 8.21436 16.0099C8.21596 16.0211 8.21756 16.0323 8.21916 16.0443C8.22076 16.0555 8.22236 16.0675 8.22316 16.0795C8.22476 16.0939 8.22636 16.1091 8.22716 16.1251C8.22956 16.1515 8.23116 16.1795 8.23276 16.2083C8.23356 16.2307 8.23436 16.2547 8.23516 16.2795C8.23596 16.2931 8.23596 16.3067 8.23596 16.3203C8.23916 16.4347 8.23916 16.5675 8.23916 16.7203V20.6163ZM25.7072 25.0691C25.6768 25.4091 25.48 25.6019 25.1432 25.6291C25.1152 25.6315 25.0864 25.6331 25.0576 25.6347C25.0344 25.6355 25.0104 25.6363 24.9872 25.6363C24.9024 25.6395 24.8168 25.6379 24.732 25.6363C24.6784 25.6355 24.6256 25.6339 24.572 25.6331C24.5368 25.6323 24.5016 25.6323 24.4664 25.6323C24.3968 25.6323 24.3272 25.6331 24.2576 25.6347C24.1008 25.6379 23.944 25.6419 23.7888 25.6275C23.7728 25.6259 23.7568 25.6243 23.7408 25.6211C23.7312 25.6203 23.7208 25.6187 23.7112 25.6163C23.7032 25.6155 23.6952 25.6139 23.688 25.6115C23.6784 25.6099 23.6696 25.6075 23.6608 25.6051C23.632 25.5979 23.604 25.5891 23.5776 25.5771C23.5704 25.5739 23.5632 25.5707 23.556 25.5675C23.5496 25.5651 23.5432 25.5619 23.5368 25.5579C23.5368 25.5579 23.5362 25.5579 23.5352 25.5579C23.5248 25.5531 23.5144 25.5475 23.5048 25.5411C23.5016 25.5403 23.4984 25.5379 23.4952 25.5355C23.4872 25.5315 23.4792 25.5259 23.472 25.5203C23.444 25.4995 23.4192 25.4779 23.396 25.4531C23.3856 25.4435 23.3768 25.4331 23.3688 25.4219C23.364 25.4163 23.36 25.4099 23.3552 25.4043C23.348 25.3939 23.3408 25.3835 23.3344 25.3723C23.3248 25.3579 23.316 25.3427 23.3088 25.3275H23.308C23.2928 25.2963 23.2792 25.2627 23.2688 25.2275C23.2632 25.2099 23.2584 25.1915 23.2536 25.1723C23.2456 25.1347 23.2392 25.0955 23.2352 25.0539C23.232 25.0187 23.232 24.9843 23.2352 24.9507C23.2352 24.9459 23.236 24.9411 23.2368 24.9363C23.2416 24.8891 23.2512 24.8443 23.2672 24.8011C23.2736 24.7827 23.2808 24.7651 23.2888 24.7483C23.2928 24.7395 23.2968 24.7315 23.3016 24.7227C23.3104 24.7059 23.32 24.6899 23.3304 24.6739C23.3344 24.6659 23.3392 24.6587 23.3456 24.6507C23.3504 24.6443 23.3552 24.6379 23.36 24.6315C23.3608 24.6291 23.3624 24.6275 23.3648 24.6259C23.376 24.6115 23.388 24.5979 23.4008 24.5851C23.4072 24.5779 23.4136 24.5715 23.42 24.5659C23.4232 24.5627 23.4256 24.5603 23.4288 24.5579C23.4392 24.5483 23.4488 24.5395 23.46 24.5315C23.46 24.5307 23.4608 24.5307 23.4608 24.5307C23.4744 24.5195 23.4888 24.5099 23.504 24.5003C23.516 24.4923 23.5288 24.4851 23.5424 24.4787C23.5504 24.4747 23.5584 24.4707 23.5664 24.4675C23.58 24.4603 23.5936 24.4547 23.608 24.4499C23.6208 24.4451 23.6336 24.4403 23.6472 24.4371C23.6512 24.4355 23.6552 24.4347 23.6592 24.4339C23.6752 24.4291 23.692 24.4259 23.708 24.4235C23.7272 24.4195 23.7464 24.4179 23.7656 24.4163C23.824 24.4131 23.8824 24.4099 23.9408 24.4075C23.9464 24.4075 23.9528 24.4075 23.96 24.4067C24.028 24.4035 24.096 24.4011 24.164 24.4003C24.192 24.3987 24.22 24.3979 24.248 24.3979C24.3208 24.3963 24.3936 24.3955 24.4664 24.3955C24.5296 24.3955 24.592 24.3963 24.6544 24.3971C24.836 24.3995 25.0184 24.4067 25.1992 24.4195C25.5296 24.4419 25.7376 24.7395 25.708 25.0699L25.7072 25.0691ZM33.2048 20.6203H32.004V15.6787H33.2048V20.6203ZM34.4992 20.6235V15.6963C34.528 15.6939 34.5576 15.6915 34.5872 15.6899C34.7256 15.6835 34.8632 15.6923 34.9976 15.7163C35.0168 15.7195 35.0336 15.7219 35.052 15.7267C35.0664 15.7291 35.08 15.7315 35.0944 15.7355C35.104 15.7371 35.1136 15.7395 35.1224 15.7419C35.1256 15.7419 35.1288 15.7419 35.132 15.7443C35.1568 15.7491 35.1824 15.7563 35.2072 15.7635C35.208 15.7635 35.2088 15.7635 35.2096 15.7643C35.2368 15.7723 35.2648 15.7803 35.292 15.7899C35.3336 15.8035 35.3744 15.8179 35.4152 15.8339C35.5504 15.8875 35.6808 15.9547 35.8048 16.0347C35.8696 16.0763 35.9328 16.1211 35.9944 16.1691C36.0144 16.1843 36.0336 16.1995 36.0528 16.2163C36.0648 16.2259 36.0776 16.2363 36.0896 16.2475C36.1336 16.2843 36.176 16.3243 36.2176 16.3651C36.2296 16.3771 36.2408 16.3883 36.252 16.4003C36.2912 16.4395 36.3288 16.4803 36.364 16.5227C36.384 16.5451 36.4032 16.5683 36.4216 16.5923C36.452 16.6283 36.48 16.6651 36.5064 16.7035C36.5176 16.7179 36.528 16.7331 36.5384 16.7483C36.5424 16.7531 36.5456 16.7587 36.5488 16.7635C36.5632 16.7843 36.5776 16.8051 36.5912 16.8275C36.632 16.8915 36.6704 16.9571 36.7048 17.0251C36.7224 17.0587 36.7392 17.0931 36.7544 17.1275C36.7712 17.1619 36.7864 17.1971 36.8 17.2323C36.8296 17.3043 36.856 17.3779 36.8784 17.4531C36.8864 17.4803 36.8944 17.5075 36.9008 17.5347C36.9032 17.5435 36.9056 17.5523 36.908 17.5611C36.9176 17.5979 36.9256 17.6347 36.9328 17.6715C36.9384 17.6963 36.9432 17.7219 36.9464 17.7475C36.952 17.7787 36.9568 17.8107 36.96 17.8427C36.9632 17.8659 36.9656 17.8899 36.968 17.9131C36.9712 17.9475 36.9736 17.9819 36.9752 18.0163C37.04 19.4307 35.916 20.6331 34.4992 20.6235Z" fill="#3F51B5"/>
<path d="M29.4642 11.3651C29.4618 10.8763 29.2434 10.6635 28.7506 10.6587C28.097 10.6523 27.4442 10.6635 26.7914 10.6507C26.6778 10.6483 26.5666 10.5659 26.4538 10.5203C26.501 10.4083 26.5218 10.2707 26.6002 10.1891C27.0634 9.7107 27.5466 9.2507 28.009 8.7715C28.3338 8.4355 28.3306 8.1219 28.0042 7.7915C27.1802 6.9571 26.3522 6.1267 25.5186 5.3027C25.1082 4.8979 24.8002 4.9123 24.3866 5.3259C23.9434 5.7683 23.5066 6.2171 23.0546 6.6507C22.9738 6.7283 22.8362 6.7467 22.7242 6.7915C22.681 6.6779 22.6026 6.5651 22.6002 6.4507C22.5882 5.8107 22.5986 5.1715 22.593 4.5315C22.5882 3.9979 22.3714 3.7803 21.8378 3.7787C20.6778 3.7747 19.5186 3.7739 18.3594 3.7787C17.8274 3.7811 17.6146 3.9995 17.6106 4.5379C17.605 5.1907 17.6146 5.8435 17.6026 6.4971C17.601 6.5971 17.5426 6.7507 17.4698 6.7811C17.397 6.8115 17.2474 6.7443 17.1754 6.6739C16.7338 6.2491 16.3042 5.8115 15.8714 5.3771C15.3762 4.8819 15.097 4.8859 14.5954 5.3907C13.825 6.1651 13.053 6.9379 12.281 7.7107C11.865 8.1275 11.8642 8.4435 12.289 8.8691C12.7306 9.3131 13.181 9.7491 13.6146 10.2011C13.6906 10.2803 13.7434 10.4283 13.7266 10.5315C13.7178 10.5875 13.5394 10.6499 13.4362 10.6515C12.797 10.6627 12.157 10.6547 11.5178 10.6579C10.9434 10.6603 10.7426 10.8563 10.7386 11.4195C10.7346 11.9931 10.7378 12.5659 10.7378 13.1387C10.7378 13.7115 10.7354 14.2851 10.7386 14.8587C10.741 15.4419 10.945 15.6419 11.5386 15.6451C12.1386 15.6483 12.7386 15.6371 13.3378 15.6523C13.4778 15.6563 13.6162 15.7403 13.7554 15.7875C13.693 15.9075 13.6538 16.0507 13.5642 16.1435C13.1202 16.6043 12.6578 17.0467 12.2114 17.5051C11.8882 17.8379 11.8914 18.1947 12.2186 18.5243C13.0346 19.3475 13.853 20.1683 14.677 20.9835C15.0906 21.3923 15.4002 21.3867 15.809 20.9803C16.2442 20.5483 16.6698 20.1067 17.1106 19.6819C17.2034 19.5923 17.3466 19.5547 17.4658 19.4939C17.5138 19.6187 17.5994 19.7427 17.6026 19.8683C17.617 20.4947 17.6058 21.1211 17.6098 21.7475C17.6138 22.3051 17.8242 22.5123 18.3906 22.5147C19.537 22.5179 20.6834 22.5187 21.829 22.5139C22.3834 22.5123 22.5898 22.2971 22.5938 21.7299C22.597 21.0907 22.589 20.4507 22.6002 19.8107C22.6018 19.7083 22.665 19.5291 22.7194 19.5211C22.8226 19.5059 22.9682 19.5603 23.0474 19.6363C23.4898 20.0603 23.9186 20.4995 24.3506 20.9339C24.8074 21.3915 25.1154 21.3963 25.5722 20.9411C26.365 20.1507 27.1546 19.3579 27.9442 18.5651C28.3402 18.1675 28.3466 17.8651 27.9562 17.4675C27.5082 17.0107 27.0466 16.5675 26.6026 16.1067C26.5242 16.0251 26.5026 15.8883 26.4546 15.7771C26.569 15.7339 26.6834 15.6547 26.7986 15.6523C27.4378 15.6395 28.0778 15.6507 28.7178 15.6443C29.2338 15.6395 29.4618 15.4235 29.4642 14.9235C29.4698 13.7371 29.4698 12.5507 29.4642 11.3651ZM28.2066 14.4099C27.561 14.4099 26.9274 14.4083 26.293 14.4099C25.6994 14.4107 25.6002 14.4827 25.389 15.0499C25.3426 15.1747 25.297 15.3003 25.2442 15.4227C24.913 16.1867 24.9146 16.2091 25.5138 16.7995C25.9106 17.1899 26.313 17.5755 26.689 17.9403C26.081 18.5563 25.5154 19.1291 24.8962 19.7563C24.4682 19.3115 24.029 18.8507 23.585 18.3947C23.2258 18.0259 23.0266 17.9931 22.5514 18.2027C22.3322 18.2995 22.1162 18.4099 21.8882 18.4811C21.493 18.6035 21.3474 18.8683 21.3554 19.2643C21.3666 19.8243 21.3514 20.3843 21.361 20.9435C21.365 21.1667 21.321 21.2891 21.057 21.2835C20.4178 21.2683 19.7778 21.2715 19.1378 21.2827C18.9074 21.2859 18.8386 21.1955 18.8426 20.9755C18.8522 20.4027 18.837 19.8291 18.8482 19.2563C18.8554 18.8571 18.6986 18.6011 18.3074 18.4771C18.0546 18.3971 17.8106 18.2835 17.5706 18.1683C17.2218 18.0011 16.9306 18.0691 16.6674 18.3419C16.2146 18.8115 15.7562 19.2755 15.333 19.7075C14.741 19.1067 14.177 18.5347 13.5722 17.9219C13.8586 17.6347 14.221 17.2707 14.5826 16.9059C14.7146 16.7739 14.845 16.6403 14.9754 16.5067C15.209 16.2675 15.2786 15.9747 15.0874 15.7067C14.7674 15.2587 14.9258 14.4219 14.061 14.4107C13.6218 14.4051 13.1818 14.4099 12.7418 14.4099C12.505 14.4091 12.269 14.4099 12.0074 14.4099V11.9019C12.649 11.9019 13.2714 11.9035 13.893 11.9011C14.4762 11.8995 14.6042 11.8075 14.8074 11.2643C14.8682 11.1019 14.9274 10.9387 15.001 10.7819C15.281 10.1843 15.2634 10.0723 14.7914 9.5931C14.3714 9.1667 13.9514 8.7403 13.5562 8.3387C14.1378 7.7723 14.7138 7.2107 15.3658 6.5747C15.7322 6.9635 16.1634 7.4283 16.6026 7.8859C16.9898 8.2883 17.193 8.3179 17.6994 8.0731C17.8314 8.0099 17.9642 7.9467 18.101 7.8931C18.8274 7.6075 18.845 7.5827 18.8458 6.7795V5.0475H21.3578C21.3578 5.7059 21.3722 6.3419 21.353 6.9763C21.3394 7.4267 21.5018 7.7187 21.9498 7.8379C22.0906 7.8747 22.225 7.9395 22.3578 8.0011C23.101 8.3419 23.1506 8.3371 23.709 7.7723C24.1106 7.3651 24.505 6.9507 24.8906 6.5523C25.4914 7.1651 26.0546 7.7395 26.6882 8.3851C26.3362 8.7179 25.9322 9.0971 25.5322 9.4803C24.9162 10.0699 24.9954 10.0811 25.229 10.8931C25.4834 11.7771 26.0002 12.0019 26.8258 11.9107C27.2706 11.8611 27.7258 11.9019 28.2066 11.9019V14.4099Z" fill="#3F51B5"/>
<path d="M10.0992 35.9779C10.0992 36.0843 10.108 36.1915 10.0976 36.2971C10.0624 36.6531 9.8 36.9115 9.4728 36.8963C9.116 36.8803 8.9096 36.6691 8.86 36.3267C8.8304 36.1179 8.8392 35.9019 8.8512 35.6899C8.8736 35.2835 9.1432 35.0171 9.5016 35.0323C9.8488 35.0467 10.0808 35.3035 10.1008 35.6995C10.1056 35.7923 10.1008 35.8859 10.1008 35.9787H10.0976L10.0992 35.9779Z" fill="#3F51B5"/>
<path d="M20.1064 9.3971C18.032 9.4003 16.3424 11.0931 16.3488 13.1619C16.3552 15.2067 18.0576 16.9059 20.0952 16.9019C22.1616 16.8979 23.8528 15.2019 23.8536 13.1315C23.8544 11.0923 22.1496 9.3931 20.1064 9.3971ZM22.5928 13.1443C22.5928 13.1715 22.592 13.1987 22.5912 13.2251C22.5904 13.2523 22.5888 13.2795 22.5872 13.3059C22.5872 13.3283 22.5848 13.3507 22.5824 13.3731C22.58 13.4027 22.5768 13.4323 22.5728 13.4619V13.4635C22.5688 13.4923 22.5648 13.5211 22.56 13.5499C22.5576 13.5691 22.5544 13.5883 22.5504 13.6067C22.5456 13.6347 22.54 13.6627 22.5336 13.6907C22.528 13.7171 22.5216 13.7443 22.5144 13.7707C22.5144 13.7715 22.5144 13.7723 22.5136 13.7731C22.5064 13.8003 22.4992 13.8275 22.4912 13.8547C22.4856 13.8747 22.48 13.8939 22.4736 13.9131C22.468 13.9323 22.4616 13.9523 22.4544 13.9715C22.4472 13.9915 22.44 14.0115 22.4328 14.0315C22.4256 14.0507 22.4176 14.0707 22.4096 14.0899C22.4024 14.1091 22.3944 14.1283 22.3856 14.1475C22.3696 14.1859 22.352 14.2243 22.3328 14.2611C22.324 14.2803 22.3144 14.2987 22.3048 14.3171C22.2944 14.3371 22.284 14.3563 22.2728 14.3755C22.2408 14.4339 22.2056 14.4899 22.1688 14.5451C22.1376 14.5915 22.104 14.6379 22.0696 14.6819C22.0448 14.7139 22.0192 14.7459 21.992 14.7771C21.9656 14.8083 21.9384 14.8387 21.9104 14.8683C21.8744 14.9067 21.8368 14.9443 21.7976 14.9803C21.7848 14.9923 21.7712 15.0043 21.7584 15.0155C21.732 15.0403 21.7048 15.0627 21.6776 15.0851C21.6504 15.1075 21.6224 15.1291 21.5944 15.1507C21.5624 15.1739 21.5304 15.1971 21.4976 15.2195C21.456 15.2475 21.4136 15.2747 21.3704 15.3003C21.3488 15.3123 21.3272 15.3251 21.3056 15.3371C21.2832 15.3491 21.2616 15.3611 21.2392 15.3723H21.2384C21.1664 15.4091 21.0936 15.4427 21.0184 15.4723C20.9808 15.4875 20.9424 15.5019 20.904 15.5139C20.88 15.5219 20.8568 15.5299 20.8328 15.5371C20.8088 15.5443 20.7848 15.5515 20.7608 15.5579C20.7368 15.5643 20.7128 15.5707 20.688 15.5763C20.664 15.5827 20.6392 15.5883 20.6144 15.5931C20.5816 15.5995 20.5488 15.6059 20.5152 15.6115C20.3776 15.6347 20.236 15.6459 20.0912 15.6451C20.048 15.6451 20.0048 15.6435 19.9624 15.6419C19.9352 15.6403 19.9088 15.6387 19.8824 15.6363C19.8592 15.6339 19.8368 15.6315 19.8136 15.6291C19.7704 15.6243 19.7272 15.6187 19.6856 15.6107C19.6608 15.6075 19.636 15.6027 19.6112 15.5971C19.5664 15.5883 19.5224 15.5779 19.4792 15.5675C19.4576 15.5619 19.436 15.5563 19.4144 15.5499C19.3712 15.5371 19.3288 15.5243 19.2872 15.5099C19.2448 15.4947 19.204 15.4795 19.1624 15.4627C19.1216 15.4459 19.0816 15.4283 19.0416 15.4099C19.0216 15.4011 19.0016 15.3915 18.9824 15.3811C18.9624 15.3715 18.9432 15.3611 18.924 15.3507C18.8856 15.3299 18.8472 15.3083 18.8096 15.2859C18.7816 15.2691 18.7536 15.2515 18.7264 15.2331C18.6448 15.1779 18.5664 15.1195 18.492 15.0563C18.4592 15.0283 18.4264 14.9995 18.3944 14.9691C18.3792 14.9547 18.3632 14.9395 18.348 14.9243C18.3296 14.9067 18.312 14.8883 18.2936 14.8691C18.2744 14.8491 18.256 14.8283 18.2376 14.8075C18.2168 14.7835 18.196 14.7595 18.176 14.7347C18.1512 14.7043 18.1272 14.6731 18.1024 14.6411C18.0792 14.6083 18.056 14.5755 18.0336 14.5427C18.0224 14.5259 18.0112 14.5091 18.0008 14.4923C17.9848 14.4667 17.9696 14.4411 17.9536 14.4155C17.9392 14.3899 17.924 14.3635 17.9096 14.3371C17.8904 14.3019 17.872 14.2659 17.8552 14.2299C17.8528 14.2251 17.8504 14.2211 17.8496 14.2171C17.832 14.1819 17.8168 14.1459 17.8016 14.1091C17.7904 14.0835 17.78 14.0571 17.7704 14.0307C17.76 14.0035 17.7504 13.9763 17.7408 13.9483C17.728 13.9099 17.716 13.8707 17.7048 13.8307C17.6968 13.8035 17.6896 13.7763 17.6832 13.7491C17.676 13.7211 17.6696 13.6939 17.664 13.6659C17.6632 13.6611 17.6616 13.6555 17.6608 13.6507C17.656 13.6275 17.652 13.6051 17.648 13.5819C17.64 13.5363 17.6328 13.4907 17.628 13.4443C17.6248 13.4211 17.6224 13.3979 17.6208 13.3747C17.6184 13.3515 17.616 13.3275 17.6152 13.3043C17.6136 13.2875 17.6128 13.2699 17.612 13.2531C17.6104 13.2179 17.6096 13.1827 17.6096 13.1467V13.1411C17.6096 13.1059 17.6104 13.0715 17.612 13.0371C17.6128 13.0075 17.6144 12.9779 17.6168 12.9491C17.6208 12.8939 17.6264 12.8403 17.6344 12.7867C17.6384 12.7595 17.6424 12.7331 17.6472 12.7067C17.6544 12.6635 17.6632 12.6211 17.6728 12.5787C17.6824 12.5379 17.692 12.4987 17.7032 12.4595C17.7144 12.4203 17.7264 12.3811 17.7392 12.3427C17.752 12.3043 17.7656 12.2659 17.7808 12.2291C17.7936 12.1955 17.8072 12.1627 17.8216 12.1307C17.8312 12.1083 17.8416 12.0851 17.8528 12.0627C17.8616 12.0451 17.8704 12.0267 17.8792 12.0091C17.8944 11.9795 17.9096 11.9507 17.9256 11.9227C17.9384 11.8987 17.952 11.8755 17.9664 11.8523C17.9976 11.8011 18.0304 11.7507 18.0648 11.7027C18.0848 11.6739 18.1056 11.6459 18.1272 11.6187C18.1424 11.5987 18.1576 11.5795 18.1736 11.5603C18.1984 11.5299 18.224 11.5003 18.2512 11.4707C18.2776 11.4419 18.3048 11.4131 18.3328 11.3851C18.3576 11.3603 18.3824 11.3363 18.408 11.3131C18.4848 11.2419 18.5656 11.1763 18.6512 11.1155C18.6832 11.0923 18.716 11.0707 18.7496 11.0499C18.7496 11.0491 18.7504 11.0491 18.7504 11.0491C18.7832 11.0275 18.8176 11.0067 18.852 10.9875C18.8864 10.9675 18.9216 10.9483 18.9576 10.9307C18.988 10.9147 19.0192 10.8995 19.0512 10.8851C19.08 10.8715 19.1096 10.8587 19.14 10.8467C19.18 10.8299 19.22 10.8147 19.2616 10.8003C19.2912 10.7899 19.3208 10.7803 19.3504 10.7707C19.3832 10.7603 19.4176 10.7507 19.4512 10.7419C19.464 10.7387 19.4768 10.7355 19.4896 10.7323C19.512 10.7259 19.5344 10.7211 19.5568 10.7163C19.5712 10.7131 19.5856 10.7107 19.6 10.7075C19.6032 10.7075 19.6064 10.7059 19.6096 10.7051C19.6232 10.7019 19.636 10.6995 19.6504 10.6979C19.6744 10.6931 19.6992 10.6891 19.724 10.6859C19.7616 10.6803 19.7992 10.6755 19.8368 10.6715C19.8784 10.6659 19.9208 10.6627 19.9632 10.6611C19.9848 10.6603 20.0064 10.6595 20.0272 10.6587C20.0488 10.6579 20.0712 10.6571 20.0928 10.6571C20.1048 10.6571 20.1168 10.6571 20.1288 10.6571C20.1624 10.6579 20.1952 10.6587 20.228 10.6603C20.2496 10.6603 20.2712 10.6619 20.292 10.6643C20.3344 10.6667 20.376 10.6707 20.4176 10.6763C20.4512 10.6811 20.4832 10.6851 20.5152 10.6907C20.5448 10.6947 20.5744 10.7003 20.6032 10.7067C20.644 10.7139 20.684 10.7227 20.724 10.7339C20.7584 10.7419 20.7928 10.7515 20.8264 10.7619C20.8512 10.7699 20.876 10.7771 20.9008 10.7851C20.9192 10.7923 20.9384 10.7987 20.9576 10.8051C20.996 10.8187 21.0336 10.8331 21.0704 10.8491C21.0888 10.8571 21.1072 10.8651 21.1256 10.8731C21.1536 10.8851 21.1808 10.8979 21.208 10.9115C21.2352 10.9243 21.2616 10.9379 21.288 10.9523C21.3688 10.9955 21.4472 11.0427 21.5216 11.0955C21.5448 11.1107 21.568 11.1267 21.5904 11.1435C21.6224 11.1667 21.6536 11.1907 21.6848 11.2163C21.7152 11.2419 21.7456 11.2675 21.7744 11.2939C21.804 11.3203 21.8328 11.3475 21.8608 11.3755C21.8888 11.4027 21.9168 11.4315 21.9432 11.4603C21.9704 11.4891 21.996 11.5195 22.0216 11.5499C22.0472 11.5803 22.0712 11.6115 22.0952 11.6427C22.1184 11.6747 22.1416 11.7067 22.164 11.7403C22.176 11.7563 22.1872 11.7731 22.1968 11.7899C22.2248 11.8331 22.252 11.8771 22.2768 11.9227C22.2904 11.9467 22.304 11.9715 22.3168 11.9963C22.3304 12.0235 22.344 12.0507 22.3568 12.0779C22.3696 12.1051 22.3816 12.1323 22.3936 12.1603C22.4056 12.1875 22.4168 12.2155 22.4272 12.2443C22.4384 12.2723 22.4488 12.3011 22.4584 12.3299C22.468 12.3587 22.4776 12.3875 22.4864 12.4171C22.4952 12.4467 22.5032 12.4763 22.5112 12.5059C22.5216 12.5451 22.5312 12.5851 22.5392 12.6259C22.5728 12.7875 22.5912 12.9555 22.592 13.1283V13.1435L22.5928 13.1443Z" fill="#3F51B5"/>
</svg>
