<svg width="40" height="40" viewBox="0 0 40 40" fill="none" xmlns="http://www.w3.org/2000/svg">
<g clip-path="url(#clip0_1283_11429)">
<path d="M39.9757 26.6104C39.9781 25.184 39.9813 23.7576 39.9829 22.3312V22.3232C39.9845 21.6088 39.9853 20.8944 39.9853 20.18C39.9853 15.0096 39.9901 9.8392 39.9853 4.6688C39.9853 4.6056 39.9853 4.5432 39.9813 4.4808C39.9797 4.4176 39.9757 4.356 39.9709 4.2936C39.9669 4.2344 39.9613 4.1768 39.9549 4.1192C39.9485 4.0616 39.9413 4.0048 39.9333 3.948C39.9277 3.9104 39.9221 3.8728 39.9157 3.8352C39.8861 3.6552 39.8453 3.4784 39.7957 3.3064C39.7717 3.2208 39.7446 3.136 39.715 3.052C39.7054 3.024 39.695 2.996 39.6846 2.9688C39.6542 2.8856 39.6214 2.804 39.5854 2.7232C39.5622 2.6696 39.5374 2.616 39.5118 2.564C39.487 2.5112 39.4598 2.4592 39.4326 2.408C39.391 2.3304 39.3478 2.2552 39.303 2.1808C39.235 2.0688 39.1623 1.9608 39.0847 1.8552C39.0071 1.7504 38.9255 1.6488 38.8391 1.5512C38.8007 1.508 38.7616 1.4648 38.7216 1.4232C38.6816 1.3808 38.64 1.34 38.5984 1.2992C38.1393 0.8536 37.5794 0.5016 36.9387 0.2704C36.8619 0.2424 36.7835 0.2176 36.7051 0.1936C36.6268 0.1704 36.5476 0.148 36.4684 0.1272C36.3492 0.0952 36.2292 0.0648 36.1101 0.0328C36.0701 0.0216 36.0301 0.0112 35.9909 0H4.00121C3.95802 0.0136 3.91562 0.0296 3.87323 0.044C3.85403 0.0504 3.83486 0.0568 3.81566 0.0624C3.81006 0.064 3.80447 0.0656 3.79887 0.0672C3.78847 0.0704 3.77806 0.0728 3.76766 0.0752C3.75887 0.0776 3.75088 0.0792 3.74208 0.0808C3.72849 0.084 3.71489 0.0864 3.70209 0.0896C3.68849 0.092 3.6749 0.0952 3.6621 0.0984C3.6557 0.0984 3.65008 0.1 3.64449 0.1016C3.60369 0.1104 3.5637 0.1192 3.52451 0.1296C3.47972 0.1408 3.43571 0.152 3.39172 0.164C3.33413 0.18 3.27735 0.1968 3.22137 0.2144C3.16458 0.232 3.10858 0.2512 3.05339 0.2712C2.95821 0.3048 2.86463 0.3416 2.77345 0.3816C2.65107 0.4344 2.5319 0.492 2.41512 0.5544C2.35753 0.5856 2.29995 0.6176 2.24316 0.6512C2.21517 0.668 2.18719 0.6848 2.15919 0.7024C2.07601 0.7536 1.9944 0.808 1.91522 0.8648C1.91442 0.8648 1.91444 0.8656 1.91444 0.8656C1.86165 0.9032 1.80964 0.9416 1.75845 0.9816C1.72086 1.0104 1.68408 1.04 1.64808 1.0704C1.60969 1.1024 1.57128 1.1344 1.53369 1.168C1.4977 1.1992 1.46252 1.232 1.42813 1.2656C1.40333 1.288 1.38014 1.3104 1.35615 1.3336C1.34495 1.3448 1.33376 1.356 1.32256 1.3672C1.16339 1.5272 1.01622 1.6992 0.882648 1.88C0.855454 1.9168 0.82904 1.9536 0.803445 1.9912C0.756254 2.06 0.710667 2.1296 0.666675 2.2008C0.649879 2.228 0.633872 2.256 0.617076 2.284C0.585082 2.3392 0.553894 2.396 0.5235 2.4528C0.477909 2.5392 0.43551 2.6264 0.395518 2.7152C0.356326 2.804 0.319563 2.8936 0.285969 2.9848C0.274772 3.016 0.263561 3.0464 0.253163 3.0768C0.242765 3.108 0.232356 3.1392 0.221958 3.1704C0.201962 3.232 0.18359 3.2952 0.165993 3.3584C0.114003 3.548 0.0748126 3.7424 0.0476179 3.9416C0.0388197 4.008 0.0315992 4.0744 0.0252005 4.1416C0.0188018 4.2096 0.014009 4.2784 0.0116094 4.3472C0.00841006 4.4136 0.00680569 4.48 0.00680569 4.5472C-0.000392888 14.8504 -0.00600584 25.152 0.0123905 35.4536C0.01479 36.6736 0.417129 37.7064 1.19138 38.5088C1.25856 38.5776 1.32814 38.6456 1.40173 38.712C1.49771 38.7984 1.59769 38.8824 1.70327 38.9632C1.87843 39.0976 2.06722 39.2232 2.26878 39.34C2.29678 39.356 2.32474 39.372 2.35353 39.3872C2.41032 39.4176 2.46792 39.4464 2.52631 39.4736C2.5551 39.4872 2.5847 39.5008 2.6143 39.5136C2.65429 39.5304 2.69428 39.548 2.73427 39.564C2.78706 39.5856 2.84145 39.6064 2.89584 39.6264C3.25897 39.7608 3.63888 39.8656 4.00121 40H35.9909C35.9989 39.9944 36.0069 39.9888 36.0149 39.9824C36.0189 39.9792 36.0229 39.976 36.0269 39.9728C36.0349 39.9664 36.0429 39.9608 36.0509 39.9552H36.0517C36.0581 39.9504 36.0653 39.9464 36.0725 39.944C36.0781 39.9416 36.0837 39.94 36.0893 39.9392C36.3276 39.9088 36.562 39.8576 36.7915 39.7856C36.8131 39.7792 36.8339 39.772 36.8555 39.7648C37.0427 39.7032 37.2258 39.6288 37.4034 39.5408C37.4522 39.5168 37.5002 39.492 37.5482 39.4656C37.6578 39.4072 37.765 39.344 37.8689 39.2752C37.9137 39.2464 37.9577 39.216 38.0017 39.1848C38.2201 39.0312 38.4264 38.856 38.6176 38.6624C38.6656 38.6136 38.712 38.564 38.7575 38.5136C39.5246 37.664 40.0133 36.4928 39.9997 35.1304C39.9717 32.2904 39.9709 29.4504 39.9749 26.6104H39.9757ZM1.21536 4.7896C1.21856 2.6384 2.61989 1.2168 4.76587 1.2152C14.9207 1.2096 25.0754 1.2096 35.2302 1.2152C37.3242 1.2168 38.7607 2.6168 38.7695 4.6768C38.7847 8.556 38.7744 12.4352 38.7736 16.3144C38.7736 16.4056 38.7616 16.4968 38.7536 16.6248H31.6477C31.9381 15.992 32.2636 15.3952 32.4916 14.7632C33.5234 11.9048 33.2323 9.2016 31.2918 6.8192C28.6812 3.6128 24.4012 3.2488 21.1866 5.8856C20.7771 6.2216 20.3988 6.596 19.9964 6.9616C19.6053 6.6056 19.227 6.2336 18.8199 5.8968C16.306 3.8176 13.1458 3.5216 10.4663 5.2408C8.03322 6.8016 6.89984 9.1264 6.93743 12.0088C6.95822 13.5784 7.47253 15.0136 8.24678 16.3632C8.28597 16.4312 8.32276 16.5 8.38355 16.6112H1.21457V16.1872C1.21457 12.388 1.21138 8.5888 1.21457 4.7896H1.21536ZM19.9397 26.156C19.9221 26.1544 19.9045 26.152 19.8877 26.1488H19.8869C19.8517 26.1416 19.8157 26.132 19.7797 26.1184C19.7613 26.112 19.7421 26.104 19.7229 26.0952C19.6853 26.0776 19.6461 26.0568 19.6054 26.0328C19.5934 26.0256 19.5805 26.0184 19.5677 26.0096C19.5669 26.0096 19.5654 26.008 19.5638 26.0064C19.5566 26.0024 19.5501 25.9976 19.5429 25.9928C19.3374 25.8552 19.1334 25.716 18.9303 25.5752C18.8039 25.4872 18.6775 25.3984 18.5519 25.3088C18.4168 25.2128 18.2824 25.116 18.1488 25.0176C18.092 24.976 18.0345 24.9336 17.9777 24.892C17.9201 24.8504 17.8633 24.808 17.8065 24.7648C17.6833 24.6728 17.5609 24.58 17.4386 24.4872C17.2434 24.3376 17.0498 24.1864 16.8571 24.0344C16.5691 23.8056 16.2844 23.5736 16.0029 23.3368C15.8157 23.1792 15.6293 23.02 15.4446 22.8592C15.2838 22.7184 15.123 22.5768 14.9638 22.4328C14.8847 22.3616 14.8055 22.2896 14.7263 22.2168C14.6471 22.1448 14.5687 22.072 14.4904 21.9992C14.412 21.9256 14.3336 21.8528 14.256 21.7792C14.168 21.696 14.08 21.612 13.9928 21.5272C13.9264 21.4632 13.8593 21.3984 13.7929 21.3328C13.7161 21.2584 13.6401 21.1832 13.5641 21.1072C13.325 20.8696 13.089 20.6288 12.8571 20.3848C12.7987 20.324 12.7403 20.2624 12.6827 20.2008C12.5659 20.0776 12.4499 19.9528 12.3364 19.828C12.2788 19.7656 12.2212 19.7024 12.1644 19.6392C12.0628 19.528 11.962 19.4152 11.8629 19.3024C11.8221 19.2568 11.7813 19.2104 11.7413 19.164C11.5149 18.9064 11.2926 18.6456 11.0734 18.3808C10.995 18.288 10.9182 18.1936 10.8415 18.0992C10.8039 18.0528 10.7759 17.9984 10.7047 17.8816C10.6999 17.8744 10.6951 17.8664 10.6903 17.8584H10.6895C11.0366 17.8576 11.3214 17.8616 11.6061 17.8576H11.6069C12.1396 17.8496 12.2852 17.736 12.4099 17.2152C12.7947 15.6096 13.1754 14.0032 13.5593 12.3976C13.5633 12.38 13.5673 12.3632 13.5721 12.3456C13.5817 12.3112 13.5913 12.2768 13.6041 12.2424C13.6097 12.2248 13.6169 12.208 13.6241 12.1912C13.6385 12.1576 13.6545 12.124 13.6737 12.0904C13.6929 12.0568 13.7153 12.0232 13.7425 11.9896H13.7433C14.0113 13.136 14.2792 14.2832 14.5479 15.4304C14.8695 16.8064 15.1958 18.1808 15.5109 19.5584C15.5509 19.7344 15.6029 19.8968 15.6965 20.0184C15.7085 20.0336 15.7205 20.048 15.7333 20.0616C15.7917 20.124 15.8653 20.1712 15.9572 20.1992C15.97 20.2032 15.9837 20.2064 15.9965 20.2096C16.0069 20.212 16.0172 20.2136 16.0284 20.216C16.0604 20.2216 16.094 20.2248 16.13 20.2264C16.1604 20.228 16.19 20.2272 16.218 20.2256C16.2684 20.2216 16.3148 20.212 16.3572 20.1984C16.3724 20.1936 16.3868 20.188 16.4004 20.1816C16.4132 20.1768 16.4252 20.1712 16.4372 20.164C16.4492 20.1576 16.462 20.1504 16.4732 20.1432C16.4844 20.1352 16.4955 20.1272 16.5067 20.1192C16.5435 20.0912 16.5764 20.0576 16.6059 20.0208C16.6147 20.0088 16.6235 19.9976 16.6323 19.9848C16.6443 19.9688 16.6547 19.9528 16.6651 19.9352C16.6723 19.924 16.6795 19.912 16.6859 19.9C16.7219 19.8352 16.7531 19.764 16.7811 19.6896C16.7867 19.676 16.7915 19.6624 16.7963 19.648C16.8011 19.6368 16.8051 19.6248 16.8091 19.6136C17.265 18.3336 17.7281 17.056 18.1912 15.7784C18.2304 15.6712 18.2864 15.5688 18.3808 15.3632C18.4152 15.5008 18.4488 15.6352 18.4816 15.768C18.6239 16.3424 18.7551 16.8728 18.8847 17.396C18.9079 17.4872 18.9303 17.5792 18.9535 17.6712C18.9958 17.8424 19.0382 18.0136 19.0798 18.1848C19.1222 18.356 19.1646 18.5272 19.207 18.6984C19.3766 19.384 19.5453 20.0688 19.7181 20.7528C19.8053 21.0952 19.8925 21.4368 19.9821 21.7784C19.9853 21.7912 19.9892 21.8032 19.9932 21.816C20.0012 21.8416 20.0101 21.8664 20.0205 21.892C20.0293 21.9152 20.0388 21.9376 20.05 21.9592C20.0604 21.9816 20.0724 22.0032 20.0844 22.0248C20.1092 22.0688 20.1364 22.1104 20.1668 22.1488C20.1828 22.1704 20.2004 22.192 20.2204 22.2112C20.258 22.2504 20.298 22.284 20.3396 22.3096C20.5755 22.4536 20.8163 22.4112 20.9947 22.2312C21.0194 22.2072 21.0419 22.1808 21.0626 22.152C21.0698 22.1424 21.0771 22.1328 21.0835 22.1224C21.0995 22.1 21.1138 22.076 21.1274 22.0504C21.1322 22.0424 21.137 22.0344 21.141 22.0256C21.1466 22.0152 21.1514 22.0056 21.1562 21.9944C21.1602 21.9856 21.1642 21.9768 21.1682 21.9672C21.1778 21.9464 21.1866 21.9256 21.1938 21.9032C21.201 21.8856 21.2066 21.8672 21.2122 21.8488C21.2194 21.8256 21.2258 21.8024 21.2322 21.7784C21.6009 20.304 21.9585 18.828 22.3232 17.3528C22.568 16.364 22.8167 15.376 23.1502 14.3816C23.2686 14.7536 23.391 15.1248 23.5054 15.4984C23.5758 15.7272 23.6461 15.9568 23.7165 16.1856C23.8573 16.644 23.9973 17.1024 24.1349 17.5616C24.2044 17.7912 24.2724 18.0208 24.3404 18.2504C24.3524 18.2904 24.3652 18.3296 24.3788 18.3672C24.3932 18.4048 24.4084 18.4408 24.4244 18.4752C24.4412 18.5104 24.4596 18.5424 24.4788 18.5728C24.4988 18.6032 24.5196 18.6312 24.5436 18.6576C24.5556 18.6704 24.5676 18.6832 24.5812 18.6944C24.6068 18.7176 24.6355 18.7384 24.6659 18.7568C24.6771 18.7632 24.6883 18.7696 24.7003 18.7744C24.7027 18.776 24.7043 18.7768 24.7067 18.7776H24.7075C24.7139 18.7808 24.7211 18.784 24.7283 18.7864C24.7603 18.8008 24.7947 18.8112 24.8323 18.8184C24.8491 18.8216 24.8667 18.8248 24.8851 18.8264C24.8891 18.8272 24.8923 18.8272 24.8963 18.8272C24.9147 18.8296 24.9331 18.8304 24.9531 18.8312H24.9755C24.9971 18.8312 25.0187 18.8304 25.0387 18.828C25.085 18.8248 25.1282 18.8152 25.1674 18.8016C25.1738 18.8 25.1794 18.7984 25.1858 18.7952C25.1882 18.7952 25.1906 18.7952 25.193 18.7928C25.201 18.7888 25.209 18.7864 25.2162 18.7824C25.229 18.7776 25.2418 18.772 25.253 18.7648C25.269 18.7568 25.2834 18.7472 25.2978 18.7376C25.2986 18.7368 25.2994 18.736 25.3002 18.736C25.3138 18.7264 25.3266 18.7168 25.3394 18.7056C25.353 18.6944 25.3658 18.6832 25.3778 18.6704C25.3906 18.6584 25.4026 18.6456 25.4138 18.632C25.4266 18.6176 25.4386 18.6024 25.4498 18.5864C25.4642 18.5672 25.4778 18.5472 25.4906 18.5264C25.4978 18.516 25.5042 18.5056 25.5098 18.4944C25.5162 18.4832 25.5226 18.4728 25.5282 18.4616C25.5394 18.4408 25.5506 18.4192 25.561 18.3968C25.5738 18.3704 25.5858 18.344 25.5978 18.316C25.6018 18.3072 25.6058 18.2984 25.6098 18.2888C25.6785 18.1224 25.7473 17.9568 25.8169 17.7912C25.9217 17.5424 26.0265 17.2944 26.132 17.0464C26.2368 16.7984 26.3432 16.5496 26.4488 16.3016C26.484 16.2184 26.5296 16.14 26.5935 16.0112C26.7999 16.4672 26.9895 16.8752 27.1686 17.288C27.1838 17.324 27.2006 17.3576 27.2174 17.3896C27.2254 17.4056 27.2342 17.4208 27.243 17.436C27.2518 17.452 27.2614 17.4672 27.271 17.4824C27.2966 17.5216 27.323 17.5576 27.351 17.5912C27.3654 17.6072 27.3798 17.6232 27.395 17.6384C27.4078 17.652 27.4214 17.6648 27.4358 17.6768C27.439 17.6808 27.443 17.684 27.447 17.6864C27.4614 17.6992 27.4758 17.7104 27.491 17.7208C27.5246 17.7456 27.5598 17.7672 27.5974 17.7856C27.6174 17.796 27.6382 17.8048 27.659 17.8128C27.6774 17.82 27.6965 17.8264 27.7165 17.832C27.7293 17.8368 27.7437 17.84 27.7573 17.8424C27.7685 17.8456 27.7797 17.848 27.7909 17.8504C27.8093 17.8544 27.8285 17.8576 27.8477 17.86C27.8669 17.8632 27.8869 17.8648 27.9077 17.8664C27.9149 17.8672 27.9213 17.868 27.9285 17.8672C27.9469 17.8688 27.9661 17.8696 27.9853 17.8696C28.0245 17.8704 28.0652 17.8696 28.1068 17.8648C28.4748 17.8328 28.8467 17.8584 29.321 17.8584C29.1275 18.1104 28.9955 18.2968 28.8491 18.472C28.7731 18.5624 28.6972 18.6528 28.6204 18.7424C28.5444 18.832 28.4668 18.9216 28.3892 19.0104C28.3124 19.0992 28.234 19.188 28.1557 19.276C28.0917 19.348 28.0285 19.42 27.9637 19.4912C27.9221 19.5384 27.8797 19.5848 27.8373 19.6312C27.7573 19.7192 27.6765 19.8072 27.5965 19.8944C27.5118 19.9864 27.427 20.0776 27.3406 20.168C27.2742 20.2392 27.2079 20.3096 27.1407 20.3792C27.0423 20.4824 26.9439 20.5848 26.8439 20.6864C26.8199 20.7112 26.7959 20.736 26.7719 20.76C26.6703 20.864 26.5672 20.968 26.464 21.0704C26.38 21.1544 26.296 21.2376 26.2112 21.32C26.172 21.3592 26.1328 21.3968 26.0936 21.4336C26.0848 21.4432 26.0769 21.4512 26.0681 21.4584C26.0169 21.508 25.9657 21.5576 25.9145 21.6072C25.8633 21.6568 25.8121 21.7056 25.7601 21.7544C25.6465 21.8616 25.533 21.968 25.4186 22.0744C25.3594 22.1296 25.3002 22.184 25.241 22.2376C25.1818 22.292 25.1219 22.3464 25.0627 22.4C24.9707 22.484 24.8779 22.5672 24.7843 22.6488C24.6915 22.7312 24.5988 22.8136 24.5044 22.8944C24.4492 22.9432 24.394 22.9912 24.338 23.0384C24.2164 23.1432 24.0948 23.2472 23.9725 23.3488C23.8965 23.4128 23.8197 23.4768 23.7429 23.54C23.6949 23.5808 23.6461 23.6208 23.5982 23.6592C23.479 23.7568 23.359 23.8536 23.239 23.9496C23.1222 24.0432 23.0054 24.136 22.8879 24.2272C22.8031 24.2936 22.7183 24.3592 22.6327 24.4248C22.5551 24.4848 22.4784 24.544 22.4 24.6024C22.3776 24.62 22.356 24.6368 22.3336 24.6528C22.2464 24.7184 22.1592 24.784 22.0712 24.8488C21.9873 24.9112 21.9033 24.9728 21.8193 25.0336C21.7401 25.092 21.6601 25.1496 21.5802 25.2072C21.4298 25.3152 21.2794 25.4224 21.1274 25.5272C21.0203 25.6024 20.9131 25.676 20.8059 25.7496C20.6987 25.8232 20.59 25.8968 20.482 25.9696C20.4388 25.9984 20.3972 26.0248 20.3564 26.0472C20.338 26.0576 20.3212 26.0664 20.3036 26.0752C20.2812 26.0864 20.2596 26.0968 20.2372 26.1056C20.2292 26.1096 20.2204 26.1128 20.2124 26.1152C20.2124 26.116 20.21 26.1168 20.2084 26.1168C20.198 26.1216 20.1876 26.1248 20.1764 26.128C20.174 26.1296 20.1708 26.1304 20.1676 26.1304C20.1596 26.1328 20.1524 26.1352 20.1444 26.1368C20.1444 26.1368 20.1439 26.1371 20.1428 26.1376C20.1428 26.1376 20.1364 26.14 20.134 26.14C20.1252 26.1432 20.1164 26.1448 20.1084 26.1464C20.0908 26.1504 20.0733 26.1536 20.0557 26.1552C20.0525 26.1552 20.0493 26.156 20.0453 26.156C20.0101 26.1592 19.9749 26.1592 19.9389 26.156H19.9397ZM29.1778 16.652C29.0619 16.652 28.9459 16.6504 28.8299 16.6472C28.7115 16.644 28.5932 16.6384 28.4756 16.6312C28.4644 16.6304 28.4532 16.6288 28.442 16.6264C28.4324 16.6248 28.4228 16.6224 28.4124 16.6192C28.3988 16.6152 28.386 16.6104 28.3724 16.6048C28.3268 16.5872 28.2812 16.56 28.2404 16.528C28.2244 16.5152 28.2084 16.5016 28.194 16.488C28.1573 16.4536 28.1268 16.4152 28.1084 16.3776C27.7845 15.7208 27.4886 15.0504 27.1878 14.3824C27.1654 14.3328 27.1423 14.2856 27.1159 14.2408C27.0903 14.1968 27.0631 14.1552 27.0327 14.1176C27.0255 14.1088 27.0183 14.1 27.0103 14.0912C26.9695 14.0448 26.9239 14.0056 26.8719 13.9744C26.8583 13.9656 26.8431 13.9576 26.8279 13.9504C26.7991 13.936 26.7679 13.9248 26.7351 13.916C26.7295 13.9144 26.7247 13.9128 26.7191 13.912C26.7063 13.908 26.6927 13.9056 26.6792 13.904C26.6776 13.9032 26.6759 13.9032 26.6751 13.9032C26.6311 13.8952 26.5848 13.892 26.5344 13.8936C26.5136 13.8944 26.4928 13.896 26.4736 13.8976C26.4312 13.9024 26.3928 13.9104 26.3568 13.9224C26.3424 13.9264 26.328 13.932 26.3152 13.9376C26.2832 13.9504 26.2544 13.9656 26.2272 13.984C26.2136 13.9928 26.2 14.0024 26.188 14.0128C26.1752 14.0232 26.1632 14.0336 26.1512 14.0448C26.1305 14.064 26.1113 14.0856 26.0945 14.108C26.0897 14.1136 26.0848 14.1192 26.0801 14.1256C26.0641 14.1464 26.0489 14.1688 26.0353 14.192C26.0241 14.2096 26.0137 14.228 26.0033 14.2472C25.9865 14.2776 25.9713 14.3104 25.9561 14.3432C25.9489 14.36 25.9417 14.3768 25.9345 14.3944C25.8665 14.5568 25.7985 14.7192 25.7297 14.8808C25.525 15.3664 25.3186 15.8512 25.1122 16.336C25.081 16.3304 25.0499 16.3256 25.0187 16.32C24.6587 15.1368 24.2988 13.9544 23.9397 12.7712C23.8621 12.516 23.7837 12.2616 23.7117 12.0056C23.7053 11.984 23.6997 11.9624 23.6933 11.9416C23.6869 11.9208 23.6805 11.8992 23.6733 11.8784C23.6565 11.8264 23.6382 11.7752 23.6166 11.7272C23.6094 11.7104 23.6014 11.6936 23.5934 11.6776C23.5926 11.6752 23.5918 11.6728 23.5902 11.6712C23.5806 11.6528 23.5709 11.6352 23.5605 11.6176C23.5534 11.604 23.5454 11.5912 23.5366 11.5792C23.5326 11.5736 23.5278 11.5672 23.5238 11.5616C23.515 11.5488 23.5054 11.5368 23.495 11.5256C23.4878 11.5168 23.4806 11.508 23.4726 11.5C23.4662 11.4936 23.4598 11.4872 23.4542 11.4824C23.4478 11.476 23.4414 11.4704 23.435 11.4648C23.4334 11.4632 23.4318 11.4616 23.4294 11.46C23.4182 11.4504 23.407 11.4416 23.395 11.4336C23.3878 11.428 23.3806 11.4232 23.3726 11.4192C23.3654 11.4152 23.3582 11.4104 23.3502 11.4064C23.3238 11.3912 23.295 11.3792 23.2646 11.3696C23.2542 11.3664 23.2438 11.3632 23.2334 11.3608C23.2198 11.3568 23.2062 11.3536 23.1918 11.3512C23.175 11.348 23.1574 11.3456 23.139 11.344C23.1078 11.34 23.0759 11.3392 23.0415 11.34C23.0311 11.34 23.0207 11.3408 23.0103 11.3416C23.0031 11.3416 22.9967 11.3424 22.9895 11.3432C22.9727 11.3448 22.9559 11.3464 22.9399 11.3488C22.9327 11.3488 22.9263 11.3504 22.9191 11.352C22.8975 11.356 22.8775 11.3608 22.8575 11.3664C22.8439 11.3704 22.8311 11.3752 22.8183 11.38C22.8119 11.3816 22.8055 11.384 22.7991 11.3872C22.7935 11.3896 22.7871 11.3928 22.7815 11.3952C22.7695 11.4008 22.7575 11.4064 22.7463 11.4128C22.7351 11.4184 22.7247 11.4248 22.7143 11.432C22.7039 11.4392 22.6935 11.4464 22.6839 11.4544C22.6743 11.4624 22.6647 11.4704 22.6559 11.4784C22.6463 11.4864 22.6375 11.4952 22.6287 11.504C22.6127 11.5208 22.5975 11.5384 22.5839 11.5576C22.5727 11.572 22.5623 11.588 22.5527 11.604C22.5415 11.6208 22.532 11.6384 22.5224 11.6568C22.516 11.6688 22.5104 11.6808 22.5048 11.6936C22.4992 11.7048 22.4943 11.716 22.4896 11.7272C22.4792 11.752 22.4696 11.7768 22.4608 11.8024C22.452 11.828 22.4432 11.8544 22.4352 11.8816C22.4208 11.9296 22.408 11.9792 22.396 12.0296C22.0504 13.4536 21.6985 14.8768 21.3466 16.2992C21.3034 16.4752 21.2594 16.6512 21.2154 16.8272C21.1874 16.9376 21.1594 17.048 21.1306 17.1592C21.1066 17.2552 21.0818 17.3504 21.0562 17.4456C20.9323 17.9168 20.8003 18.3888 20.6507 18.8608C20.6275 18.9344 20.6035 19.0088 20.5795 19.0832C20.5755 19.0952 20.5715 19.108 20.5675 19.12C20.4452 18.6328 20.3236 18.1472 20.2012 17.66C20.0788 17.172 19.9573 16.684 19.8357 16.1968C19.7141 15.7056 19.5925 15.2144 19.471 14.7232C19.3502 14.232 19.2294 13.7408 19.1078 13.2496C19.0982 13.2104 19.0878 13.172 19.0759 13.1344C19.0647 13.0968 19.0527 13.06 19.0391 13.0248C19.0343 13.012 19.0286 12.9992 19.023 12.9864C19.0166 12.9696 19.0087 12.9536 19.0007 12.9384C18.9967 12.9296 18.9927 12.9216 18.9879 12.9136C18.9623 12.8664 18.9327 12.824 18.8975 12.7864C18.8871 12.7752 18.8759 12.764 18.8639 12.7544C18.8519 12.7432 18.8383 12.7328 18.8247 12.7232C18.8231 12.7216 18.8207 12.72 18.8191 12.7192C18.8071 12.7112 18.7951 12.7032 18.7823 12.696H18.7815C18.7727 12.6912 18.7639 12.6864 18.7543 12.6824C18.7503 12.68 18.7455 12.6776 18.7415 12.6768C18.7415 12.6768 18.741 12.6765 18.7399 12.676C18.7327 12.6728 18.7255 12.6696 18.7175 12.6664C18.7023 12.6608 18.6871 12.6552 18.6703 12.6512C18.6615 12.6488 18.6527 12.6464 18.6439 12.6448C18.6439 12.6448 18.6423 12.6432 18.6415 12.6448C18.6351 12.6424 18.6295 12.6416 18.6231 12.6408C18.6231 12.6408 18.6215 12.6408 18.6207 12.6408C18.6095 12.6384 18.5983 12.636 18.5871 12.6352C18.5871 12.6336 18.5855 12.6336 18.5847 12.6344C18.5687 12.632 18.5519 12.6296 18.5351 12.6288C18.4951 12.6256 18.4568 12.6264 18.4216 12.6296C18.4168 12.6296 18.4128 12.6296 18.4096 12.6296C18.3904 12.6312 18.3728 12.6344 18.3552 12.6376C18.3392 12.64 18.324 12.644 18.3096 12.648C18.3056 12.6488 18.3024 12.6496 18.2984 12.6512C18.2808 12.656 18.264 12.6616 18.2472 12.6688C18.2312 12.6752 18.2144 12.6832 18.1992 12.6912C18.1864 12.6984 18.1744 12.7056 18.1624 12.7136C18.1528 12.7192 18.144 12.7256 18.136 12.732C18.1312 12.7344 18.1264 12.7384 18.1224 12.7424C18.116 12.7472 18.1096 12.7528 18.1032 12.7584C18.08 12.7776 18.0584 12.8 18.0384 12.8232C18.016 12.8504 17.9944 12.8792 17.9752 12.9104C17.9752 12.9104 17.9752 12.9107 17.9752 12.9112C17.9553 12.9424 17.9377 12.9752 17.9209 13.0096C17.9073 13.0352 17.8953 13.0624 17.8841 13.0904C17.8729 13.1184 17.8617 13.1464 17.8513 13.176C17.7745 13.3888 17.6977 13.6016 17.6201 13.8144C17.2354 14.8792 16.8483 15.9424 16.462 17.0056C16.4532 17.0288 16.4451 17.052 16.4356 17.0752C16.426 17.0992 16.4164 17.124 16.4068 17.1496C16.398 17.1704 16.3892 17.1928 16.3804 17.216C16.3764 17.2248 16.3724 17.2344 16.3692 17.2432C16.346 17.3 16.3196 17.3648 16.2884 17.4432C16.2836 17.4576 16.2772 17.472 16.2716 17.4864V17.4848C16.2444 17.3704 16.218 17.2584 16.1916 17.148C16.1652 17.0368 16.1396 16.9272 16.114 16.8184C16.0764 16.6552 16.0389 16.496 16.0013 16.3384C15.9645 16.1816 15.9277 16.0264 15.8917 15.872C15.8197 15.564 15.7493 15.2624 15.6789 14.9608C15.5669 14.4808 15.455 14.0008 15.343 13.5208C15.0071 12.0808 14.6711 10.6408 14.3384 9.1992C14.2592 8.8568 14.1024 8.5904 13.7185 8.5784C13.301 8.5648 13.1546 8.8608 13.0714 9.2112C12.7635 10.516 12.4523 11.8208 12.1444 13.1256C12.0412 13.5608 11.9389 13.996 11.8373 14.4312C11.7021 15.012 11.5669 15.5928 11.4342 16.1736C11.4294 16.1952 11.4237 16.216 11.4181 16.236C11.4077 16.276 11.3966 16.3128 11.3838 16.3472C11.371 16.3808 11.3574 16.412 11.3422 16.4392C11.335 16.4536 11.327 16.4664 11.3182 16.4792C11.3014 16.504 11.283 16.5264 11.2622 16.5456C11.2518 16.5552 11.2406 16.5648 11.2294 16.5728C11.2206 16.5792 11.2118 16.5856 11.2022 16.5904C11.1894 16.5984 11.1758 16.6056 11.1614 16.6112C11.1558 16.6144 11.1494 16.6168 11.143 16.6192C11.143 16.6192 11.1422 16.6192 11.1414 16.6192C11.1302 16.624 11.119 16.6272 11.1078 16.6304C11.0358 16.652 10.947 16.66 10.8367 16.6568C10.7599 16.6544 10.6895 16.6528 10.6231 16.6504C10.5767 16.6488 10.5319 16.648 10.4903 16.6456C10.4695 16.6456 10.4487 16.644 10.4287 16.6432C10.3903 16.6416 10.3536 16.6392 10.3184 16.6368C10.2904 16.6352 10.2632 16.6328 10.2376 16.6304C10.1856 16.6256 10.1384 16.62 10.0952 16.612C10.0688 16.6072 10.044 16.6016 10.02 16.596C10.008 16.5928 9.99603 16.5896 9.98483 16.5864C9.96324 16.58 9.94244 16.5728 9.92164 16.5648C9.90325 16.5576 9.88564 16.5496 9.86884 16.5416C9.85444 16.5344 9.84088 16.5272 9.82729 16.5192C9.81689 16.5128 9.80726 16.5056 9.79686 16.4992C9.78407 16.4904 9.77127 16.4808 9.75847 16.4704C9.73528 16.4512 9.71369 16.4304 9.6913 16.4072C9.6697 16.384 9.6481 16.3584 9.62651 16.3304C9.61531 16.316 9.6041 16.3016 9.5937 16.2864C9.57291 16.2568 9.55132 16.2248 9.52973 16.1896C9.44974 16.0608 9.36256 15.8952 9.25139 15.6808C9.21779 15.616 9.185 15.5512 9.15301 15.4856C9.14581 15.4704 9.13861 15.456 9.13141 15.4416C9.10181 15.3824 9.07303 15.3224 9.04584 15.2624C9.01785 15.2024 8.99065 15.1424 8.96425 15.0816C8.94666 15.0424 8.92903 15.0024 8.91223 14.9624C8.85624 14.8328 8.80348 14.7024 8.75469 14.5704C8.74429 14.5448 8.73468 14.5184 8.72508 14.492C8.71069 14.4544 8.69711 14.4168 8.68431 14.3792C8.68031 14.3688 8.6763 14.3592 8.6731 14.3488C8.6563 14.3008 8.6403 14.2544 8.6251 14.2072C8.60671 14.1544 8.58992 14.1024 8.57312 14.0488C8.54753 13.9688 8.52354 13.8888 8.50114 13.8088C8.48755 13.7632 8.47475 13.7176 8.46275 13.6712C8.45315 13.6368 8.44433 13.6016 8.43553 13.5672C8.42433 13.5256 8.41396 13.484 8.40437 13.4432C8.39477 13.4032 8.38516 13.3632 8.37636 13.3232C8.36677 13.2824 8.35794 13.2416 8.34914 13.2008C8.34194 13.1688 8.33554 13.136 8.32915 13.1032C8.31795 13.0536 8.30838 13.004 8.29958 12.9544C8.28358 12.8664 8.26838 12.7768 8.25479 12.688C8.24759 12.6416 8.24037 12.5952 8.23397 12.5488C8.22917 12.5128 8.2244 12.4768 8.2196 12.44C8.214 12.4032 8.21001 12.3664 8.20601 12.3296C8.19881 12.2672 8.19241 12.204 8.18601 12.1408C8.18041 12.0776 8.1748 12.0144 8.17 11.9504C8.1676 11.9072 8.16439 11.8648 8.16199 11.8224C8.15879 11.7664 8.15638 11.7096 8.15399 11.6536V11.6448C8.15159 11.5536 8.15078 11.4624 8.15238 11.372C8.15238 11.3704 8.15238 11.3696 8.15238 11.3688C8.15238 11.3672 8.15238 11.3656 8.15238 11.3656C8.15238 11.3544 8.15238 11.3448 8.15238 11.336C8.15238 11.3264 8.15238 11.3176 8.15238 11.3088C8.15238 11.2872 8.15321 11.2664 8.15481 11.2456C8.15401 11.2408 8.15481 11.2352 8.15481 11.2304C8.1596 11.1128 8.16759 10.9968 8.17879 10.8816C8.18118 10.8544 8.18359 10.8288 8.18679 10.8024C8.18599 10.7992 8.18679 10.7968 8.18679 10.7944C8.18679 10.7776 8.18998 10.7608 8.19238 10.7448C8.19238 10.7408 8.19318 10.7368 8.19398 10.7336C8.19878 10.6936 8.20439 10.6536 8.20999 10.6144C8.20999 10.6048 8.21237 10.5944 8.21397 10.5848C8.22197 10.532 8.23078 10.4792 8.24037 10.4264C8.24677 10.3848 8.25477 10.344 8.26357 10.304C8.26997 10.2704 8.27719 10.2368 8.28439 10.2032C8.30039 10.1296 8.31796 10.056 8.33715 9.9832C8.34595 9.9504 8.35476 9.9168 8.36355 9.884C8.36355 9.884 8.36355 9.8824 8.36355 9.8816C8.36435 9.8736 8.36676 9.8664 8.36996 9.8584C8.36996 9.8576 8.36994 9.856 8.37074 9.8552C8.37954 9.8256 8.38756 9.796 8.39636 9.7664C8.40756 9.7304 8.41875 9.6944 8.42995 9.6592C8.44514 9.612 8.46113 9.5648 8.47712 9.5176C8.50912 9.4232 8.54432 9.3304 8.58191 9.2392C8.6195 9.148 8.65871 9.0584 8.6995 8.9688C8.6995 8.9688 8.69975 8.9688 8.70028 8.9688C8.74188 8.88 8.78506 8.7912 8.83065 8.7048C8.85304 8.6616 8.87707 8.6184 8.90106 8.5752C8.99705 8.404 9.10022 8.2384 9.21139 8.0776C9.23859 8.0376 9.26659 7.9976 9.29618 7.9584C9.31458 7.9312 9.33455 7.9048 9.35535 7.8784C9.36015 7.8712 9.36574 7.864 9.37214 7.8568C9.38494 7.8392 9.39856 7.8224 9.41135 7.8056C9.44255 7.7648 9.47532 7.724 9.50891 7.684C9.51291 7.6768 9.51935 7.6704 9.52575 7.6632C9.55774 7.6232 9.59133 7.584 9.62573 7.5448C9.64492 7.5224 9.66492 7.4992 9.68571 7.4768C9.71771 7.4408 9.7497 7.4056 9.78249 7.3712C9.93046 7.212 10.088 7.0616 10.2536 6.9192C10.2896 6.888 10.3264 6.8568 10.364 6.8256C10.3952 6.8 10.4272 6.7744 10.4592 6.7488C10.5079 6.7104 10.5567 6.6728 10.6063 6.636C10.6527 6.6008 10.6999 6.5672 10.7479 6.5336C10.7895 6.5048 10.8311 6.476 10.8734 6.448C10.9006 6.4296 10.9279 6.412 10.9559 6.3944C10.9934 6.3696 11.031 6.3464 11.0686 6.3232C11.1102 6.2976 11.1518 6.2728 11.1934 6.2488C11.2246 6.2304 11.2566 6.212 11.2894 6.1944C11.3158 6.1792 11.3422 6.1648 11.3694 6.1504C11.4206 6.1224 11.4726 6.0952 11.5254 6.0688C11.5325 6.0656 11.5397 6.0616 11.5477 6.0584C11.5981 6.0328 11.6493 6.008 11.7013 5.9848C11.7333 5.9696 11.7653 5.9552 11.7981 5.9408C11.8405 5.9216 11.8837 5.9032 11.9269 5.8856C11.9557 5.8728 11.9852 5.8608 12.014 5.8496C12.0428 5.8384 12.0724 5.8272 12.102 5.816C12.1308 5.8048 12.1604 5.7936 12.19 5.7832C12.2196 5.772 12.2492 5.7616 12.2788 5.752C12.2996 5.7448 12.3204 5.7376 12.3412 5.7312C12.3484 5.728 12.3556 5.7256 12.3636 5.724C12.3924 5.7136 12.4211 5.7048 12.4499 5.696C12.5435 5.6664 12.6387 5.64 12.7339 5.6152C12.7819 5.6024 12.8299 5.5912 12.8779 5.58C12.9162 5.5712 12.9555 5.5624 12.9938 5.5544C13.0122 5.5504 13.0306 5.5464 13.049 5.5432C13.1178 5.5288 13.1866 5.5168 13.2554 5.5056C13.2858 5.5 13.3154 5.4952 13.3458 5.4912C13.3762 5.4864 13.4066 5.4824 13.437 5.4784C13.4994 5.4704 13.5625 5.4632 13.6257 5.4568C13.6305 5.4552 13.6353 5.4552 13.6401 5.4552C13.6633 5.452 13.6865 5.4504 13.7097 5.4488C13.7137 5.448 13.7177 5.4472 13.7217 5.448C13.7449 5.4456 13.7673 5.444 13.7897 5.4424C13.8689 5.436 13.9481 5.432 14.0272 5.4296C14.0488 5.4296 14.0704 5.428 14.092 5.428C14.2456 5.4248 14.4 5.4272 14.5551 5.436C14.6687 5.4424 14.7823 5.4528 14.8959 5.4656C15.1246 5.492 15.3542 5.532 15.5845 5.5856C17.1762 5.9592 18.4184 6.8352 19.3334 8.1832C19.3606 8.2232 19.3878 8.2616 19.4158 8.2968C19.443 8.332 19.471 8.3648 19.4981 8.3952C19.5253 8.4248 19.5534 8.452 19.5806 8.4784C19.6077 8.5032 19.6357 8.5256 19.6629 8.5464C19.6877 8.564 19.7117 8.58 19.7357 8.5936C19.7461 8.6 19.7565 8.6056 19.7669 8.6104C19.7773 8.616 19.7877 8.6208 19.7981 8.6248C19.8101 8.6296 19.8229 8.6344 19.8349 8.6392C19.8469 8.644 19.8589 8.648 19.8717 8.6512C19.8989 8.6584 19.9269 8.6632 19.9549 8.6664C19.9805 8.668 20.0061 8.668 20.0325 8.6664C20.0373 8.6664 20.042 8.6656 20.0468 8.6648C20.0508 8.6648 20.0556 8.6648 20.0596 8.6632C20.0668 8.6624 20.074 8.6616 20.0812 8.66C20.0916 8.6576 20.1028 8.6552 20.114 8.6528C20.1212 8.6504 20.1276 8.6488 20.1348 8.6464C20.1484 8.6424 20.162 8.6376 20.1756 8.632C20.194 8.6248 20.2124 8.6168 20.2308 8.6072C20.2396 8.6024 20.2492 8.5976 20.258 8.592C20.2764 8.5816 20.2948 8.5696 20.3132 8.5568C20.322 8.5504 20.3308 8.544 20.3404 8.5368C20.3588 8.5232 20.3764 8.5088 20.3948 8.492C20.4044 8.4832 20.414 8.4744 20.4236 8.4656C20.4332 8.4568 20.4428 8.4472 20.4516 8.4376C20.4692 8.42 20.486 8.4016 20.5028 8.3824C20.5547 8.3248 20.6051 8.2576 20.6555 8.1824C20.6923 8.128 20.7291 8.0736 20.7675 8.0208C20.8043 7.9688 20.8419 7.9168 20.8803 7.8664C20.8819 7.864 20.8835 7.8624 20.8843 7.8608C20.9235 7.8096 20.9627 7.76 21.0027 7.7104C21.0426 7.6608 21.0835 7.6112 21.1251 7.5632C21.209 7.4656 21.2954 7.3712 21.3842 7.28C21.4282 7.2344 21.473 7.1896 21.5194 7.1456C21.6097 7.0576 21.7033 6.9728 21.7985 6.892C22.1792 6.5664 22.5952 6.2928 23.0367 6.0752C23.4782 5.8568 23.9453 5.6936 24.4284 5.5888C24.5492 5.5624 24.6707 5.54 24.7939 5.5216C24.8491 5.5128 24.9043 5.5056 24.9603 5.4984C24.9699 5.4968 24.9795 5.4952 24.9899 5.4944C25.0323 5.4896 25.0739 5.484 25.1163 5.4816C25.1251 5.4792 25.1346 5.4784 25.1434 5.4784C25.161 5.476 25.1778 5.4752 25.1962 5.4736C25.2322 5.4696 25.2674 5.4672 25.3026 5.4656C25.3274 5.4632 25.3522 5.4616 25.377 5.4608C25.429 5.4568 25.481 5.4544 25.533 5.4536C25.537 5.4528 25.5409 5.4528 25.5457 5.4536H25.5466C25.5466 5.4536 25.5481 5.4528 25.5489 5.4536C25.5489 5.4536 25.5497 5.4528 25.5505 5.4536C25.5537 5.4528 25.5562 5.452 25.5594 5.4536C25.5618 5.452 25.5642 5.452 25.5666 5.4528C25.5762 5.452 25.585 5.452 25.5946 5.4528C25.6793 5.4496 25.7657 5.4496 25.8513 5.452C25.8825 5.452 25.9145 5.4528 25.9465 5.4544C26.1288 5.46 26.3128 5.4744 26.4968 5.4976C26.5304 5.5016 26.564 5.5056 26.5976 5.5104C26.6176 5.5128 26.6376 5.516 26.6576 5.5192C26.6951 5.524 26.7319 5.5304 26.7695 5.5368C26.8127 5.5432 26.8551 5.5512 26.8983 5.5592C26.9839 5.5752 27.0695 5.5928 27.155 5.6128C27.1934 5.6216 27.2318 5.6304 27.271 5.64C27.2774 5.6416 27.2838 5.6432 27.2902 5.6448C27.3102 5.6488 27.3302 5.6544 27.351 5.66C27.351 5.66 27.3526 5.66 27.3534 5.6608C27.3998 5.6728 27.4462 5.6856 27.4926 5.6984C27.5262 5.708 27.5606 5.7184 27.5942 5.7288C27.6973 5.7592 27.7989 5.7936 27.8997 5.8312C27.9189 5.8384 27.9381 5.8456 27.9573 5.8528C27.9813 5.8616 28.0053 5.8712 28.0293 5.8808C28.0853 5.9024 28.1396 5.9256 28.1948 5.9488C28.2556 5.9752 28.3164 6.0024 28.3764 6.0312C28.4116 6.0472 28.4468 6.0648 28.482 6.0824C28.5172 6.0992 28.5524 6.1176 28.5867 6.136C28.6203 6.1528 28.6531 6.1712 28.6867 6.1896C28.7227 6.2088 28.7579 6.2288 28.7923 6.2488C28.8683 6.2928 28.9427 6.3376 29.0163 6.3848C29.0419 6.4008 29.0675 6.4168 29.0923 6.4344C29.1715 6.4864 29.2498 6.54 29.3266 6.5968C29.3538 6.616 29.3802 6.636 29.4066 6.656C29.4426 6.6832 29.4778 6.7104 29.513 6.7384C29.5418 6.76 29.5706 6.7832 29.5986 6.8072C29.6178 6.8224 29.637 6.8376 29.6554 6.8536C29.7585 6.94 29.8585 7.0296 29.9553 7.1232C29.9881 7.1544 30.0209 7.1864 30.0537 7.2192C30.0873 7.2528 30.12 7.2864 30.1528 7.3216C30.1848 7.3552 30.2168 7.3888 30.248 7.4232C30.3136 7.4944 30.3768 7.568 30.4384 7.6424C30.4688 7.6792 30.4984 7.716 30.528 7.7536C30.56 7.7936 30.5912 7.8344 30.6224 7.876C30.6232 7.876 30.6232 7.8768 30.6232 7.8776C30.6544 7.9192 30.6848 7.9608 30.7152 8.0032C30.7383 8.0352 30.7607 8.0672 30.7823 8.1C30.8087 8.1384 30.8351 8.1768 30.8599 8.216C30.8815 8.2488 30.9023 8.2816 30.9231 8.3152C30.9535 8.364 30.9839 8.4136 31.0127 8.4632C31.0527 8.5312 31.0911 8.5992 31.1278 8.6688C31.155 8.7208 31.1823 8.7736 31.2086 8.8264C31.235 8.8792 31.2606 8.932 31.2854 8.9856C31.3286 9.0792 31.3694 9.1744 31.4078 9.2704C31.4174 9.2928 31.4262 9.316 31.435 9.3392C31.4526 9.3856 31.4702 9.4312 31.4862 9.4776C31.4966 9.5056 31.5062 9.5336 31.5158 9.5616C31.5254 9.5896 31.535 9.6176 31.5438 9.6456C31.5566 9.6832 31.5678 9.7208 31.579 9.7584C31.5894 9.7896 31.599 9.8216 31.607 9.8536C31.6086 9.86 31.611 9.8664 31.6126 9.8728C31.6341 9.9488 31.6534 10.0256 31.6718 10.1024C31.6814 10.1416 31.6902 10.18 31.6982 10.2192C31.707 10.256 31.7142 10.2936 31.7214 10.3312C31.7342 10.3992 31.7461 10.4672 31.7573 10.536C31.7653 10.5872 31.7725 10.6392 31.7797 10.6904C31.7901 10.7696 31.7989 10.8496 31.8053 10.9296C31.8085 10.9616 31.8117 10.9928 31.8133 11.0248C31.8165 11.0736 31.8189 11.1224 31.8213 11.1704C31.8237 11.2104 31.8253 11.2512 31.8261 11.292C31.8277 11.3552 31.8285 11.4192 31.8277 11.4824C31.8277 11.5296 31.8277 11.5776 31.8261 11.6248C31.8261 11.6536 31.8245 11.6832 31.8237 11.7128C31.8237 11.7168 31.8237 11.7208 31.8237 11.7248C31.8237 11.7496 31.8221 11.7744 31.8213 11.7992C31.8189 11.8712 31.8149 11.9424 31.8101 12.0144C31.8085 12.0432 31.8061 12.0728 31.8037 12.1016C31.8021 12.1312 31.7989 12.1608 31.7965 12.1904C31.7925 12.236 31.7885 12.2816 31.7837 12.3272C31.7733 12.4328 31.7597 12.5376 31.7453 12.6432C31.7349 12.7144 31.7237 12.7856 31.7118 12.856C31.7014 12.9176 31.6902 12.9792 31.6782 13.04C31.6662 13.104 31.6534 13.168 31.639 13.2312C31.6286 13.2808 31.6174 13.3304 31.6054 13.3792C31.5958 13.42 31.5862 13.46 31.5758 13.5008C31.5558 13.5816 31.535 13.6616 31.5118 13.7416C31.5022 13.7776 31.4918 13.8136 31.4806 13.8496C31.4326 14.0128 31.3798 14.1744 31.3222 14.3352C31.307 14.3768 31.2918 14.4184 31.2766 14.4592C31.2606 14.5016 31.2446 14.5448 31.2278 14.5872C31.2262 14.5928 31.2239 14.5984 31.2215 14.6032C31.2047 14.6472 31.1871 14.6912 31.1687 14.7352C31.1503 14.7808 31.131 14.8264 31.111 14.872C31.0943 14.9128 31.0767 14.9536 31.0583 14.9944C31.0359 15.044 31.0135 15.0944 30.9903 15.144C30.9687 15.1912 30.9463 15.2384 30.9239 15.2856C30.8831 15.3696 30.8415 15.4528 30.7983 15.536C30.7799 15.5728 30.7607 15.6096 30.7416 15.6456C30.7176 15.6912 30.6927 15.7368 30.6679 15.7816C30.6455 15.8232 30.6224 15.8648 30.5984 15.9064C30.576 15.9472 30.5528 15.988 30.5288 16.0288C30.5016 16.0768 30.4728 16.1256 30.444 16.1736C30.3864 16.2696 30.3272 16.3648 30.2664 16.46C30.204 16.5568 30.0337 16.6296 29.9105 16.6352C29.6658 16.6456 29.4202 16.652 29.1746 16.652H29.1778ZM38.7727 35.2416C38.7607 37.3632 37.3522 38.784 35.2318 38.7856C25.0754 38.7904 14.9191 38.7896 4.76266 38.7856C2.63908 38.7848 1.22735 37.3664 1.21536 35.2464C1.20976 34.1664 1.23138 33.0856 1.20579 32.0064C1.19619 31.6184 1.31616 31.5184 1.69768 31.5192C7.80288 31.5312 13.9072 31.5272 20.0116 31.5272H38.2457C38.5971 31.5272 38.7733 31.6987 38.7743 32.0416C38.7743 33.108 38.7791 34.1744 38.7727 35.2416ZM38.7727 30.02C38.7727 30.0976 38.76 30.176 38.7488 30.2984H1.23457C1.23377 30.2784 1.23297 30.2584 1.23137 30.2384C1.23057 30.2184 1.22977 30.1984 1.22817 30.1792C1.22177 30.064 1.21536 29.956 1.21536 29.8496C1.21376 26.0096 1.21859 22.1696 1.20739 18.3304C1.20739 18.2488 1.21056 18.1792 1.22176 18.12C1.22336 18.1144 1.22416 18.1096 1.22496 18.104C1.22576 18.0984 1.22739 18.0936 1.22899 18.088C1.23299 18.072 1.23696 18.0568 1.24176 18.0424C1.24656 18.0296 1.25215 18.0168 1.25855 18.0048C1.26415 17.9936 1.27057 17.9832 1.27777 17.9736C1.28576 17.9632 1.29377 17.9536 1.30257 17.9448C1.31136 17.936 1.32095 17.9272 1.33135 17.9192C1.34175 17.912 1.35216 17.9056 1.36415 17.9C1.36975 17.896 1.37693 17.8928 1.38333 17.8904C1.39133 17.8872 1.39933 17.884 1.40813 17.8808C1.41693 17.8776 1.42571 17.8752 1.43531 17.8728C1.45371 17.8672 1.4737 17.8632 1.4953 17.86C1.5049 17.8584 1.51451 17.8576 1.5249 17.856C1.5297 17.8552 1.5353 17.8552 1.5401 17.8544C1.5473 17.8536 1.5545 17.8528 1.56169 17.8528C1.56889 17.852 1.57689 17.8512 1.58489 17.8512C1.60969 17.8496 1.63688 17.8488 1.66488 17.8488C2.09199 17.852 2.51911 17.8544 2.94622 17.8568C3.37254 17.8584 3.79968 17.86 4.22679 17.8608C5.74489 17.864 7.26377 17.8592 8.78187 17.852C8.80186 17.852 8.82186 17.852 8.84026 17.8536C8.85065 17.8536 8.86026 17.8544 8.86986 17.8552C8.88666 17.8568 8.90264 17.8584 8.91864 17.8608C8.93064 17.8624 8.94263 17.864 8.95383 17.8664C8.96982 17.8688 8.98503 17.872 9.00022 17.876C9.01222 17.8792 9.02341 17.8824 9.03381 17.8856C9.04181 17.888 9.04903 17.8904 9.05623 17.8928C9.06343 17.8952 9.07063 17.8984 9.07783 17.9016C9.09782 17.9088 9.11622 17.9176 9.13461 17.9272C9.14181 17.9312 9.14901 17.9352 9.15621 17.9392C9.16821 17.9456 9.181 17.9536 9.193 17.9624C9.2018 17.968 9.21138 17.9744 9.22018 17.9816C9.24098 17.9968 9.26099 18.0144 9.28099 18.0328C9.29139 18.0424 9.30258 18.0528 9.31297 18.0648C9.33457 18.0872 9.35537 18.1112 9.37617 18.1376C9.38736 18.1504 9.39697 18.164 9.40737 18.1776C9.56094 18.3848 9.7153 18.5904 9.87286 18.7936C9.91206 18.844 9.95123 18.8952 9.99042 18.9456C10.0296 18.996 10.0688 19.0464 10.1096 19.0968C10.1888 19.1968 10.2688 19.2968 10.3496 19.3968C10.3872 19.4448 10.4264 19.4928 10.4656 19.54C10.5048 19.588 10.5447 19.636 10.5839 19.6832C10.5935 19.6968 10.6039 19.7096 10.6159 19.7224C10.6655 19.7832 10.7151 19.8432 10.7663 19.9032C10.7959 19.9392 10.8263 19.9752 10.8575 20.0104C10.8623 20.0176 10.8679 20.024 10.875 20.0312C10.875 20.032 10.8751 20.032 10.8767 20.0328C10.8767 20.0344 10.8783 20.0368 10.8815 20.0384H10.8823C10.9495 20.1192 11.0175 20.1984 11.0854 20.2768C11.1014 20.2968 11.1182 20.316 11.1358 20.3352C11.139 20.34 11.1438 20.3448 11.1486 20.3496C11.2102 20.4216 11.2734 20.4936 11.3366 20.5648C11.7229 21 12.1172 21.4232 12.5219 21.836C12.5547 21.8704 12.5883 21.904 12.6227 21.9384C12.6899 22.0072 12.7587 22.076 12.8275 22.144C12.9171 22.2336 13.0075 22.3224 13.0986 22.4104C13.2018 22.5112 13.3058 22.6112 13.4106 22.7096C13.4586 22.7552 13.5065 22.8 13.5545 22.8448C13.6001 22.8888 13.6465 22.9312 13.6929 22.9736C13.7305 23.0088 13.7689 23.0432 13.8065 23.0784C13.9745 23.2336 14.1448 23.3864 14.3168 23.5368C14.384 23.596 14.4503 23.6544 14.5175 23.712C14.5591 23.7496 14.6015 23.7856 14.6447 23.8216C14.6871 23.8584 14.7295 23.8952 14.7727 23.9312C14.8575 24.004 14.943 24.076 15.0294 24.1472C15.0718 24.1824 15.1142 24.2184 15.1574 24.2528C15.323 24.3912 15.491 24.5264 15.6597 24.66C15.7653 24.744 15.8717 24.8272 15.9788 24.9096C15.986 24.916 15.9932 24.9216 16.0004 24.9264C16.0476 24.9632 16.0948 24.9992 16.142 25.0352C16.1956 25.0776 16.2492 25.1184 16.3036 25.1584C16.3756 25.2128 16.4484 25.2672 16.5212 25.3216C16.5931 25.376 16.6659 25.4296 16.7395 25.4824C16.7883 25.5184 16.8371 25.5536 16.8859 25.5888C16.9371 25.6264 16.9883 25.6632 17.0395 25.6992C17.0866 25.7336 17.1338 25.7672 17.1818 25.8008C17.265 25.8608 17.3498 25.9192 17.4338 25.9776C17.5177 26.036 17.6025 26.0944 17.6873 26.152C17.7529 26.1968 17.8185 26.2416 17.8841 26.2856C17.9497 26.3304 18.0161 26.3744 18.0825 26.4176C18.1584 26.468 18.2344 26.5184 18.3112 26.568C18.3872 26.6184 18.464 26.668 18.5408 26.7168C18.5736 26.7368 18.6055 26.7576 18.6375 26.7784C18.9479 26.976 19.2614 27.1688 19.579 27.3568C19.6237 27.384 19.6685 27.4104 19.7133 27.4368C19.7397 27.452 19.7653 27.4656 19.7893 27.4776C19.8141 27.4896 19.8381 27.4992 19.8613 27.5064C19.9173 27.5248 19.9709 27.532 20.0245 27.528C20.0293 27.528 20.0349 27.5272 20.0405 27.5264C20.0509 27.5256 20.0621 27.524 20.0741 27.5208C20.0836 27.5192 20.0925 27.5168 20.1021 27.5144C20.1125 27.5112 20.1236 27.508 20.134 27.5048C20.1812 27.4888 20.2308 27.4648 20.2844 27.4336C20.3948 27.3688 20.5043 27.304 20.6131 27.2376C20.7259 27.1704 20.8387 27.1016 20.9507 27.032C20.9979 27.0032 21.045 26.9744 21.0914 26.9448C21.2146 26.868 21.337 26.7904 21.4594 26.712C21.5417 26.6592 21.6241 26.6064 21.7057 26.5528C21.7537 26.5216 21.8025 26.4896 21.8505 26.4576C21.9177 26.4144 21.9833 26.3704 22.0496 26.3256C22.0568 26.3208 22.0649 26.316 22.0721 26.3104C22.0992 26.292 22.1264 26.2744 22.1528 26.256C22.2992 26.1584 22.4456 26.0584 22.5904 25.956C22.6559 25.9112 22.7215 25.8648 22.7871 25.8184C22.8279 25.7904 22.8687 25.7608 22.9095 25.7312C23.0046 25.664 23.0991 25.596 23.1934 25.5272C23.2262 25.504 23.2582 25.48 23.2902 25.456C23.359 25.4064 23.4278 25.3552 23.4958 25.304C23.5158 25.2896 23.5358 25.2752 23.555 25.26C23.575 25.2456 23.5942 25.2312 23.6134 25.216C23.6765 25.1696 23.7389 25.1216 23.8013 25.0736C23.8093 25.068 23.8165 25.0624 23.8237 25.056C23.9357 24.972 24.0469 24.8856 24.1572 24.7984C24.2028 24.7632 24.2476 24.7272 24.2924 24.692C24.518 24.5144 24.7411 24.3336 24.9611 24.1496C25.0387 24.0848 25.1147 24.0208 25.1914 23.9552C25.2354 23.9184 25.2794 23.8808 25.3234 23.8424C25.3842 23.7912 25.445 23.7384 25.5058 23.6856C25.5122 23.68 25.5186 23.6744 25.525 23.6688C25.5746 23.6256 25.6241 23.5824 25.6737 23.5376C25.8561 23.3784 26.0361 23.216 26.2144 23.052C26.296 22.9768 26.3776 22.9008 26.4592 22.8232C26.496 22.7896 26.5336 22.7544 26.5703 22.7184C26.6423 22.6512 26.7143 22.5824 26.7855 22.5136C26.7871 22.512 26.7895 22.5104 26.7911 22.508C26.8767 22.4248 26.9623 22.3416 27.047 22.2576C27.0814 22.224 27.1158 22.1904 27.1502 22.156C27.315 21.9936 27.4766 21.8288 27.6365 21.6624C27.7021 21.5952 27.7669 21.528 27.8309 21.46C27.8949 21.3928 27.9589 21.3256 28.0213 21.2576C28.0853 21.1896 28.1476 21.1224 28.21 21.0536C28.2836 20.9744 28.3564 20.8944 28.4284 20.8144C28.5108 20.7232 28.5932 20.6312 28.6747 20.5384C28.7563 20.4464 28.8379 20.3536 28.9179 20.26C28.9483 20.2248 28.9787 20.1888 29.0091 20.1536C29.0643 20.0904 29.1179 20.0272 29.1707 19.9632C29.1962 19.9328 29.2218 19.9024 29.2474 19.872C29.2626 19.8544 29.277 19.8376 29.2914 19.82C29.2962 19.8152 29.3002 19.8096 29.3034 19.8048C29.3154 19.792 29.3266 19.7784 29.3362 19.7656C29.3866 19.7064 29.4354 19.6472 29.4842 19.5872C29.577 19.4744 29.6681 19.3616 29.7593 19.2472C29.8337 19.1552 29.9065 19.0624 29.9793 18.9688C30.0201 18.9168 30.0609 18.8648 30.1009 18.812C30.2576 18.6112 30.4104 18.408 30.5624 18.2032C30.604 18.1472 30.6455 18.0984 30.6895 18.056C30.6999 18.0472 30.7096 18.0376 30.72 18.0288C30.7304 18.0192 30.7415 18.0104 30.7527 18.0016C30.7639 17.9928 30.7751 17.9848 30.7863 17.9768C30.7983 17.9688 30.8095 17.9616 30.8215 17.9544C30.8391 17.9432 30.8575 17.9336 30.8759 17.9248C30.8943 17.916 30.9135 17.908 30.9335 17.9008C30.9407 17.8984 30.9479 17.8952 30.9559 17.8928C30.9751 17.8864 30.9951 17.8808 31.0151 17.876C31.0207 17.8744 31.0263 17.8728 31.0311 17.872C31.0335 17.8712 31.0367 17.8712 31.0391 17.8704C31.0695 17.864 31.1007 17.8592 31.1342 17.856C31.1726 17.852 31.2135 17.8504 31.2566 17.8504C33.629 17.8648 36.0013 17.8616 38.3736 17.8536C38.412 17.8536 38.4472 17.8544 38.48 17.8568C38.5088 17.8592 38.5352 17.8624 38.56 17.8672C38.572 17.8688 38.5824 17.8712 38.5928 17.8744C38.6056 17.8784 38.6176 17.8824 38.6288 17.8872C38.64 17.892 38.6512 17.8968 38.6608 17.9032C38.6688 17.9072 38.6752 17.912 38.6824 17.9176C38.6904 17.924 38.6975 17.9312 38.7047 17.9392C38.7071 17.9416 38.7096 17.9448 38.712 17.948C38.7176 17.9536 38.7215 17.9584 38.7247 17.964C38.7311 17.9728 38.7368 17.9832 38.7416 17.9936C38.7456 18.0016 38.7488 18.0088 38.752 18.0176C38.752 18.0192 38.752 18.02 38.752 18.0208C38.7544 18.0272 38.7568 18.0336 38.7584 18.0408C38.7624 18.0536 38.7655 18.0672 38.7679 18.0816C38.7703 18.0912 38.7711 18.1008 38.7727 18.1112C38.7743 18.1216 38.7759 18.1328 38.7759 18.144C38.7759 18.144 38.7759 18.1445 38.7759 18.1456C38.7759 18.1528 38.7775 18.16 38.7775 18.168C38.7791 18.1848 38.7791 18.2024 38.7791 18.2208C38.7695 22.1536 38.7728 26.0864 38.772 30.02H38.7727Z" fill="#3F51B5"/>
<path d="M1.22817 30.1792C1.23057 30.2176 1.23297 30.2576 1.23457 30.2984L1.23378 30.2984C1.23218 30.2576 1.22977 30.2184 1.22817 30.1792Z" fill="white"/>
<path d="M30.8855 37.28C30.6624 37.2808 30.4384 37.2816 30.2153 37.2824C30.4384 37.2824 30.6624 37.2816 30.8855 37.2816C31.6318 37.28 32.378 37.2912 33.1243 37.2776C32.378 37.2912 31.6318 37.28 30.8855 37.28Z" fill="white"/>
<path d="M8.1796 10.8824C8.1684 10.9976 8.16038 11.1136 8.15558 11.2312C8.15958 11.1136 8.1676 10.9976 8.1796 10.8824Z" fill="white"/>
<path d="M8.16906 11.9504C8.16586 11.9088 8.16267 11.8664 8.16027 11.824C8.15147 11.672 8.14828 11.5216 8.15148 11.3728C8.14908 11.5216 8.15149 11.672 8.16109 11.8232C8.16349 11.8656 8.16666 11.908 8.16906 11.9504Z" fill="white"/>
<path d="M8.70266 8.9688C8.74346 8.8792 8.78745 8.7912 8.83305 8.7048C8.78745 8.7912 8.74426 8.88 8.70266 8.9688Z" fill="white"/>
<path d="M8.90355 8.57518C8.99875 8.40398 9.10274 8.23838 9.21394 8.07758C9.10274 8.23838 8.99955 8.40398 8.90355 8.57518Z" fill="white"/>
<path d="M10.4895 16.6464C10.5311 16.6488 10.5759 16.6496 10.6223 16.6512C10.5759 16.6504 10.5311 16.6488 10.4895 16.6464Z" fill="white"/>
<path d="M14.5574 5.43602C14.671 5.44242 14.7847 5.45202 14.8983 5.46562C14.7847 5.45282 14.671 5.44242 14.5574 5.43602Z" fill="white"/>
<path d="M15.6782 14.9608C15.7486 15.2624 15.819 15.564 15.891 15.872C15.8182 15.5648 15.7478 15.2632 15.6774 14.9616C15.5654 14.4816 15.4535 14.0016 15.3423 13.5208C15.4543 14.0008 15.5663 14.4808 15.6782 14.9608Z" fill="white"/>
<path d="M16.0006 16.3384C16.0382 16.496 16.0758 16.6552 16.1134 16.8184C16.075 16.656 16.0374 16.496 16.0006 16.3384Z" fill="white"/>
<path d="M16.1909 17.148C16.2173 17.2584 16.2437 17.3704 16.2709 17.4848C16.2709 17.4856 16.2709 17.4856 16.2709 17.4864C16.2437 17.372 16.2172 17.2592 16.1916 17.148L16.1909 17.148Z" fill="white"/>
<path d="M16.4061 17.1496C16.4261 17.0976 16.4437 17.0512 16.4613 17.0056C16.4445 17.052 16.4269 17.0976 16.4061 17.1496Z" fill="white"/>
<path d="M18.5353 12.628C18.4953 12.6256 18.4569 12.6256 18.4217 12.6288C18.4569 12.6256 18.4953 12.6248 18.5353 12.628Z" fill="white"/>
<path d="M19.1078 13.2496C19.2294 13.7408 19.3503 14.232 19.4711 14.7232C19.3495 14.232 19.2287 13.7408 19.1071 13.2496C19.0975 13.2104 19.0871 13.172 19.0759 13.1344C19.0878 13.172 19.0982 13.2104 19.1078 13.2496Z" fill="white"/>
<path d="M20.2013 17.66C20.3237 18.1472 20.4453 18.6328 20.5677 19.12C20.5677 19.1208 20.5669 19.1216 20.5669 19.1224C20.4453 18.6344 20.3229 18.1472 20.2013 17.66Z" fill="white"/>
<path d="M25.0188 16.32C25.05 16.3256 25.0812 16.3304 25.1124 16.336L25.0188 16.32Z" fill="white"/>
<path d="M26.2273 13.984C26.2545 13.9656 26.2833 13.9504 26.3153 13.9376C26.2833 13.9504 26.2545 13.9664 26.2273 13.984Z" fill="white"/>
<path d="M10.6903 17.8584C10.6951 17.8664 10.6999 17.8744 10.7047 17.8816C10.6991 17.8744 10.6943 17.8664 10.6895 17.8584H10.6903Z" fill="white"/>
<path d="M13.604 12.2424C13.592 12.2768 13.5816 12.3112 13.572 12.3456C13.5816 12.3112 13.5912 12.2768 13.604 12.2424Z" fill="white"/>
<path d="M13.6241 12.1912C13.6385 12.1576 13.6545 12.124 13.6737 12.0904C13.6537 12.124 13.6377 12.1576 13.6241 12.1912Z" fill="white"/>
<path d="M18.3808 15.3632C18.4152 15.5008 18.4488 15.6352 18.4816 15.768C18.4488 15.636 18.4152 15.5008 18.3808 15.3632Z" fill="white"/>
<path d="M19.5429 25.9928C19.5501 25.9976 19.5566 26.0024 19.5638 26.0064C19.5574 26.0032 19.5502 25.9984 19.543 25.9936C19.3375 25.856 19.1334 25.7168 18.9303 25.5752C19.1334 25.716 19.3374 25.8552 19.5429 25.9928Z" fill="white"/>
<path d="M19.6055 26.0328C19.6463 26.0568 19.6855 26.0776 19.7231 26.0952C19.6847 26.0784 19.6455 26.0576 19.6055 26.0328Z" fill="white"/>
<path d="M19.7798 26.1184C19.8158 26.132 19.8518 26.1416 19.887 26.1488C19.8518 26.1424 19.8166 26.1328 19.7798 26.1184Z" fill="white"/>
<path d="M20.046 26.156C19.994 26.1616 19.9421 26.1592 19.8877 26.1488C19.9413 26.1592 19.994 26.1608 20.046 26.156Z" fill="white"/>
<path d="M25.6099 18.2888C25.6787 18.1224 25.7483 17.9568 25.8179 17.7912C25.7483 17.9568 25.6795 18.1224 25.6107 18.2888C25.6067 18.2984 25.6027 18.3072 25.5987 18.316C25.6019 18.3072 25.6059 18.2984 25.6099 18.2888Z" fill="white"/>
<path d="M33.1132 33.044C31.6471 33.0312 30.181 33.032 28.7149 33.0432C27.5055 33.052 26.5617 33.9952 26.5673 35.1648C26.5721 36.3328 27.5175 37.264 28.7261 37.28C28.9988 37.2832 29.2723 37.284 29.5451 37.284C29.7682 37.284 29.9922 37.2832 30.2154 37.2824C30.4385 37.2824 30.6625 37.2816 30.8856 37.2816C31.6319 37.28 32.3781 37.2912 33.1244 37.2776C34.3177 37.256 35.216 36.3352 35.2144 35.1528C35.2136 33.9712 34.313 33.0536 33.1132 33.044ZM33.9554 35.3408C33.9402 35.416 33.9155 35.4872 33.8827 35.5536C33.8691 35.58 33.8546 35.6056 33.8387 35.6304C33.8331 35.6384 33.8275 35.6472 33.8219 35.6552C33.8163 35.6632 33.8106 35.6712 33.8042 35.6792C33.793 35.6952 33.7803 35.7112 33.7667 35.7264C33.7531 35.7416 33.7395 35.756 33.7251 35.7704C33.7107 35.7848 33.6955 35.7992 33.6803 35.8128C33.6691 35.8224 33.6579 35.832 33.6459 35.8408C33.6291 35.8552 33.6107 35.868 33.5923 35.88C33.5883 35.8832 33.5835 35.8864 33.5787 35.8888C33.5579 35.9016 33.5371 35.9144 33.5155 35.9264C33.5091 35.9296 33.5035 35.9328 33.4971 35.936C33.4875 35.9416 33.4779 35.9464 33.4683 35.9504C33.4619 35.9536 33.4555 35.9568 33.4491 35.9592C33.4283 35.9688 33.4075 35.9776 33.3859 35.9856C33.3683 35.992 33.3515 35.9976 33.3339 36.0032C33.3028 36.0128 33.2708 36.0216 33.238 36.0288C33.2212 36.0328 33.2036 36.036 33.186 36.0392C33.1628 36.0432 33.1388 36.0472 33.1148 36.0496C33.0956 36.052 33.0764 36.0536 33.0564 36.0552C33.0372 36.056 33.0172 36.0568 32.9972 36.0576C32.9892 36.0576 32.9812 36.0584 32.9732 36.0584C32.7077 36.0616 32.4405 36.0632 32.175 36.0632C31.7495 36.0632 31.324 36.0608 30.8985 36.0608C30.2338 36.0608 29.5691 36.0648 28.9036 36.06C28.8733 36.06 28.8445 36.0584 28.8157 36.0568C28.7893 36.0552 28.7629 36.0528 28.7373 36.0496C28.7109 36.0472 28.6845 36.0432 28.6597 36.0384C28.6541 36.0376 28.6493 36.0368 28.6445 36.0352C28.6325 36.0336 28.6205 36.0312 28.6093 36.028C28.5941 36.0248 28.5797 36.0216 28.5653 36.0176C28.5477 36.0136 28.5309 36.0088 28.5141 36.0032C28.4805 35.9936 28.4485 35.9816 28.4181 35.9688C28.4029 35.9624 28.3885 35.956 28.3749 35.9496C28.3589 35.9424 28.3437 35.9344 28.3285 35.9264C28.3141 35.9184 28.2998 35.9104 28.2862 35.9016C28.2726 35.8936 28.259 35.8848 28.2462 35.876C28.2334 35.8672 28.2206 35.8576 28.2078 35.848C28.183 35.8288 28.1598 35.8088 28.1374 35.7872C28.127 35.7776 28.1166 35.7664 28.1062 35.756C28.1046 35.7552 28.1038 35.7536 28.103 35.752C28.0918 35.74 28.0814 35.7272 28.071 35.7144C28.0606 35.7016 28.051 35.6888 28.0414 35.6752C28.0318 35.6624 28.023 35.6488 28.0142 35.6344C28.0062 35.6216 27.999 35.6088 27.9918 35.596C27.9886 35.5896 27.9854 35.584 27.9822 35.5776C27.975 35.5648 27.9694 35.552 27.9638 35.5392C27.951 35.512 27.9406 35.484 27.9318 35.456C27.9222 35.4272 27.9142 35.3976 27.9078 35.3672C27.9038 35.3528 27.9014 35.3368 27.899 35.3216C27.895 35.2984 27.8926 35.2744 27.8902 35.2504C27.8878 35.2264 27.887 35.2016 27.8862 35.1768C27.8854 35.1424 27.8862 35.108 27.8886 35.0752C27.8886 35.0736 27.8886 35.0728 27.8886 35.072C27.8886 35.0584 27.8902 35.0456 27.8926 35.0328C27.8926 35.0232 27.8942 35.0136 27.8966 35.004C27.899 34.9888 27.9014 34.9728 27.9046 34.9576C27.9102 34.928 27.9174 34.8984 27.9262 34.8696C27.9294 34.8576 27.9334 34.8448 27.9382 34.8336C27.939 34.8304 27.9398 34.8264 27.9422 34.8232C27.9462 34.8104 27.951 34.7976 27.9566 34.7848C27.9726 34.7456 27.9926 34.7088 28.015 34.6736C28.0182 34.668 28.0214 34.6632 28.0246 34.6584C28.0382 34.6368 28.0534 34.616 28.0694 34.596C28.0782 34.5848 28.0878 34.5728 28.0982 34.5624C28.1078 34.5512 28.1182 34.54 28.1286 34.5296C28.1494 34.5088 28.171 34.4888 28.1942 34.4704C28.2166 34.4512 28.2406 34.4336 28.2662 34.4176C28.283 34.4072 28.2998 34.3968 28.3174 34.3872C28.331 34.3792 28.3446 34.372 28.359 34.3656C28.3829 34.3536 28.4077 34.3424 28.4333 34.332C28.4485 34.3264 28.4637 34.32 28.4789 34.3152C28.5413 34.2936 28.6077 34.2768 28.6781 34.2656C28.7485 34.2536 28.8221 34.2472 28.9004 34.2472C29.238 34.2456 29.5755 34.2448 29.9138 34.244C30.932 34.2416 31.9502 34.2424 32.9684 34.248C32.9876 34.248 33.006 34.2488 33.0244 34.2496C33.0372 34.2496 33.05 34.2504 33.062 34.252C33.0724 34.252 33.0828 34.2528 33.0924 34.2544C33.118 34.2568 33.1428 34.26 33.1668 34.264C33.1844 34.2664 33.2012 34.2696 33.218 34.2728C33.234 34.276 33.2508 34.2792 33.2668 34.2832C33.2852 34.2872 33.3036 34.292 33.3212 34.2976C33.3396 34.3024 33.3571 34.308 33.3739 34.3144C33.4459 34.3392 33.5115 34.3712 33.5723 34.4088C33.5843 34.4168 33.5963 34.424 33.6083 34.4328C33.6235 34.4432 33.6387 34.4544 33.6539 34.4664C33.6691 34.4784 33.6835 34.4904 33.6971 34.5032C33.7131 34.5184 33.7291 34.5336 33.7443 34.5496C33.7443 34.5496 33.7445 34.5501 33.7451 34.5512C33.7603 34.5664 33.7739 34.5832 33.7875 34.5992C33.8034 34.6192 33.8179 34.6392 33.8315 34.6608C33.8419 34.676 33.8515 34.692 33.8611 34.7088C33.8763 34.7344 33.8891 34.7608 33.9011 34.788C33.9131 34.8152 33.9234 34.8432 33.9322 34.872C33.9362 34.8864 33.9402 34.9008 33.9442 34.916C33.9482 34.9304 33.9514 34.9456 33.9546 34.9608C33.9578 34.9752 33.9603 34.9904 33.9627 35.0056V35.0072C33.9651 35.0224 33.9674 35.0376 33.9682 35.0536C33.9698 35.0696 33.9714 35.0856 33.9722 35.1016C33.9722 35.1176 33.9738 35.1336 33.9738 35.1504C33.9738 35.216 33.9674 35.28 33.9546 35.3408H33.9554Z" fill="#3F51B5"/>
<path d="M14.165 33.0416C12.9868 33.036 12.0238 33.992 12.027 35.1632C12.0302 36.3168 12.982 37.2728 14.133 37.2792C15.3175 37.2856 16.2589 36.3448 16.2589 35.1544C16.2589 33.964 15.3328 33.0472 14.165 33.0416ZM14.9952 35.3224C14.9936 35.332 14.9912 35.3408 14.9888 35.3496C14.9808 35.3872 14.9696 35.424 14.956 35.46C14.9488 35.4792 14.9408 35.4984 14.932 35.5176C14.9232 35.5376 14.9136 35.5576 14.9032 35.5768C14.8936 35.5952 14.8832 35.6128 14.872 35.6304C14.8568 35.6552 14.84 35.6792 14.8224 35.7024C14.8096 35.7192 14.796 35.736 14.7824 35.752C14.7728 35.7632 14.7633 35.7736 14.7537 35.7832C14.7449 35.7936 14.7344 35.8032 14.7241 35.8128C14.7145 35.8224 14.7041 35.832 14.6937 35.8416C14.6825 35.8512 14.6721 35.86 14.6609 35.8688C14.6393 35.8856 14.6169 35.9024 14.5937 35.9176C14.5129 35.9712 14.4233 36.0112 14.3305 36.032C14.3145 36.036 14.2994 36.0392 14.2834 36.0416C14.269 36.044 14.2545 36.0456 14.2393 36.0472C14.2153 36.0504 14.1906 36.0512 14.1666 36.0512C14.1466 36.0512 14.1258 36.0504 14.1058 36.048C14.0954 36.0472 14.085 36.0464 14.0754 36.0448C14.0522 36.0416 14.029 36.0376 14.0058 36.032C13.9858 36.0272 13.9666 36.0216 13.9474 36.0152C13.9282 36.0088 13.9098 36.0016 13.8906 35.9936C13.8658 35.9832 13.8418 35.9712 13.8178 35.9584C13.7986 35.948 13.7794 35.9368 13.761 35.924C13.7282 35.9024 13.6971 35.8784 13.6667 35.852C13.6595 35.8456 13.6515 35.8384 13.6435 35.8312C13.6147 35.8048 13.5867 35.7752 13.5611 35.744C13.5515 35.7328 13.5427 35.7208 13.5339 35.7088C13.5243 35.6968 13.5155 35.6848 13.5075 35.672C13.4979 35.6584 13.4891 35.644 13.4803 35.6288C13.4707 35.6144 13.4627 35.5992 13.4547 35.584C13.4467 35.568 13.4387 35.5528 13.4315 35.5368C13.4243 35.5224 13.4179 35.508 13.4123 35.4928C13.4099 35.488 13.4083 35.4824 13.4067 35.4776C13.4019 35.4656 13.3971 35.4528 13.3931 35.44C13.3763 35.392 13.3643 35.3424 13.3563 35.2912C13.3547 35.2832 13.3539 35.2752 13.3531 35.2672C13.3507 35.252 13.3491 35.236 13.3483 35.22C13.3467 35.2088 13.3459 35.1984 13.3459 35.1872C13.3451 35.1736 13.3451 35.1592 13.3451 35.1456C13.3483 34.6648 13.7339 34.2568 14.185 34.2584C14.6265 34.26 15.0184 34.688 15.0128 35.1616C15.0128 35.216 15.0064 35.2704 14.9952 35.3224Z" fill="#3F51B5"/>
<path d="M6.89911 33.0416C5.72015 33.0336 4.78593 33.952 4.77633 35.1296C4.76593 36.332 5.69377 37.2792 6.88154 37.2792C8.05171 37.2784 8.97791 36.348 8.98351 35.168C8.98911 33.9848 8.07248 33.0496 6.89911 33.0416ZM7.74215 35.1712C7.74215 35.1936 7.73975 35.2152 7.73735 35.2368C7.73735 35.2504 7.73494 35.264 7.73254 35.2776C7.73094 35.2912 7.72856 35.3048 7.72536 35.3176C7.71736 35.3608 7.70537 35.4032 7.69017 35.4448C7.68697 35.4552 7.68296 35.4648 7.67896 35.4744C7.66696 35.5064 7.65256 35.5376 7.63577 35.568C7.63017 35.5784 7.62459 35.5896 7.61819 35.6C7.61179 35.6112 7.60539 35.6224 7.5982 35.6328C7.5982 35.6336 7.59739 35.6344 7.59659 35.6352C7.59339 35.6416 7.5894 35.648 7.5846 35.6536C7.5814 35.6592 7.57819 35.6648 7.5734 35.6696C7.5662 35.6808 7.55817 35.692 7.54938 35.7032C7.53898 35.7168 7.52781 35.7304 7.51661 35.744C7.49901 35.7656 7.47982 35.7856 7.45982 35.8048C7.45262 35.8112 7.44621 35.8176 7.43901 35.824C7.41181 35.8504 7.38383 35.8736 7.35344 35.8952C7.33104 35.9112 7.30786 35.9264 7.28466 35.9408C7.22308 35.9776 7.15747 36.0064 7.08869 36.0248C7.07589 36.0288 7.06387 36.032 7.05108 36.0344C7.03828 36.0376 7.02548 36.04 7.01269 36.0416C7.00069 36.044 6.98871 36.0456 6.97672 36.0464C6.97272 36.0472 6.96951 36.048 6.96551 36.0472C6.94391 36.0504 6.92233 36.0512 6.90154 36.0512H6.88634C6.87275 36.0512 6.85913 36.0504 6.84553 36.0488C6.83753 36.0488 6.82955 36.048 6.82155 36.0464C6.81995 36.0464 6.81835 36.0464 6.81675 36.0456C6.79995 36.044 6.78234 36.0416 6.76555 36.0384C6.74555 36.0344 6.72636 36.0296 6.70716 36.024C6.68716 36.0184 6.66795 36.012 6.64955 36.0048C6.61196 35.9912 6.5752 35.9736 6.54001 35.9536C6.52801 35.9472 6.51601 35.9408 6.50482 35.9328C6.49282 35.9256 6.48161 35.9184 6.47041 35.9104C6.44801 35.8944 6.42641 35.8776 6.40562 35.86C6.40322 35.8584 6.40083 35.8568 6.39843 35.8536C6.39043 35.848 6.38161 35.84 6.37441 35.8328C6.32402 35.7856 6.27764 35.732 6.23764 35.6744C6.23044 35.664 6.22325 35.6544 6.21765 35.644C6.21605 35.6416 6.21444 35.64 6.21444 35.6384C6.19205 35.6024 6.17127 35.5648 6.15368 35.5264C6.14488 35.5072 6.13686 35.4872 6.12966 35.4672C6.12566 35.4568 6.12169 35.4472 6.11849 35.4368C6.11129 35.416 6.10489 35.396 6.10009 35.3752C6.09769 35.3648 6.09527 35.3544 6.09287 35.344C6.07767 35.2768 6.06967 35.2072 6.07127 35.1368C6.07127 35.0872 6.07688 35.0392 6.08568 34.9912C6.08568 34.9856 6.08728 34.9792 6.08888 34.9736C6.08888 34.968 6.09127 34.9624 6.09287 34.9568C6.09527 34.9448 6.09849 34.9328 6.10169 34.9208C6.10809 34.8976 6.11527 34.8744 6.12407 34.852C6.13927 34.808 6.15848 34.7656 6.18008 34.7248C6.18887 34.7088 6.19766 34.6936 6.20726 34.6784C6.23365 34.636 6.26246 34.596 6.29525 34.5584C6.30645 34.5456 6.31764 34.5336 6.32884 34.5216C6.33763 34.5112 6.34804 34.5016 6.35844 34.492C6.37844 34.472 6.39921 34.4544 6.42081 34.4368C6.4536 34.4112 6.48722 34.388 6.52321 34.3672C6.53281 34.3608 6.5424 34.356 6.552 34.3512C6.56159 34.3456 6.572 34.3408 6.5816 34.336C6.5888 34.332 6.59678 34.3288 6.60398 34.3256C6.61917 34.3184 6.63518 34.312 6.65037 34.3064C6.65837 34.3032 6.66636 34.3 6.67435 34.2976C6.68635 34.2936 6.69836 34.2896 6.71036 34.2864C6.73356 34.2792 6.75756 34.2736 6.78156 34.2696C6.79116 34.268 6.79992 34.2664 6.80952 34.2656C6.82232 34.2632 6.83515 34.2616 6.84795 34.2608C6.85355 34.26 6.85833 34.2592 6.86393 34.2592C6.86872 34.2584 6.87352 34.2584 6.87912 34.2584C6.89352 34.2576 6.90794 34.2576 6.92313 34.2576C6.93993 34.2584 6.9567 34.2592 6.97429 34.2608C6.99269 34.2624 7.01108 34.2648 7.02948 34.268C7.04787 34.2704 7.06549 34.2744 7.08388 34.2792C7.09668 34.2824 7.1103 34.2856 7.12309 34.2904C7.13429 34.2936 7.14548 34.2968 7.15668 34.3016C7.20867 34.32 7.25905 34.3448 7.30704 34.3744C7.33024 34.388 7.35262 34.4032 7.37422 34.4208C7.38221 34.4272 7.39024 34.4336 7.39823 34.44C7.40623 34.4464 7.41422 34.4536 7.42221 34.46C7.43261 34.4696 7.44302 34.4784 7.45342 34.488C7.46862 34.5024 7.48302 34.5176 7.49661 34.5328C7.50621 34.5424 7.5158 34.5528 7.5238 34.564C7.53499 34.5768 7.5454 34.5904 7.555 34.604C7.571 34.624 7.5846 34.6448 7.5982 34.6656C7.61339 34.6888 7.62777 34.7136 7.64057 34.7384C7.64697 34.7512 7.65257 34.764 7.65896 34.7776C7.66456 34.7896 7.67018 34.8024 7.67498 34.8152C7.68058 34.8288 7.68615 34.8424 7.69095 34.8568C7.69575 34.8696 7.70056 34.8832 7.70376 34.8968C7.71976 34.948 7.73017 35 7.73657 35.0536C7.73817 35.068 7.73975 35.0832 7.74055 35.0984C7.74135 35.116 7.74215 35.1344 7.74215 35.1528V35.1712Z" fill="#3F51B5"/>
<path d="M21.4522 33.0416C20.2692 33.0296 19.3022 33.9752 19.299 35.148C19.2958 36.3056 20.242 37.2688 21.3922 37.2784C22.5768 37.2888 23.5294 36.3512 23.535 35.168C23.5398 33.9968 22.6159 33.0528 21.4522 33.0416ZM22.3192 35.2464C22.3176 35.2592 22.316 35.2728 22.3144 35.2856C22.3128 35.2984 22.3104 35.3104 22.308 35.3232C22.3056 35.336 22.3032 35.3488 22.3 35.3616C22.2904 35.4064 22.2768 35.4496 22.26 35.492C22.2552 35.504 22.2504 35.516 22.2448 35.528C22.2376 35.544 22.2304 35.5592 22.2224 35.5744C22.2168 35.5864 22.2104 35.5984 22.2032 35.6096C22.192 35.6288 22.1808 35.6472 22.1688 35.6664C22.156 35.684 22.1432 35.7024 22.1296 35.72C22.1216 35.7304 22.1137 35.74 22.1049 35.7504C22.0849 35.7736 22.0632 35.7968 22.0408 35.8176C22.032 35.8264 22.0224 35.8352 22.0128 35.8432C22.0112 35.8448 22.0096 35.8464 22.008 35.848C21.9984 35.856 21.9889 35.8648 21.9785 35.872C21.9777 35.8736 21.9761 35.8744 21.9745 35.8752C21.9617 35.8856 21.9489 35.8952 21.9361 35.904C21.9209 35.9144 21.9057 35.9248 21.8897 35.9344C21.8729 35.9448 21.8561 35.9552 21.8385 35.9632C21.8169 35.9744 21.7953 35.9848 21.7737 35.9944C21.7473 36.0064 21.7193 36.0168 21.6913 36.0248C21.6809 36.028 21.6705 36.0312 21.6593 36.0344C21.6489 36.0376 21.6385 36.0408 21.6273 36.0424C21.5841 36.0528 21.5401 36.0592 21.4946 36.0632C21.4658 36.0656 21.4354 36.0664 21.405 36.0656C21.3874 36.0648 21.3706 36.064 21.3538 36.0632C21.2898 36.0576 21.2282 36.0464 21.169 36.0296C21.149 36.024 21.1298 36.0176 21.1106 36.0104L21.0794 35.9984C21.0594 35.9904 21.0402 35.9816 21.021 35.972C20.9955 35.9584 20.9707 35.9448 20.9475 35.9296C20.9475 35.9296 20.9474 35.9304 20.9466 35.9296C20.9315 35.9192 20.9163 35.9088 20.9011 35.8984C20.8867 35.888 20.8731 35.8776 20.8595 35.8664C20.8435 35.8536 20.8283 35.84 20.8131 35.8256C20.7747 35.7904 20.7403 35.7512 20.7091 35.7088C20.6979 35.6944 20.6875 35.6792 20.6771 35.6632C20.6691 35.6512 20.6619 35.6392 20.6547 35.6272C20.6507 35.6208 20.6475 35.6144 20.6443 35.608C20.6339 35.5896 20.6243 35.5704 20.6147 35.5504C20.6075 35.5344 20.6003 35.5176 20.5939 35.5008C20.5875 35.4848 20.5811 35.4688 20.5763 35.452C20.5707 35.4368 20.5667 35.4216 20.5627 35.4056C20.5555 35.38 20.5492 35.3536 20.5452 35.3272C20.542 35.312 20.5395 35.2968 20.5379 35.2808C20.5347 35.2584 20.5323 35.236 20.5315 35.2136C20.5315 35.196 20.5299 35.1784 20.5299 35.16C20.5299 35.1 20.5355 35.0408 20.5459 34.9848C20.5483 34.9704 20.5515 34.9568 20.5547 34.9424C20.5563 34.9352 20.558 34.928 20.5604 34.9208C20.5652 34.8984 20.5724 34.8752 20.5804 34.8536C20.582 34.848 20.5835 34.8424 20.5859 34.8376C20.5859 34.8336 20.5883 34.8288 20.5907 34.8248C20.5931 34.8168 20.5963 34.8096 20.5995 34.8016C20.6027 34.7936 20.6051 34.7872 20.6091 34.78C20.6131 34.7712 20.6171 34.7624 20.6211 34.7536C20.6323 34.7296 20.6451 34.7056 20.6587 34.6832C20.6659 34.6712 20.6731 34.6592 20.6819 34.648C20.6923 34.6312 20.7035 34.616 20.7155 34.6008C20.7299 34.5816 20.7451 34.5632 20.7611 34.5456C20.7715 34.5352 20.7811 34.5248 20.7915 34.5144C20.8091 34.4968 20.8267 34.48 20.8459 34.4648C20.8539 34.4576 20.8627 34.4512 20.8707 34.4448C20.8851 34.4336 20.8995 34.4232 20.9147 34.4128C20.9299 34.4024 20.9451 34.3928 20.9611 34.3832C20.9739 34.3752 20.9859 34.368 20.9995 34.3616C21.025 34.348 21.0515 34.3352 21.0787 34.324C21.1058 34.3128 21.1338 34.3032 21.1626 34.2944C21.1858 34.2872 21.2098 34.2816 21.2346 34.2768C21.249 34.2736 21.2634 34.2712 21.2786 34.2688C21.2898 34.2664 21.301 34.2648 21.3122 34.264C21.3314 34.2608 21.3514 34.2584 21.3714 34.2576C21.393 34.256 21.4146 34.2552 21.437 34.2552H21.4482C21.4785 34.2552 21.509 34.2576 21.5386 34.2608C21.5682 34.264 21.5977 34.2688 21.6265 34.2752C21.6833 34.2872 21.7393 34.3056 21.7913 34.328C21.8441 34.3504 21.8937 34.3784 21.9401 34.4112C21.9521 34.4192 21.9633 34.428 21.9745 34.436C21.9969 34.4528 22.0185 34.4712 22.0392 34.4912C22.056 34.5072 22.0728 34.524 22.088 34.5416C22.0952 34.5496 22.1024 34.5568 22.1088 34.5648C22.1176 34.5752 22.1264 34.5856 22.1344 34.5968C22.1416 34.6056 22.1488 34.6152 22.1552 34.6248C22.1624 34.6344 22.1688 34.644 22.1752 34.6536C22.188 34.6728 22.2 34.6928 22.2112 34.7136C22.216 34.7208 22.22 34.728 22.2232 34.736C22.2328 34.7552 22.2424 34.7752 22.2504 34.7952C22.2576 34.812 22.264 34.8288 22.2704 34.8464C22.288 34.896 22.3016 34.948 22.3104 35.0016C22.3128 35.0136 22.3144 35.0256 22.3152 35.0376C22.3176 35.0528 22.3192 35.068 22.32 35.084C22.3216 35.0952 22.3224 35.1064 22.3224 35.1184C22.3224 35.132 22.3224 35.1456 22.3224 35.1592C22.3224 35.1888 22.3208 35.2176 22.3184 35.2464H22.3192Z" fill="#3F51B5"/>
<path d="M6.07127 35.1368C6.06967 35.2072 6.07767 35.2768 6.09287 35.344C6.07687 35.2768 6.06962 35.2072 6.07042 35.1368C6.07122 35.0872 6.07608 35.0392 6.08568 34.9912C6.07688 35.0392 6.07207 35.0872 6.07127 35.1368Z" fill="white"/>
<path d="M6.15347 35.5264C6.17107 35.5648 6.19185 35.6024 6.21425 35.6384C6.19105 35.6024 6.17107 35.5656 6.15347 35.5264Z" fill="white"/>
<path d="M6.23752 35.6744C6.27752 35.732 6.32391 35.7856 6.37431 35.8328C6.32311 35.7856 6.27752 35.7328 6.23752 35.6744Z" fill="white"/>
</g>
<defs>
<clipPath id="clip0_1283_11429">
<rect width="40" height="40" fill="white"/>
</clipPath>
</defs>
</svg>
