<svg width="40" height="40" viewBox="0 0 40 40" fill="none" xmlns="http://www.w3.org/2000/svg">
<g clip-path="url(#clip0_1283_11452)">
<path d="M38.1568 13.4384C36.7032 12.1104 34.3895 12.6896 33.7023 14.5672C33.6599 14.6832 33.6144 14.7664 33.5536 14.824C33.5384 14.8384 33.5215 14.8512 33.5039 14.8616C33.5015 14.8648 33.4992 14.8664 33.496 14.8672C33.4768 14.8792 33.4568 14.8888 33.4352 14.8968C33.412 14.9056 33.3872 14.912 33.3608 14.9168C33.3472 14.9192 33.3336 14.9208 33.3192 14.9224C33.3024 14.9248 33.284 14.9256 33.2656 14.9264C33.244 14.9272 33.2208 14.928 33.1968 14.9272C33.0984 14.9248 33.0007 14.9232 32.9031 14.9216C32.8023 14.92 32.7023 14.9184 32.6015 14.9176C32.1935 14.9136 31.7848 14.9144 31.376 14.9176C31.156 14.9192 30.9368 14.9216 30.7168 14.9248C30.4752 14.928 30.3856 14.8608 30.3312 14.6032C30.3048 14.4744 30.2759 14.3448 30.2439 14.2152C30.1975 14.0208 30.1456 13.828 30.0856 13.6384C30.0656 13.5752 30.0447 13.512 30.0231 13.4488C29.9799 13.324 29.9335 13.2 29.8815 13.0784C29.8551 13.0168 29.828 12.9552 29.7992 12.8944C29.756 12.804 29.7095 12.7144 29.6623 12.6256C29.6471 12.596 29.6312 12.5672 29.6144 12.5384C29.5504 12.4216 29.4832 12.308 29.4176 12.196C29.3184 12.0288 29.2216 11.8672 29.1336 11.7104C30.4616 10.3728 31.78 9.044 33.1128 7.7016H33.1136C33.1352 7.7184 33.1576 7.7376 33.18 7.7568C33.2496 7.8144 33.3247 7.8784 33.4015 7.94C33.5303 8.0432 33.6647 8.1368 33.8039 8.2208C33.8495 8.2488 33.8967 8.276 33.9439 8.3016C34.0383 8.3528 34.1352 8.4008 34.2336 8.444C34.2824 8.4656 34.3319 8.4856 34.3823 8.5056C34.4255 8.5224 34.4696 8.5384 34.5136 8.5536C34.5456 8.5648 34.5768 8.5752 34.6096 8.5856C34.6544 8.6 34.7 8.6136 34.7464 8.6264C34.7584 8.6296 34.7711 8.6328 34.7839 8.6368C34.8487 8.6536 34.9144 8.6696 34.98 8.6832C34.9912 8.6856 35.0016 8.688 35.0128 8.6904C35.0768 8.7032 35.1416 8.7144 35.2064 8.7248C35.2712 8.7344 35.3359 8.7424 35.4015 8.7488C35.4359 8.752 35.4712 8.7552 35.5056 8.7576C35.568 8.7624 35.6304 8.7648 35.6928 8.7672H35.6976C35.8936 8.772 36.0896 8.7624 36.2856 8.7384C36.3264 8.7336 36.3672 8.728 36.408 8.7216C36.4896 8.7088 36.5704 8.6944 36.6512 8.6768C36.692 8.668 36.7328 8.6584 36.7728 8.6488C36.8184 8.6368 36.8648 8.6248 36.9104 8.612C37.0024 8.5856 37.0927 8.556 37.1831 8.524C37.2511 8.4992 37.3183 8.4728 37.3847 8.4448C37.4351 8.4232 37.4856 8.4016 37.5352 8.3784C37.5848 8.3552 37.6335 8.3304 37.6823 8.3056C37.7151 8.2888 37.7472 8.2712 37.7792 8.2536C37.844 8.2176 37.908 8.18 37.9712 8.1408C38.1424 8.0344 38.304 7.912 38.4544 7.7776C38.5144 7.7232 38.5728 7.6672 38.6288 7.6096C39.5216 6.6928 39.9576 5.296 39.6672 4.0368C39.656 3.9896 39.6448 3.9424 39.6328 3.896C39.6088 3.8032 39.5824 3.712 39.5536 3.6232C39.4968 3.4448 39.4304 3.2744 39.3552 3.1112C39.3176 3.0304 39.2784 2.9512 39.236 2.8736C39.1736 2.7576 39.1048 2.6464 39.032 2.5392C38.9832 2.468 38.9328 2.3992 38.8792 2.3328C38.8 2.2328 38.7151 2.1368 38.6247 2.0464C38.5655 1.9856 38.5032 1.9272 38.4384 1.8712C38.3736 1.8152 38.3064 1.7608 38.2376 1.7096C38.1688 1.6576 38.0975 1.608 38.0239 1.5616C37.6935 1.3496 37.3176 1.1848 36.896 1.0688C35.8232 0.7752 34.8296 0.8672 33.968 1.3488C33.908 1.3816 33.8496 1.4168 33.7912 1.4536C33.6168 1.564 33.4488 1.6912 33.2864 1.8352C33.232 1.8832 33.1784 1.9328 33.1256 1.9848C33.0208 2.088 32.9184 2.1984 32.8184 2.3168C32.0576 3.22 31.7736 4.22 31.9152 5.2736C31.9248 5.3432 31.936 5.4128 31.9488 5.4824C31.9752 5.6232 32.0088 5.764 32.0496 5.9056C32.1008 6.0832 32.1632 6.2616 32.2368 6.4408C32.2456 6.4616 32.2528 6.4816 32.2592 6.5008C32.3032 6.6288 32.3024 6.7208 32.2376 6.8192C32.2232 6.8408 32.2056 6.8624 32.1856 6.8848C32.1752 6.8968 32.164 6.908 32.152 6.92C31.9472 7.1208 31.744 7.3224 31.5408 7.5248C31.3888 7.676 31.2367 7.828 31.0847 7.9808C30.9335 8.1328 30.7816 8.2848 30.6304 8.4376C30.3272 8.7424 30.0248 9.0472 29.7208 9.3512H29.72C29.6584 9.4136 29.5968 9.4752 29.5344 9.536C29.348 9.7224 29.1616 9.9072 28.9752 10.0912C28.7264 10.3376 28.4784 10.5824 28.232 10.8264H28.2312C28.1512 10.7696 28.0712 10.7144 27.9912 10.6616H27.9904C27.9104 10.608 27.8304 10.5576 27.7512 10.508C27.6704 10.4584 27.5904 10.4104 27.5096 10.3648C27.3904 10.2952 27.2704 10.2304 27.1504 10.1704C26.9912 10.0888 26.8312 10.0144 26.6712 9.948C26.5912 9.9144 26.512 9.8824 26.432 9.8528H26.4312C26.2616 9.7896 26.0919 9.7336 25.9231 9.6856C25.7959 9.6504 25.6687 9.6184 25.5415 9.592C25.3727 9.556 25.204 9.528 25.0344 9.5088C24.9264 9.496 24.8176 9.4864 24.7096 9.4808C24.5008 9.4688 24.2919 9.4688 24.0831 9.4808C23.9271 9.4904 23.7712 9.5056 23.6152 9.5288H23.6136C23.5096 9.544 23.4055 9.5616 23.3015 9.5832C23.2487 9.5936 23.1967 9.6056 23.1439 9.6176C23.1439 9.6176 23.1431 9.6168 23.1423 9.6176C23.0663 9.636 22.9904 9.6552 22.9152 9.6752C22.8008 9.7064 22.6864 9.7416 22.572 9.78H22.5712C22.4608 9.8168 22.3504 9.8576 22.2392 9.9024H22.2384C22.1272 9.9464 22.0168 9.9936 21.9056 10.0448C21.8504 10.0696 21.7944 10.096 21.7392 10.1232C21.6184 10.1816 21.4968 10.2456 21.3752 10.3128C21.3352 10.3352 21.2952 10.3576 21.2544 10.3808C21.1736 10.4272 21.0928 10.4752 21.012 10.5256C20.9312 10.576 20.8504 10.6272 20.7696 10.6808C20.688 10.7344 20.6072 10.7904 20.5264 10.8472C20.3344 10.6496 20.1448 10.452 19.956 10.256C19.7048 9.9944 19.4536 9.7352 19.1984 9.4824C19.1352 9.4184 19.0712 9.356 19.0072 9.2936H19.0064C18.9664 9.2536 18.9311 9.2152 18.9015 9.1768C18.8791 9.1456 18.8599 9.1152 18.8439 9.0848C18.8367 9.0688 18.8304 9.0536 18.8248 9.0376C18.8192 9.0224 18.8152 9.0072 18.8112 8.9912C18.7904 8.888 18.8136 8.7776 18.8872 8.6416C18.9784 8.4744 19.012 8.2576 19.0128 8.0632C19.0216 5.9832 19.0248 3.9032 19.016 1.824C19.0136 1.256 18.7471 0.7896 18.3023 0.4528C18.2711 0.4296 18.2392 0.4072 18.2072 0.3856C17.98 0.2352 17.7192 0.1304 17.476 0H3.39756C3.31356 0.0352 3.23035 0.0736 3.14475 0.1048C2.34075 0.3968 1.81916 1.0592 1.81116 1.9168C1.79196 3.9432 1.78636 5.9704 1.81356 7.9968C1.82636 8.9896 2.53036 9.8008 3.51756 9.8472C5.13996 9.9232 6.76796 9.8832 8.39356 9.8896C8.45836 9.8896 8.54635 9.8824 8.58315 9.8416C8.71995 9.6936 8.91275 9.5424 8.94235 9.3672C8.97035 9.2104 8.85355 8.9736 8.72395 8.86C8.60315 8.7544 8.38075 8.7304 8.20315 8.7288C6.80315 8.7192 5.40315 8.7256 4.00315 8.7224C3.25995 8.7208 2.97436 8.4448 2.97276 7.7192C2.96876 5.8664 2.96876 4.0128 2.97276 2.1592C2.97436 1.4504 3.25836 1.1768 3.97756 1.176C8.27036 1.1752 12.5632 1.1752 16.856 1.176C17.592 1.1768 17.8688 1.4544 17.8696 2.192C17.872 4.0192 17.8712 5.8456 17.8696 7.672C17.8688 8.4504 17.5944 8.7216 16.8048 8.7224C14.992 8.724 13.1792 8.7224 11.3656 8.724C11.2328 8.724 11.0576 8.6848 10.976 8.7528C10.7984 8.9008 10.5912 9.0872 10.5384 9.2936C10.4728 9.5512 10.6448 9.784 10.9336 9.852C11.0872 9.888 11.2496 9.8976 11.408 9.8976C12.9544 9.9008 14.5016 9.9088 16.048 9.8952C16.5912 9.8904 17.1344 9.8264 17.6776 9.7984C17.7608 9.7944 17.872 9.8112 17.9264 9.8632C18.5368 10.4552 19.1376 11.056 19.7472 11.66C19.6656 11.7776 19.6151 11.8528 19.5615 11.9272C18.6311 13.216 18.24 14.652 18.4408 16.2288C18.4832 16.5624 18.3712 16.7 18.1128 16.848C16.02 18.0472 13.9304 19.2512 11.8496 20.4712C11.5464 20.6488 11.392 20.5912 11.1528 20.352C9.36556 18.5656 7.20955 17.9672 4.80475 18.6944C2.26075 19.464 0.739154 21.2768 0.387954 23.9016C0.0415543 26.4936 1.02396 28.6208 3.23276 30.0344C5.43996 31.4464 7.77355 31.456 9.98635 30.0448C12.196 28.6352 13.1464 26.528 12.8472 23.9216C12.7592 23.1552 12.4584 22.4136 12.2352 21.5888C14.3664 20.3568 16.5728 19.08 18.7944 17.7944C18.852 17.8864 18.892 17.9384 18.9192 17.9968C19.5664 19.4008 20.608 20.4008 22.008 21.048C22.1296 21.1048 22.2448 21.324 22.2464 21.468C22.2624 23.2416 22.2576 25.0144 22.2544 26.788C22.2544 26.9824 22.2288 27.1768 22.208 27.4776C22.0664 27.2864 21.996 27.1776 21.9128 27.08C21.516 26.6144 21.148 26.1176 20.7088 25.696C19.9528 24.9696 19.0271 24.7016 17.9831 24.8464C16.3999 25.0672 15.7984 26.4432 16.7008 27.7624C18.3928 30.2384 20.0759 32.7192 21.7615 35.1992C22.3911 36.1264 22.7847 37.1408 22.7431 38.2712C22.7119 39.1072 23.0224 39.68 23.7952 40H33.6336C33.92 39.8976 34.1448 39.7592 34.3144 39.584C34.3424 39.5552 34.3688 39.5256 34.3936 39.4944C34.42 39.4632 34.444 39.4312 34.4656 39.3976C34.4872 39.3664 34.5063 39.3344 34.5247 39.3016C34.5743 39.212 34.6152 39.1168 34.6456 39.0144C34.6576 38.976 34.668 38.936 34.6768 38.8944C34.6872 38.8528 34.6952 38.8104 34.7008 38.7664C34.7056 38.7368 34.7096 38.7064 34.7128 38.6752C34.7264 38.5576 34.7287 38.4328 34.7239 38.3016C34.6983 37.6848 34.6928 37.0664 34.7168 36.4496C34.7176 36.4288 34.7184 36.4072 34.7192 36.3856C34.7224 36.3048 34.7264 36.2232 34.7312 36.1424C34.7384 36.012 34.7456 35.876 34.7592 35.7408C34.7888 35.4416 34.8455 35.144 34.9831 34.9056C35.2351 34.4688 35.4224 34.0216 35.56 33.5656C35.592 33.4584 35.6216 33.3504 35.648 33.2424C35.6736 33.1424 35.696 33.0424 35.716 32.9416C35.7336 32.8576 35.7495 32.7736 35.7639 32.6888C35.7735 32.6336 35.7824 32.5784 35.7904 32.5232C35.8008 32.456 35.8096 32.388 35.8184 32.32C35.836 32.1856 35.8496 32.0496 35.8608 31.9144C35.9008 31.4328 35.9072 30.9464 35.8952 30.4552C35.8936 30.3824 35.8912 30.3096 35.8888 30.2376C35.8864 30.1656 35.884 30.0936 35.8808 30.0216C35.8776 29.9352 35.8608 29.8544 35.8336 29.7816C35.8248 29.7576 35.8143 29.7336 35.8031 29.7112C35.7855 29.6744 35.7648 29.6416 35.7408 29.6112C35.7296 29.596 35.7175 29.5816 35.7039 29.5672C35.6911 29.5528 35.6775 29.54 35.6639 29.5272C35.6503 29.5144 35.636 29.5032 35.6208 29.4928C35.5752 29.46 35.5256 29.4344 35.4728 29.4176C35.416 29.3984 35.356 29.3896 35.2936 29.3904C35.2872 29.3904 35.2816 29.392 35.2752 29.392C35.2512 29.3928 35.2271 29.3952 35.2039 29.3984C35.1751 29.4024 35.1472 29.4096 35.1208 29.4184C35.0664 29.436 35.0176 29.4616 34.9736 29.4936C34.9584 29.5048 34.9448 29.516 34.9312 29.5288C34.924 29.5352 34.9176 29.5416 34.9112 29.5488C34.8008 29.66 34.7344 29.828 34.728 30.0376C34.7248 30.1448 34.7224 30.2528 34.7208 30.36C34.7184 30.4552 34.7176 30.5512 34.7176 30.6464C34.7176 30.7416 34.7184 30.828 34.72 30.9184C34.7216 30.9984 34.724 31.0776 34.7272 31.1576C34.7696 32.208 34.5584 33.1936 34.0464 34.1184C33.932 34.3248 33.8383 34.536 33.7647 34.7536C33.7543 34.7808 33.7456 34.8088 33.7368 34.8368C33.7208 34.8856 33.7064 34.9344 33.6928 34.9848C33.672 35.0592 33.6536 35.1352 33.6376 35.2112C33.6288 35.2528 33.62 35.2952 33.6128 35.3376C33.6048 35.3808 33.5976 35.4232 33.5912 35.4656C33.556 35.7032 33.5407 35.9456 33.5447 36.1928C33.5567 36.912 33.5296 37.6328 33.5536 38.352C33.56 38.5456 33.5279 38.6672 33.4447 38.74C33.4263 38.756 33.404 38.7704 33.38 38.7824C33.3552 38.7936 33.328 38.8032 33.2976 38.8104C33.2664 38.8176 33.232 38.8232 33.1936 38.8264C33.1584 38.8296 33.12 38.8312 33.0792 38.8312H33.0704C30.5504 38.8208 28.0304 38.8184 25.5112 38.828C25.3312 38.828 25.1512 38.8288 24.972 38.8304C24.792 38.8304 24.612 38.8312 24.432 38.832C24.3336 38.8328 24.2528 38.8256 24.1872 38.8088C23.9944 38.7576 23.9296 38.62 23.9304 38.3352C23.932 37.676 23.844 37.0424 23.6608 36.4368C23.6384 36.3616 23.6144 36.2872 23.5888 36.2128C23.5376 36.064 23.4808 35.9176 23.4184 35.7728C23.3712 35.664 23.3208 35.556 23.2672 35.4496C23.2312 35.3784 23.1944 35.308 23.1552 35.2376C23.1168 35.1672 23.0768 35.0976 23.0344 35.028C22.972 34.924 22.9064 34.8208 22.8368 34.7192C22.6064 34.3808 22.3768 34.0416 22.1464 33.7024C21.6872 33.0232 21.2288 32.344 20.7704 31.6648C20.5408 31.3248 20.3111 30.9856 20.0815 30.6464C19.2599 29.4328 18.428 28.2256 17.6176 27.0048C17.4088 26.6896 17.4 26.4248 17.568 26.2456C17.5768 26.2368 17.5856 26.2272 17.5944 26.2192C17.6584 26.16 17.7432 26.1112 17.8488 26.0752C17.8888 26.0608 17.932 26.0488 17.9776 26.0392C18.0008 26.0336 18.0248 26.0288 18.0488 26.0248C18.7456 25.9048 19.3816 26.0472 19.9008 26.5448C20.188 26.8208 20.4488 27.1256 20.7056 27.4304C21.0392 27.8272 21.3136 28.284 21.6912 28.6304C21.9456 28.8632 22.2208 28.9616 22.4704 28.9392C22.5168 28.9352 22.5616 28.9272 22.6056 28.9144C22.6168 28.9112 22.6272 28.908 22.6384 28.9048C22.66 28.8976 22.6815 28.8888 22.7023 28.88L22.7336 28.8656C22.7864 28.84 22.8367 28.808 22.8839 28.768C23.0287 28.652 23.1448 28.4768 23.216 28.2488C23.2208 28.236 23.2248 28.2224 23.228 28.2088C23.2312 28.2016 23.2336 28.1936 23.2352 28.1864C23.2776 28.028 23.3112 27.8664 23.336 27.7032C23.352 27.6048 23.364 27.5056 23.3744 27.4064C23.3816 27.34 23.3872 27.2736 23.392 27.2072C23.3968 27.14 23.4007 27.0736 23.4039 27.0072C23.4103 26.8744 23.4136 26.7416 23.4136 26.6096C23.4288 23.0632 23.4207 19.5168 23.4231 15.9704C23.4231 15.9456 23.4231 15.9208 23.4239 15.8952C23.4239 15.8456 23.4248 15.7952 23.4264 15.7456C23.4272 15.7208 23.4288 15.6952 23.4296 15.6704C23.4312 15.6456 23.4328 15.6208 23.4344 15.5952C23.4376 15.5576 23.4416 15.5208 23.4456 15.484C23.4504 15.4472 23.4559 15.4104 23.4623 15.3736C23.4783 15.2824 23.504 15.1976 23.5384 15.12C23.5504 15.0944 23.5624 15.0688 23.576 15.0448C23.5896 15.0208 23.6032 14.9984 23.6184 14.976C23.6416 14.9416 23.6672 14.9104 23.6936 14.88C23.7024 14.8704 23.7119 14.8608 23.7215 14.8512C23.8519 14.72 24.0216 14.6344 24.2184 14.6024C24.2816 14.5912 24.348 14.5864 24.4168 14.588C24.4752 14.5896 24.5312 14.5944 24.5848 14.604C24.6032 14.6072 24.6208 14.6104 24.6384 14.6144C24.6528 14.6176 24.6664 14.6208 24.68 14.6248C24.748 14.6432 24.812 14.668 24.872 14.7C24.9912 14.7632 25.0928 14.8528 25.1704 14.9648C25.1864 14.9872 25.2008 15.0104 25.2144 15.0344C25.2352 15.0712 25.2536 15.1088 25.2696 15.1488C25.2808 15.176 25.2904 15.2032 25.2992 15.232C25.3168 15.2888 25.3304 15.3488 25.3392 15.412C25.3448 15.4552 25.3496 15.4984 25.3528 15.5424C25.3648 15.684 25.3639 15.828 25.3639 15.9704C25.3655 19.1048 25.3648 22.2368 25.3664 25.3704C25.3664 25.4752 25.364 25.5816 25.3696 25.6856C25.3728 25.7408 25.3784 25.7944 25.388 25.848C25.3944 25.884 25.404 25.9184 25.416 25.9504C25.428 25.9832 25.4424 26.0136 25.4592 26.0424C25.468 26.0576 25.4768 26.072 25.4864 26.0856C25.5056 26.1128 25.5272 26.1384 25.5496 26.1608C25.5616 26.1728 25.5736 26.184 25.5856 26.1944C25.7152 26.3056 25.8912 26.356 26.0656 26.3144C26.1768 26.288 26.264 26.2448 26.332 26.188C26.3456 26.1768 26.3576 26.1648 26.3696 26.152C26.4904 26.0256 26.5336 25.8432 26.5328 25.624C26.528 24.5736 26.528 23.5232 26.5296 22.472C26.5304 22.0832 26.532 21.6936 26.5328 21.3048C26.5328 21.2584 26.5336 21.212 26.5344 21.1648C26.536 21.1184 26.5383 21.072 26.5415 21.0248C26.5447 20.9784 26.5496 20.932 26.556 20.8864C26.5624 20.84 26.5704 20.7944 26.58 20.7496C26.7088 20.1648 27.272 19.8616 27.84 20.0576C27.9808 20.1056 28.0968 20.1704 28.1896 20.2568C28.2024 20.268 28.2144 20.2792 28.2256 20.2928C28.2384 20.3048 28.2511 20.3192 28.2615 20.3336C28.2727 20.3456 28.2816 20.3576 28.2904 20.3696C28.3 20.3824 28.3088 20.396 28.3176 20.4096C28.3344 20.4368 28.3504 20.4656 28.3648 20.4952C28.372 20.5104 28.3792 20.5256 28.3856 20.5416C28.3912 20.5544 28.396 20.5672 28.4008 20.5808C28.4104 20.6072 28.4192 20.6344 28.4272 20.6632C28.4352 20.6912 28.4424 20.7208 28.4488 20.752C28.4584 20.7984 28.4664 20.8472 28.472 20.8984C28.476 20.932 28.4791 20.9672 28.4815 21.0032C28.4855 21.0576 28.4872 21.1152 28.4872 21.1752C28.4896 21.9416 28.4896 22.7072 28.4896 23.4728C28.4896 24.3872 28.4888 25.3008 28.4896 26.2152C28.4896 26.348 28.4832 26.484 28.5056 26.6144C28.5088 26.6336 28.5128 26.6528 28.5176 26.6712C28.5264 26.7088 28.5376 26.7432 28.5504 26.776C28.5576 26.7928 28.5648 26.808 28.572 26.824C28.5872 26.8544 28.6047 26.8824 28.6239 26.908C28.6431 26.9336 28.6648 26.9576 28.688 26.9792C28.7856 27.0672 28.9191 27.1128 29.0839 27.1088C29.2255 27.1056 29.3408 27.0672 29.4296 26.9976C29.4424 26.9872 29.4552 26.9768 29.4664 26.9656C29.5592 26.8768 29.6184 26.748 29.64 26.5888C29.6568 26.4704 29.6488 26.3488 29.6488 26.2288C29.6496 24.9624 29.6424 23.696 29.6528 22.4296C29.6544 22.2784 29.6728 22.1408 29.7072 22.0184C29.7168 21.9832 29.728 21.9496 29.7408 21.9168C29.7592 21.868 29.7808 21.8224 29.8048 21.7792C29.8208 21.7504 29.8384 21.7232 29.8568 21.6968C29.8848 21.6584 29.9152 21.6216 29.948 21.5888C30.0144 21.5224 30.0904 21.4688 30.1752 21.4288C30.204 21.4152 30.2335 21.4032 30.2639 21.392C30.3703 21.3552 30.4888 21.336 30.6184 21.336C30.6296 21.336 30.6424 21.336 30.6544 21.3368C30.6664 21.3368 30.6784 21.3368 30.6904 21.3376C30.7128 21.3384 30.7344 21.3408 30.756 21.3432C30.7768 21.3448 30.7976 21.348 30.8184 21.3512C30.86 21.3576 30.9 21.3656 30.9376 21.3768C30.984 21.3888 31.0272 21.4048 31.0688 21.4232C31.0848 21.4304 31.1 21.4376 31.1152 21.4456C31.424 21.6064 31.5928 21.9416 31.596 22.436C31.6048 23.956 31.5984 25.4752 31.6 26.9952C31.6 27.0232 31.6008 27.0504 31.6008 27.0776C31.6024 27.104 31.6031 27.1304 31.6047 27.156C31.6055 27.1736 31.6072 27.1904 31.6088 27.2064C31.6136 27.2552 31.62 27.3016 31.628 27.3456C31.6336 27.3752 31.64 27.4032 31.6464 27.4304C31.6536 27.4568 31.6608 27.4832 31.6696 27.5072C31.6776 27.5328 31.6872 27.556 31.6968 27.5784C31.7072 27.6008 31.7176 27.6216 31.7288 27.6416C31.8288 27.816 31.9864 27.9008 32.2 27.896C32.3448 27.8928 32.46 27.852 32.5472 27.7704C32.5616 27.7568 32.576 27.7416 32.5888 27.7264C32.628 27.6784 32.66 27.6208 32.6856 27.552C32.6984 27.5176 32.7096 27.4808 32.7192 27.4408C32.7288 27.4016 32.7367 27.3592 32.7431 27.3136C32.7471 27.2848 32.7504 27.2552 32.7536 27.224V27.216C32.7552 27.2 32.7568 27.184 32.7576 27.1672C32.7592 27.132 32.76 27.0944 32.7608 27.056C32.7608 27.048 32.7608 27.0408 32.7608 27.0328C32.7616 27.0248 32.7615 27.0168 32.7615 27.0088C32.7615 26.7256 32.7608 26.4424 32.76 26.16C32.7592 25.7944 32.7584 25.4288 32.7584 25.064C32.7584 24.6184 32.76 24.1744 32.7656 23.7296C32.7672 23.6048 32.7832 23.4888 32.812 23.3816C32.824 23.3392 32.8376 23.2976 32.8528 23.2584C32.8608 23.2384 32.8688 23.2192 32.8776 23.2C32.9008 23.1488 32.9272 23.1016 32.9568 23.0568H32.9576C32.984 23.0152 33.0136 22.9768 33.0456 22.9416H33.0464C33.0568 22.9288 33.068 22.9176 33.0792 22.9064C33.292 22.692 33.5936 22.5968 33.9208 22.6648C33.956 22.672 33.9912 22.6816 34.0272 22.6928C34.0624 22.704 34.0984 22.7168 34.1344 22.732C34.2392 22.776 34.3264 22.8304 34.3984 22.8936C34.4088 22.9024 34.4192 22.912 34.4288 22.9216C34.448 22.94 34.4663 22.9592 34.4831 22.9792C34.4927 22.9904 34.5024 23.0016 34.5112 23.0136C34.5288 23.0368 34.5448 23.0608 34.56 23.0856C34.568 23.0984 34.5743 23.1104 34.5815 23.1232C34.5999 23.1576 34.6168 23.1928 34.6304 23.2296C34.652 23.284 34.6687 23.3408 34.6815 23.4C34.7111 23.5312 34.7215 23.672 34.7223 23.8176C34.7231 24.0928 34.7231 24.368 34.7231 24.6432C34.7231 25.2352 34.7223 25.828 34.7239 26.42C34.7247 26.6856 34.7256 26.9512 34.728 27.2168C34.7296 27.4648 34.82 27.6496 34.9704 27.7536C35 27.7744 35.0328 27.7912 35.0672 27.8056C35.1192 27.8272 35.176 27.8408 35.2368 27.8464C35.2576 27.848 35.2784 27.8488 35.2992 27.8488C35.3416 27.8488 35.3823 27.8448 35.4215 27.8376C35.4407 27.8336 35.46 27.8288 35.4776 27.824C35.5512 27.8016 35.6168 27.7656 35.6728 27.7168C35.68 27.7112 35.6872 27.7048 35.6936 27.6976C35.7008 27.6912 35.7064 27.6848 35.7128 27.6776C35.8152 27.5688 35.8768 27.4112 35.8776 27.2192C35.8848 25.9928 35.912 24.7648 35.8672 23.54C35.8616 23.3872 35.8424 23.2408 35.8096 23.1008C35.7536 22.856 35.6592 22.632 35.5328 22.4344C35.4968 22.3776 35.4584 22.3232 35.4176 22.2712C34.892 21.5992 33.9752 21.2968 33.0408 21.5968C33.032 21.5992 33.024 21.6024 33.0152 21.6048C32.9768 21.6168 32.9384 21.628 32.9 21.6392C32.8376 21.6568 32.7752 21.6736 32.7152 21.6912C32.6424 21.5064 32.5568 21.3368 32.4592 21.184C32.4472 21.164 32.4351 21.1448 32.4223 21.1264C32.3975 21.0888 32.372 21.0528 32.3456 21.0176C32.3328 21 32.3192 20.9824 32.3056 20.9656C32.292 20.948 32.2783 20.9312 32.2647 20.9152C32.2375 20.8816 32.2088 20.8496 32.18 20.8184C32.1656 20.8032 32.1504 20.788 32.136 20.7728C31.5208 20.1464 30.6304 19.9768 29.616 20.3648C29.4232 20.0336 29.2312 19.704 29.0264 19.352C29.0712 19.2968 29.1144 19.2416 29.1568 19.1848C29.1992 19.1288 29.2407 19.072 29.2815 19.0152C29.6063 18.5576 29.8672 18.0664 30.0584 17.5416C30.0704 17.5088 30.0824 17.476 30.0936 17.4424C30.116 17.3768 30.1384 17.3096 30.1584 17.2424C30.2512 16.94 30.3216 16.6272 30.3688 16.3032C30.3816 16.2168 30.5824 16.0976 30.6976 16.0952C31.4976 16.0768 32.2984 16.104 33.0968 16.0768C33.2376 16.072 33.3472 16.0832 33.436 16.1232C33.4616 16.1344 33.4856 16.148 33.5072 16.164C33.5968 16.228 33.6623 16.3328 33.7215 16.4944C34.1255 17.6032 35.1576 18.2888 36.3136 18.2824C37.4696 18.276 38.4935 17.5616 38.9031 16.476C39.2991 15.4256 39 14.2088 38.156 13.4384H38.1568ZM33.1512 4.1624C33.1608 4.124 33.1711 4.0856 33.1823 4.0472C33.1879 4.028 33.1936 4.0096 33.2 3.9904C33.2056 3.972 33.212 3.9528 33.2184 3.9344C33.2312 3.8976 33.2448 3.8608 33.2584 3.8248C33.2744 3.7832 33.292 3.7416 33.3104 3.7008C33.324 3.6712 33.3376 3.6416 33.352 3.6128C33.3864 3.5416 33.4248 3.472 33.4656 3.4048C33.488 3.368 33.5112 3.332 33.5352 3.296C33.5648 3.2512 33.596 3.2072 33.6288 3.1648C33.6504 3.136 33.6728 3.108 33.6952 3.0808C33.7296 3.0384 33.7647 2.9976 33.8023 2.9584C33.8255 2.9336 33.8488 2.9088 33.8728 2.8848C33.8944 2.8632 33.916 2.8424 33.9384 2.8216C33.9576 2.8032 33.9776 2.7848 33.9976 2.768C34.02 2.748 34.0424 2.7288 34.0656 2.7096C34.0664 2.7096 34.0672 2.708 34.068 2.7072C34.096 2.684 34.124 2.6616 34.1528 2.64C34.164 2.6312 34.1752 2.6232 34.1864 2.6152C34.2168 2.592 34.248 2.5696 34.28 2.5488C34.296 2.5376 34.3112 2.528 34.3272 2.5176C34.3416 2.508 34.3568 2.4984 34.372 2.4896C34.3888 2.4784 34.4063 2.468 34.4239 2.4584C34.4439 2.4464 34.4639 2.4352 34.4847 2.424C34.5119 2.4088 34.5392 2.3944 34.5664 2.38C34.6008 2.3624 34.636 2.3456 34.6712 2.3296C34.6848 2.3224 34.6992 2.316 34.7136 2.3104C34.7968 2.2736 34.8824 2.2408 34.9704 2.2128C34.9928 2.2056 35.016 2.1984 35.0392 2.192C35.0528 2.1872 35.0671 2.1832 35.0815 2.18C35.1055 2.1736 35.1296 2.1672 35.1544 2.1608C35.2 2.1488 35.2464 2.1384 35.2936 2.1304C35.3304 2.1232 35.3671 2.1168 35.4039 2.1112C35.4951 2.0968 35.5887 2.0872 35.6831 2.0824C35.7327 2.0792 35.7832 2.0784 35.8344 2.0784C35.9288 2.0784 36.0232 2.084 36.1152 2.0936C36.1496 2.0976 36.184 2.1016 36.2184 2.1064C36.2352 2.1088 36.252 2.1112 36.2696 2.1144C36.308 2.1208 36.3464 2.128 36.3856 2.136C36.4192 2.1432 36.4528 2.1504 36.4864 2.1584C36.5192 2.1664 36.5528 2.1752 36.5856 2.1848C36.6072 2.1904 36.6288 2.1968 36.6504 2.204C36.672 2.2104 36.6936 2.2168 36.7144 2.2248C36.7568 2.2384 36.7992 2.2544 36.8408 2.2704C36.8816 2.2872 36.9231 2.3048 36.9639 2.3232C37.0647 2.3688 37.1624 2.42 37.2568 2.4776C37.2944 2.5 37.332 2.524 37.368 2.5488C37.4048 2.5736 37.4408 2.5992 37.476 2.6256C37.5048 2.6464 37.5328 2.6688 37.5608 2.692C37.584 2.7104 37.6072 2.7296 37.6296 2.7488C37.6464 2.7632 37.6632 2.7776 37.6792 2.7928C37.6952 2.8072 37.7112 2.8216 37.7272 2.8376C37.7352 2.8448 37.7432 2.8528 37.7512 2.8608C37.7656 2.8736 37.7792 2.8872 37.792 2.9016C37.8128 2.9224 37.8328 2.9432 37.8528 2.9648C37.8744 2.988 37.896 3.012 37.9168 3.0368C37.9368 3.06 37.956 3.0832 37.9752 3.1072C37.9928 3.128 38.0087 3.1488 38.0247 3.1704C38.0407 3.1912 38.0568 3.2128 38.072 3.2344C38.0976 3.2704 38.1224 3.3064 38.1464 3.3432C38.1624 3.3688 38.1784 3.3944 38.1936 3.42C38.2128 3.4512 38.2304 3.4824 38.248 3.5144C38.2616 3.5384 38.2744 3.5632 38.2864 3.588C38.2968 3.608 38.3072 3.6288 38.3168 3.6496C38.3344 3.6864 38.3512 3.724 38.3672 3.7616C38.38 3.7912 38.3919 3.8208 38.4031 3.8512C38.4143 3.8808 38.4256 3.9112 38.436 3.9416C38.4504 3.984 38.464 4.0272 38.4768 4.0704C38.4888 4.1136 38.5008 4.1576 38.5112 4.2016C38.5216 4.2456 38.5312 4.2904 38.5392 4.336C38.5432 4.3592 38.5472 4.3832 38.5512 4.4064C38.5552 4.428 38.5576 4.4504 38.56 4.472C38.5624 4.4896 38.5648 4.5064 38.5664 4.524C38.5688 4.5408 38.5704 4.5584 38.572 4.576C38.5752 4.6104 38.5776 4.6456 38.58 4.68C38.5832 4.7272 38.5847 4.7744 38.5847 4.8216C38.5847 4.836 38.5847 4.8512 38.5839 4.8664C38.5839 4.8808 38.5831 4.896 38.5831 4.9104C38.5831 4.9464 38.5808 4.9816 38.5784 5.0168C38.576 5.052 38.5736 5.0872 38.5696 5.1216C38.568 5.1448 38.5655 5.168 38.5615 5.1912C38.5575 5.22 38.5536 5.2488 38.5496 5.2768C38.536 5.3624 38.5192 5.4472 38.4976 5.5296C38.4872 5.5736 38.4743 5.6168 38.4615 5.6592C38.4543 5.6816 38.4472 5.7032 38.44 5.7248C38.4288 5.7584 38.4167 5.7912 38.4039 5.824C38.3983 5.8408 38.3919 5.8576 38.3847 5.8736C38.3783 5.8896 38.3719 5.9064 38.3647 5.9224C38.3511 5.9544 38.3367 5.9864 38.3223 6.0176C38.3079 6.0488 38.292 6.0808 38.276 6.1112C38.26 6.1424 38.244 6.1728 38.2264 6.2032C38.2096 6.2336 38.192 6.2632 38.1736 6.2928C38.1584 6.3176 38.1424 6.3424 38.1264 6.3664C38.104 6.4008 38.0808 6.4344 38.0568 6.4672C38.0376 6.4936 38.0184 6.5192 37.9984 6.5448C37.9952 6.5488 37.992 6.5528 37.9888 6.5568C37.9696 6.5816 37.9504 6.6048 37.9304 6.628C37.92 6.6408 37.9088 6.6544 37.8968 6.6672C37.8856 6.6808 37.8743 6.6936 37.8623 6.7056C37.8391 6.7312 37.816 6.756 37.7912 6.7808C37.7648 6.808 37.7376 6.8344 37.7104 6.86C37.6856 6.8832 37.6608 6.9064 37.6352 6.928C37.608 6.952 37.58 6.9752 37.5512 6.9984C37.5192 7.024 37.4864 7.0496 37.4536 7.0736C37.432 7.0896 37.4104 7.1048 37.388 7.12C37.3664 7.1352 37.3447 7.1496 37.3223 7.164C37.3119 7.1704 37.3016 7.1768 37.292 7.1832C37.2312 7.2224 37.1679 7.2584 37.1039 7.292C37.0783 7.3048 37.0536 7.3176 37.028 7.3304C36.988 7.3496 36.948 7.368 36.9064 7.3856C36.8448 7.412 36.7824 7.436 36.7184 7.4576C36.6752 7.472 36.6328 7.4856 36.5888 7.4984C36.5456 7.5104 36.5016 7.5224 36.4568 7.5328C36.4128 7.5432 36.3671 7.552 36.3223 7.5608C36.1639 7.5888 36.0008 7.604 35.8344 7.6048C35.804 7.6048 35.7735 7.6048 35.7439 7.6048C35.7327 7.6048 35.7216 7.6048 35.7112 7.604C35.7008 7.6032 35.6904 7.6032 35.6792 7.6024C35.6432 7.6 35.6072 7.5976 35.572 7.5944C35.536 7.5912 35.5008 7.5872 35.4656 7.5824C35.376 7.5712 35.2879 7.5552 35.2015 7.5352C35.1687 7.528 35.1351 7.5192 35.1023 7.5104C35.0687 7.5016 35.0359 7.492 35.0039 7.4816C34.9823 7.4752 34.9608 7.468 34.94 7.4608C34.9104 7.4512 34.8816 7.4408 34.8528 7.4296C34.8304 7.4216 34.8088 7.4136 34.7872 7.404C34.7536 7.3912 34.7208 7.3768 34.6888 7.3624C34.6488 7.344 34.6088 7.3248 34.5696 7.3048C34.4904 7.2648 34.4128 7.22 34.3384 7.172C34.316 7.1576 34.2936 7.1424 34.2712 7.1272C34.2456 7.1104 34.22 7.092 34.1952 7.0736C34.1712 7.056 34.1463 7.0376 34.1223 7.0184C34.1223 7.0184 34.1221 7.01813 34.1215 7.0176C34.0871 6.9904 34.0536 6.9624 34.02 6.9344C34.02 6.9336 34.02 6.9336 34.02 6.9336C33.9872 6.9048 33.9551 6.8752 33.9231 6.8448C33.9071 6.8296 33.8912 6.8144 33.876 6.7984C33.8632 6.7864 33.8512 6.7744 33.84 6.7616C33.8264 6.748 33.8135 6.7344 33.8015 6.7208C33.7815 6.7 33.7623 6.6784 33.7431 6.656C33.7239 6.6344 33.7056 6.612 33.6872 6.5896C33.6648 6.5624 33.6431 6.5344 33.6223 6.5064C33.6199 6.504 33.6184 6.5008 33.616 6.4984C33.5968 6.4728 33.5784 6.4464 33.56 6.42C33.5152 6.3552 33.4728 6.2888 33.4336 6.22C33.4184 6.1936 33.404 6.1664 33.3896 6.1392C33.3728 6.108 33.3568 6.076 33.3408 6.0432C33.3216 6.0024 33.3032 5.9608 33.2856 5.92C33.272 5.8888 33.26 5.8576 33.248 5.8264C33.2472 5.8256 33.2472 5.824 33.2464 5.8224C33.2352 5.792 33.224 5.7616 33.2136 5.7304C33.192 5.6664 33.1728 5.6008 33.156 5.5344C33.1336 5.4464 33.1152 5.356 33.1008 5.264C33.0864 5.172 33.0776 5.0792 33.0728 4.984C33.0712 4.9368 33.0696 4.8896 33.0696 4.8416C33.0696 4.6496 33.0888 4.4616 33.1256 4.2808C33.1336 4.2416 33.1424 4.2024 33.152 4.1632L33.1512 4.1624ZM6.61356 29.86C3.75996 29.8512 1.47835 27.5648 1.48395 24.72C1.49035 21.8784 3.79515 19.5776 6.62715 19.5864C9.47195 19.5952 11.7648 21.896 11.756 24.732C11.7464 27.5824 9.45436 29.8688 6.61356 29.86ZM29.2223 15.7992C29.2199 15.8376 29.2168 15.876 29.2136 15.9144C29.2088 15.9648 29.204 16.0152 29.1984 16.0648C29.1928 16.1152 29.1864 16.1656 29.1792 16.2152C29.1736 16.2552 29.1672 16.2944 29.1608 16.3336C29.1488 16.4032 29.136 16.4728 29.1208 16.5416C29.1128 16.58 29.104 16.6184 29.0952 16.6568C29.0832 16.7064 29.0704 16.7568 29.0568 16.8064C29.044 16.8544 29.0304 16.9024 29.016 16.9496C29.0136 16.9576 29.0112 16.9656 29.0088 16.9736C28.9904 17.0328 28.9712 17.0912 28.9504 17.1496C28.9272 17.216 28.9024 17.2816 28.876 17.3464C28.856 17.3944 28.836 17.4424 28.8144 17.4896C28.8072 17.508 28.7992 17.5256 28.7904 17.5432C28.7824 17.5608 28.7744 17.5792 28.7656 17.5968C28.7536 17.6216 28.7416 17.6472 28.7288 17.672C28.708 17.7144 28.6863 17.756 28.6639 17.7976C28.6239 17.8728 28.5808 17.9472 28.536 18.02C28.5216 18.044 28.5064 18.068 28.4912 18.092C28.4656 18.132 28.44 18.1712 28.4128 18.2096C28.3808 18.2576 28.3464 18.3048 28.312 18.3512C28.2704 18.408 28.2271 18.4632 28.1815 18.5168C28.1591 18.544 28.1368 18.5712 28.1136 18.5976C28.1064 18.6056 28.0992 18.6136 28.0912 18.62C28.0816 18.6296 28.0712 18.6384 28.0608 18.6464C28.0504 18.6544 28.04 18.6624 28.0288 18.6696C28.0192 18.676 28.0096 18.6824 27.9992 18.688C27.9984 18.6888 27.9976 18.6888 27.9976 18.6888C27.9928 18.692 27.9879 18.6944 27.9839 18.6968C27.9735 18.7032 27.9632 18.708 27.9528 18.7128C27.932 18.724 27.9096 18.7336 27.8872 18.7416C27.8648 18.7512 27.8424 18.7592 27.8192 18.7656C27.796 18.7736 27.7728 18.7808 27.7496 18.7864C27.7288 18.7928 27.708 18.7976 27.6872 18.8024C27.6616 18.8088 27.6368 18.8144 27.612 18.8192C27.276 18.8872 26.9328 18.9152 26.5304 18.968V18.56C26.5296 18.2584 26.5304 17.956 26.5312 17.6544C26.532 17.4496 26.532 17.2448 26.5312 17.04C26.5312 16.9136 26.5312 16.7864 26.5304 16.66C26.5304 16.4704 26.5296 16.2808 26.528 16.0912C26.5264 15.9008 26.5247 15.7112 26.5215 15.5208C26.5215 15.4864 26.52 15.452 26.5176 15.4176C26.516 15.3832 26.5136 15.3488 26.5104 15.3152C26.5096 15.3032 26.5088 15.2912 26.5072 15.28C26.5056 15.2648 26.5039 15.2496 26.5023 15.2352C26.5015 15.2296 26.5016 15.224 26.5 15.2192C26.5 15.2096 26.4984 15.2008 26.4968 15.192C26.492 15.1568 26.4864 15.1216 26.48 15.0872C26.476 15.064 26.4712 15.0416 26.4664 15.0192C26.464 15.0048 26.4608 14.9896 26.4568 14.976C26.4464 14.9296 26.4344 14.8848 26.4208 14.8408C26.4168 14.8256 26.412 14.8104 26.4064 14.796C26.3992 14.7744 26.3919 14.7528 26.3839 14.7312C26.3759 14.7096 26.368 14.6888 26.36 14.668C26.3096 14.5416 26.2464 14.4232 26.1704 14.3128C26.1576 14.2928 26.1432 14.2736 26.1296 14.2544C26.1016 14.216 26.072 14.1792 26.04 14.1432C25.9784 14.072 25.9104 14.0056 25.8368 13.944C25.8248 13.9328 25.812 13.9224 25.7992 13.9128C25.784 13.9 25.768 13.888 25.7512 13.876C25.7352 13.8632 25.7183 13.8512 25.7015 13.8392C25.6791 13.8232 25.6568 13.808 25.6336 13.7928C25.6048 13.7736 25.5743 13.7552 25.5431 13.7376C25.5199 13.7232 25.496 13.7096 25.4712 13.6968C25.4408 13.68 25.4096 13.664 25.3776 13.6488C25.3528 13.636 25.3279 13.6248 25.3031 13.6136C25.2631 13.596 25.2239 13.58 25.1839 13.5648C25.1831 13.5648 25.1831 13.5648 25.1831 13.5648C25.1439 13.5496 25.1048 13.5352 25.0648 13.5224C25.0248 13.5096 24.9856 13.4968 24.9456 13.4864C24.916 13.4784 24.8864 13.4704 24.8568 13.4632C24.8272 13.456 24.7976 13.4496 24.7688 13.444C24.756 13.4416 24.7424 13.4384 24.7296 13.4368C24.704 13.432 24.6768 13.428 24.6512 13.424C24.6224 13.42 24.5944 13.416 24.5656 13.4136C24.5592 13.4128 24.552 13.412 24.5456 13.412C24.54 13.4112 24.5352 13.4104 24.5296 13.4104C24.504 13.408 24.4784 13.4064 24.4528 13.4056C24.4376 13.4056 24.4216 13.404 24.4064 13.404C24.2696 13.4008 24.1344 13.4112 24.0008 13.436C23.9416 13.4472 23.8832 13.4608 23.8248 13.4776C23.7952 13.4856 23.7664 13.4952 23.7368 13.5048C23.708 13.5144 23.6792 13.5248 23.6504 13.536C23.6216 13.5472 23.5927 13.5584 23.5639 13.5712C23.5351 13.5832 23.5072 13.5968 23.4784 13.6104C23.3648 13.6656 23.2535 13.732 23.1439 13.8104C23.0895 13.8488 23.0351 13.8904 22.9815 13.9352C22.9711 13.944 22.9608 13.9528 22.9504 13.9624C22.9136 13.9936 22.8792 14.0264 22.8464 14.0592L22.832 14.0736C22.8048 14.1016 22.7784 14.1296 22.7536 14.1584C22.7352 14.18 22.7168 14.2024 22.6992 14.224C22.6784 14.2496 22.6592 14.276 22.64 14.3024C22.6168 14.3352 22.5952 14.3688 22.5736 14.4024C22.5632 14.42 22.5527 14.4368 22.5431 14.4544C22.5319 14.4736 22.5216 14.4936 22.5112 14.5128C22.5008 14.5328 22.4904 14.5528 22.4808 14.5728C22.4664 14.6032 22.4528 14.6336 22.44 14.664C22.4272 14.6944 22.4151 14.7256 22.4039 14.7568C22.3959 14.7776 22.3887 14.7984 22.3815 14.82C22.3783 14.8304 22.3752 14.8408 22.372 14.8512C22.3496 14.9208 22.332 14.992 22.3168 15.0648C22.3088 15.104 22.3016 15.1432 22.2944 15.1832C22.288 15.2232 22.2824 15.264 22.2784 15.3048C22.2776 15.3056 22.2776 15.3064 22.2784 15.3072C22.2736 15.3472 22.2696 15.3872 22.2664 15.428C22.2632 15.4704 22.2608 15.5136 22.26 15.5568C22.2584 15.5976 22.2576 15.6384 22.2576 15.68V15.6848C22.2584 16.8976 22.2576 18.1104 22.2568 19.324V19.8536C21.9376 19.688 21.648 19.504 21.3872 19.3008C21.3608 19.2808 21.3352 19.26 21.3096 19.2392C21.2848 19.2192 21.26 19.1992 21.236 19.1784C21.2104 19.1576 21.1855 19.136 21.1615 19.1144C21.1383 19.0952 21.1152 19.0744 21.0928 19.0536C21.0696 19.0328 21.0472 19.012 21.0256 18.9912C20.9992 18.9664 20.9728 18.9408 20.9472 18.9152C20.9208 18.8888 20.8952 18.8632 20.8696 18.8368C20.836 18.8016 20.8032 18.7664 20.7704 18.7304C20.748 18.7056 20.7264 18.68 20.7048 18.6552C20.6648 18.6088 20.6256 18.5616 20.588 18.5136C20.568 18.4888 20.548 18.464 20.5296 18.4384C20.5112 18.4152 20.4936 18.3912 20.4768 18.3672C20.4528 18.3344 20.4296 18.3016 20.4064 18.268C20.3832 18.2344 20.3608 18.2 20.3384 18.1656C20.316 18.1312 20.2944 18.0968 20.2728 18.0616C20.1208 17.8136 19.9911 17.548 19.8831 17.264C19.8695 17.228 19.8559 17.1912 19.8431 17.1544C19.8343 17.1296 19.8256 17.1048 19.8176 17.08C19.8088 17.056 19.8008 17.032 19.7936 17.0072C19.7768 16.956 19.7608 16.904 19.7464 16.8528C19.7384 16.8256 19.7311 16.7976 19.7239 16.7704C19.7199 16.7568 19.716 16.7424 19.7128 16.7288C19.7096 16.7152 19.7063 16.7016 19.7023 16.6872C19.6951 16.66 19.6887 16.632 19.6823 16.6048C19.6479 16.4576 19.6216 16.3104 19.6008 16.1624C19.5864 16.0536 19.5752 15.944 19.5672 15.8352C19.5576 15.6968 19.5544 15.5584 19.5568 15.4208C19.5568 15.4208 19.5568 15.4203 19.5568 15.4192C19.556 15.4128 19.556 15.4088 19.5568 15.4024C19.5568 15.3968 19.5568 15.3904 19.5576 15.3848C19.5568 15.3832 19.5568 15.3824 19.5576 15.3816C19.5568 15.38 19.5568 15.3792 19.5576 15.3776C19.5584 15.36 19.5584 15.3424 19.5592 15.3248C19.5592 15.3248 19.5592 15.3243 19.5592 15.3232C19.5592 15.3232 19.5584 15.3224 19.5592 15.3216C19.5584 15.3208 19.5592 15.3208 19.5592 15.3208C19.5584 15.3184 19.5584 15.3168 19.5592 15.3144C19.5592 15.2896 19.5607 15.2648 19.5631 15.24C19.5631 15.2392 19.5631 15.2384 19.5631 15.2376C19.5663 15.1792 19.5704 15.1208 19.576 15.0624C19.5784 15.0336 19.5816 15.004 19.5848 14.9752C19.5848 14.9752 19.5848 14.9747 19.5848 14.9736C19.5848 14.9736 19.584 14.9712 19.5848 14.9688C19.5856 14.9608 19.5864 14.9536 19.588 14.9456C19.5872 14.9456 19.5872 14.9432 19.588 14.9424C19.5896 14.9224 19.592 14.9008 19.5952 14.8808C19.5952 14.8792 19.5952 14.8784 19.596 14.8768C19.5992 14.852 19.6024 14.8264 19.6064 14.8016C19.6192 14.7152 19.6344 14.6296 19.6512 14.544C19.6608 14.492 19.6728 14.4408 19.6848 14.3896C19.688 14.3752 19.6912 14.36 19.6952 14.3456C19.7 14.3264 19.7048 14.308 19.7096 14.2888C19.7096 14.2848 19.7112 14.2824 19.712 14.2792C19.7184 14.2544 19.7248 14.2304 19.732 14.2064C19.74 14.1784 19.748 14.1504 19.756 14.1232C19.7696 14.0768 19.784 14.0312 19.7992 13.9864C19.7984 13.9856 19.7984 13.9848 19.7992 13.984C19.8048 13.9656 19.8112 13.9472 19.8184 13.9288C19.824 13.9112 19.8304 13.8936 19.8368 13.8752C19.8376 13.8712 19.8392 13.8672 19.8408 13.8632C19.852 13.832 19.8632 13.8 19.876 13.7688C19.876 13.768 19.876 13.7664 19.8776 13.7648C19.8904 13.7304 19.9048 13.6952 19.9192 13.6608C19.9312 13.6296 19.944 13.5992 19.9576 13.5688C19.9592 13.564 19.9615 13.5584 19.9639 13.5544C19.9751 13.5256 19.9887 13.4976 20.0015 13.4704C20.0031 13.4672 20.0048 13.464 20.0064 13.4608C20.016 13.4392 20.0264 13.4176 20.0376 13.396C20.0496 13.3688 20.0632 13.3408 20.0776 13.3144C20.0872 13.296 20.0968 13.2776 20.1064 13.2592C20.1456 13.1824 20.1872 13.1064 20.232 13.032C20.2424 13.0152 20.2519 12.9984 20.2623 12.9816C20.3055 12.9104 20.3512 12.84 20.3984 12.7712C20.4128 12.7488 20.4279 12.7272 20.4439 12.7056C20.4695 12.6688 20.4951 12.6328 20.5223 12.5976C20.5367 12.5776 20.5512 12.5584 20.568 12.5384C20.5688 12.536 20.5704 12.5344 20.5728 12.532C20.5728 12.5304 20.5744 12.5288 20.5768 12.5264H20.5776C20.5776 12.5264 20.5791 12.5224 20.5815 12.5208C20.5927 12.5056 20.6048 12.4904 20.6176 12.4752C20.6256 12.4648 20.6335 12.4552 20.6423 12.4448C20.6455 12.4392 20.6496 12.4344 20.6544 12.4296C20.6784 12.3992 20.7032 12.3696 20.7288 12.3408C20.7648 12.2984 20.8016 12.2576 20.8392 12.2168C20.8768 12.176 20.9152 12.136 20.9544 12.0968C21.0264 12.024 21.1 11.9536 21.1768 11.8856C21.1944 11.8704 21.2112 11.8552 21.2288 11.84C21.2496 11.8216 21.2704 11.804 21.292 11.7864C21.3112 11.7696 21.3312 11.7536 21.3512 11.7376C21.4184 11.6824 21.488 11.6296 21.5592 11.5792C21.5752 11.5672 21.5912 11.5552 21.608 11.544C21.6352 11.524 21.6632 11.5048 21.6912 11.4864C21.7096 11.4736 21.7288 11.4608 21.7472 11.4488C21.7536 11.444 21.7608 11.4392 21.768 11.4352C21.8048 11.4104 21.8424 11.3872 21.8808 11.364C21.9216 11.3384 21.964 11.3136 22.0064 11.2896C22.0192 11.2824 22.032 11.2744 22.0448 11.268C22.0904 11.2416 22.1367 11.2168 22.1831 11.1928C22.4167 11.0712 22.656 10.9712 22.8984 10.892C22.9896 10.8624 23.0816 10.8352 23.1736 10.8104C23.2424 10.792 23.3112 10.7752 23.3808 10.7608C23.404 10.756 23.428 10.7512 23.4512 10.7464C23.4976 10.7376 23.544 10.7288 23.5904 10.7208C23.6368 10.7128 23.6832 10.7056 23.7296 10.6992C23.7744 10.6928 23.8191 10.6872 23.8639 10.6824C23.8895 10.6792 23.9152 10.6768 23.9408 10.6744C23.964 10.672 23.9864 10.6704 24.0096 10.6688C24.0568 10.6656 24.1032 10.6624 24.1496 10.66C24.1968 10.6576 24.2432 10.656 24.2896 10.6552H24.2904C24.3752 10.6536 24.4599 10.6536 24.5439 10.6568C24.5807 10.6576 24.6176 10.6592 24.6552 10.6616C24.6792 10.6624 24.704 10.664 24.728 10.6664C24.7512 10.668 24.7752 10.6696 24.7984 10.672C24.8184 10.6736 24.8376 10.6752 24.8576 10.6776C24.8976 10.6816 24.9368 10.6864 24.9768 10.6912C25.0168 10.696 25.056 10.7008 25.0952 10.7072C25.124 10.7112 25.1528 10.716 25.1808 10.7216C25.22 10.7272 25.2592 10.7344 25.2976 10.7424C25.3232 10.7464 25.3488 10.752 25.3744 10.7576C25.376 10.7576 25.3776 10.7584 25.38 10.7592C25.4024 10.7632 25.424 10.768 25.4456 10.7736C25.4672 10.7776 25.4896 10.7832 25.5112 10.7888C25.536 10.7944 25.56 10.8008 25.5856 10.8072C25.6024 10.8112 25.6192 10.816 25.636 10.8208C25.656 10.8256 25.676 10.8312 25.6952 10.8368C25.728 10.8456 25.7608 10.8552 25.7936 10.8656C25.8144 10.872 25.836 10.8792 25.8568 10.8856C25.8936 10.8976 25.9312 10.9096 25.968 10.9224C26.0136 10.9384 26.0583 10.9544 26.1031 10.972C26.1495 10.9888 26.1944 11.0072 26.24 11.0264H26.2408C26.3312 11.064 26.4208 11.104 26.5088 11.148C26.5528 11.1696 26.5968 11.192 26.6408 11.2152C26.6848 11.2376 26.728 11.2616 26.7712 11.2864C26.8576 11.3344 26.9424 11.3856 27.0256 11.4408C27.1088 11.4944 27.1912 11.5512 27.2712 11.6112C27.3112 11.64 27.3512 11.6704 27.3904 11.7024C27.4224 11.7264 27.4544 11.7528 27.4856 11.7792C27.5552 11.836 27.6232 11.896 27.6896 11.9584C27.7232 11.9888 27.756 12.02 27.7888 12.0528C27.8392 12.1008 27.888 12.1504 27.9352 12.2016C27.9552 12.2224 27.9752 12.244 27.9944 12.2656C28.0496 12.3256 28.1032 12.3872 28.1544 12.4496C28.18 12.48 28.204 12.5096 28.228 12.5416C28.2296 12.5432 28.2312 12.5448 28.232 12.5472C28.2576 12.5792 28.2824 12.612 28.3064 12.6448C28.324 12.6664 28.3392 12.688 28.3552 12.7096C28.3832 12.748 28.4104 12.788 28.4376 12.8272C28.4712 12.876 28.5032 12.9256 28.5344 12.9752C28.564 13.0232 28.5928 13.0712 28.62 13.12C28.6248 13.1288 28.6296 13.1368 28.6336 13.1448C28.66 13.1896 28.684 13.236 28.708 13.2824C28.7352 13.3344 28.7608 13.3872 28.7856 13.4408C28.8104 13.4944 28.8344 13.548 28.8568 13.6024C28.88 13.656 28.9015 13.7104 28.9223 13.7656C28.9431 13.8208 28.9624 13.876 28.9808 13.932C29 13.988 29.0176 14.044 29.0336 14.1C29.0504 14.1568 29.0656 14.2136 29.08 14.2704C29.0952 14.3272 29.108 14.384 29.12 14.4416C29.1328 14.4992 29.144 14.5568 29.1544 14.6144C29.1856 14.788 29.2072 14.964 29.2192 15.14C29.2296 15.2944 29.2336 15.4496 29.2304 15.6048C29.2288 15.6704 29.2255 15.7352 29.2223 15.8V15.7992ZM37.892 15.752C37.8888 15.7728 37.8848 15.7928 37.8808 15.8128C37.8792 15.8232 37.8768 15.8336 37.8744 15.8432C37.872 15.8536 37.8704 15.864 37.8672 15.8736C37.864 15.888 37.8608 15.9016 37.8568 15.9152C37.8528 15.9328 37.8471 15.9504 37.8415 15.9688C37.8391 15.9792 37.836 15.9896 37.832 16C37.8288 16.0104 37.8255 16.02 37.8215 16.0304C37.8167 16.0448 37.812 16.0584 37.8064 16.072C37.7496 16.2208 37.6712 16.36 37.5736 16.4848C37.5648 16.4976 37.5543 16.5104 37.5431 16.5232C37.5415 16.5256 37.54 16.528 37.5376 16.5296C37.5224 16.5488 37.5064 16.5672 37.4896 16.5856C37.4728 16.6048 37.4544 16.624 37.436 16.6416C37.4184 16.66 37.3992 16.6784 37.38 16.6952C37.3456 16.7264 37.3104 16.756 37.2736 16.784C37.2608 16.7936 37.2472 16.8032 37.2344 16.8128C37.2152 16.8264 37.196 16.84 37.176 16.8528C37.1712 16.8568 37.1656 16.86 37.16 16.8632C37.1448 16.8728 37.1296 16.8832 37.1136 16.892C37.0656 16.9208 37.0151 16.9472 36.9639 16.9704C36.9415 16.9808 36.9192 16.9912 36.896 17C36.8792 17.0072 36.8615 17.0136 36.8439 17.02C36.8263 17.0264 36.8088 17.0328 36.7912 17.0384C36.7776 17.0424 36.7648 17.0464 36.7512 17.0504C36.744 17.0536 36.736 17.0552 36.7288 17.0568C36.7144 17.0608 36.7008 17.0648 36.6864 17.068C36.6824 17.0696 36.6792 17.0704 36.6752 17.0712C36.6648 17.0736 36.6543 17.0768 36.6431 17.0784C36.6399 17.08 36.6368 17.08 36.6328 17.0808C36.6152 17.0848 36.5976 17.088 36.5792 17.0912C36.5608 17.0944 36.5431 17.0976 36.5247 17.1C36.5063 17.1032 36.488 17.1056 36.4696 17.1072C36.46 17.108 36.4496 17.1088 36.44 17.1096C36.4216 17.112 36.4031 17.1128 36.3847 17.1136C36.3599 17.1152 36.3336 17.116 36.308 17.116H36.2888C35.4088 17.108 34.7023 16.388 34.7039 15.5016C34.7039 15.4784 34.7048 15.456 34.7056 15.4336C34.7064 15.4152 34.708 15.396 34.7096 15.3776C34.7104 15.3624 34.7112 15.348 34.7128 15.3328C34.7184 15.2768 34.7264 15.2224 34.7376 15.1688C34.7424 15.1456 34.7472 15.1224 34.7536 15.0992C34.7584 15.0808 34.7624 15.0624 34.7688 15.0448C34.7712 15.0336 34.7744 15.0232 34.7784 15.0136C34.7832 14.9944 34.7896 14.9768 34.7968 14.9584C34.8 14.948 34.8032 14.9376 34.808 14.928C34.8136 14.9104 34.8208 14.8928 34.828 14.876C34.856 14.808 34.8888 14.7424 34.9272 14.6792C34.9312 14.672 34.9352 14.6648 34.9392 14.6584C34.9504 14.64 34.9616 14.6224 34.9736 14.6048C35.0016 14.5632 35.0319 14.5224 35.0639 14.4832C35.0967 14.444 35.1304 14.4064 35.1664 14.3704C35.1976 14.3392 35.2303 14.3096 35.2647 14.2808C35.2711 14.2752 35.2775 14.2696 35.2839 14.2648C35.3015 14.2504 35.3192 14.2368 35.3368 14.224C35.3544 14.2104 35.372 14.1976 35.3912 14.1856C35.4 14.18 35.4088 14.1736 35.4184 14.1672C35.4392 14.1528 35.4607 14.14 35.4831 14.1272C35.5023 14.116 35.5223 14.1048 35.5415 14.0944C35.5615 14.084 35.5815 14.0736 35.6023 14.064C35.6487 14.0416 35.6968 14.0216 35.7456 14.004C35.7944 13.9864 35.8448 13.9712 35.8968 13.9584C35.9224 13.9512 35.948 13.9456 35.9744 13.9408C36.0008 13.9352 36.0272 13.9304 36.0536 13.9272C36.08 13.9224 36.1072 13.9192 36.1344 13.9168C36.1888 13.9112 36.244 13.908 36.3 13.908C36.412 13.908 36.5216 13.9192 36.6272 13.9408C36.6528 13.9456 36.6783 13.952 36.7047 13.9584C36.7303 13.964 36.756 13.9712 36.7808 13.9792C36.8056 13.9864 36.8304 13.9944 36.8552 14.004C36.884 14.0144 36.912 14.0256 36.94 14.0376C37.0248 14.0736 37.1063 14.1168 37.1831 14.1664C37.1943 14.1736 37.2048 14.1808 37.2152 14.188C37.2528 14.2128 37.2879 14.2392 37.3231 14.268C37.3431 14.2832 37.3624 14.3 37.3808 14.3168C37.4 14.3336 37.4192 14.3512 37.4368 14.3696C37.4584 14.3904 37.4792 14.412 37.4992 14.4344C37.504 14.44 37.5096 14.4464 37.5144 14.452C37.5328 14.4728 37.5512 14.4944 37.568 14.5168C37.5856 14.5384 37.6016 14.56 37.6176 14.5824C37.6288 14.5976 37.6392 14.6128 37.6488 14.628C37.6552 14.6376 37.6616 14.6472 37.6672 14.6568C37.672 14.664 37.6767 14.672 37.6823 14.68C37.6879 14.6896 37.6936 14.6992 37.6984 14.7088C37.7104 14.7288 37.7208 14.7504 37.732 14.7712C37.7416 14.7904 37.7512 14.8096 37.7608 14.8288C37.7704 14.848 37.7792 14.868 37.7872 14.8888C37.804 14.9288 37.8192 14.9696 37.832 15.0104C37.8344 15.0168 37.836 15.0232 37.8384 15.0296C37.8456 15.0512 37.8512 15.0728 37.8568 15.0944C37.864 15.1192 37.8704 15.1456 37.8752 15.1712C37.8808 15.1976 37.8856 15.224 37.8904 15.2504C37.8992 15.3024 37.9048 15.356 37.908 15.4104C37.908 15.4104 37.9072 15.4112 37.908 15.4112C37.9096 15.4384 37.9112 15.4656 37.9112 15.4928C37.912 15.5808 37.9056 15.6672 37.892 15.752Z" fill="#3F51B5"/>
<path d="M12.6088 4.0904C11.6488 4.0904 10.6896 4.0928 9.72959 4.0896C9.23439 4.088 8.98398 3.8904 8.98158 3.5128C8.97918 3.136 9.23198 2.92 9.72158 2.9192C11.6408 2.9136 13.56 2.9144 15.4792 2.9184C15.98 2.9192 16.2664 3.1536 16.2544 3.5256C16.2424 3.8928 15.9816 4.0888 15.488 4.0904C14.528 4.0928 13.5688 4.0904 12.6096 4.0904H12.6088Z" fill="#3F51B5"/>
<path d="M7.82152 6.9008C6.84792 6.9008 5.87512 6.904 4.90152 6.8992C4.43832 6.8968 4.19193 6.6944 4.18393 6.3312C4.17593 5.9584 4.43994 5.732 4.91674 5.7312C6.84954 5.7272 8.78314 5.7272 10.7159 5.7312C11.1895 5.732 11.4631 5.9608 11.4583 6.3264C11.4527 6.692 11.1871 6.8984 10.7007 6.9C9.74074 6.9032 8.78074 6.9008 7.82074 6.9L7.82152 6.9008Z" fill="#3F51B5"/>
<path d="M5.66888 4.0872C5.36408 4.0872 5.05848 4.0984 4.75368 4.084C4.41288 4.0688 4.20568 3.8768 4.18968 3.536C4.17368 3.1944 4.36569 2.9568 4.70089 2.9416C5.33529 2.9128 5.97367 2.9128 6.60807 2.9432C6.94567 2.9592 7.13688 3.2088 7.11688 3.5416C7.09688 3.8712 6.89047 4.0744 6.54407 4.0856C6.25287 4.0952 5.96088 4.0872 5.66888 4.0872Z" fill="#3F51B5"/>
<path d="M14.7615 6.89681C14.4695 6.89681 14.1767 6.90561 13.8855 6.89441C13.5407 6.88081 13.3479 6.68321 13.3175 6.34721C13.2879 6.02561 13.5191 5.75441 13.8679 5.74241C14.4775 5.72161 15.0895 5.72401 15.6999 5.74241C16.0455 5.75201 16.2271 5.98081 16.2519 6.31121C16.2759 6.62481 16.0247 6.87761 15.6783 6.89441C15.3735 6.90961 15.0679 6.89761 14.7623 6.89761L14.7615 6.89681Z" fill="#3F51B5"/>
<path d="M6.60086 21.7624C4.97926 21.7704 3.65125 23.1048 3.65125 24.7272C3.65125 26.3496 4.99686 27.7008 6.63766 27.6928C8.28406 27.6856 9.58565 26.3528 9.57285 24.6896C9.55925 23.052 8.24246 21.7544 6.60086 21.7624ZM8.40885 24.8176C8.40885 24.8232 8.40885 24.828 8.40805 24.8328C8.40885 24.836 8.40805 24.84 8.40725 24.8432C8.40645 24.8624 8.40564 24.8816 8.40324 24.9016C8.40324 24.9032 8.40324 24.9048 8.40324 24.9064C8.40244 24.916 8.40166 24.9248 8.40006 24.9344C8.39606 24.976 8.38964 25.0176 8.38164 25.0584C8.37924 25.0752 8.37605 25.0912 8.37205 25.1072C8.36165 25.1576 8.34885 25.208 8.33285 25.2568C8.32485 25.284 8.31604 25.3112 8.30644 25.3376C8.30244 25.3488 8.29765 25.36 8.29365 25.3712C8.28325 25.3992 8.27126 25.4272 8.25926 25.4544C8.24726 25.4824 8.23446 25.5096 8.22086 25.536C8.21766 25.5424 8.21445 25.5496 8.21045 25.5568C8.19605 25.584 8.18164 25.6104 8.16564 25.6368C8.15444 25.6568 8.14245 25.676 8.12965 25.696C8.11845 25.7136 8.10645 25.7312 8.09445 25.7488C8.07205 25.7816 8.04884 25.8128 8.02404 25.844C8.01204 25.8592 7.99924 25.8744 7.98644 25.8896C7.95604 25.9256 7.92325 25.9608 7.88965 25.9944C7.86965 26.0144 7.84885 26.0344 7.82805 26.0536C7.80885 26.0704 7.79045 26.0872 7.77125 26.1024C7.75205 26.1184 7.73285 26.1336 7.71285 26.1488C7.70245 26.1568 7.69284 26.1648 7.68244 26.172C7.67204 26.18 7.66245 26.1872 7.65205 26.1936C7.63765 26.204 7.62405 26.2136 7.60965 26.2224C7.57365 26.2464 7.53686 26.2688 7.49846 26.2896C7.48006 26.3 7.46084 26.3104 7.44164 26.32C7.42404 26.3296 7.40565 26.3384 7.38725 26.3472C7.35125 26.364 7.31365 26.38 7.27605 26.3944C7.25765 26.4016 7.23846 26.4088 7.21926 26.4152C7.20006 26.4224 7.18084 26.4288 7.16164 26.4344C7.10564 26.452 7.04805 26.4664 6.99045 26.4784C6.87445 26.5024 6.75445 26.5152 6.63125 26.5152H6.61445C6.58725 26.5152 6.56005 26.5152 6.53285 26.5128C6.50725 26.512 6.48246 26.5096 6.45686 26.5072C6.44326 26.5064 6.42885 26.5048 6.41525 26.5032C6.40165 26.5024 6.38885 26.5008 6.37605 26.4984C6.36325 26.4968 6.35046 26.4952 6.33686 26.4928C6.32726 26.492 6.31765 26.4904 6.30805 26.488C6.29205 26.4856 6.27526 26.4832 6.26006 26.4792H6.25846C6.24006 26.4752 6.22244 26.472 6.20404 26.4672C6.20084 26.4672 6.19765 26.4664 6.19445 26.4648C6.18325 26.4624 6.17206 26.46 6.16086 26.4568C6.11126 26.444 6.06165 26.4296 6.01365 26.412C6.00645 26.4088 5.99845 26.4064 5.99045 26.404C5.96725 26.3952 5.94406 26.3864 5.92086 26.3768C5.89366 26.3656 5.86726 26.3536 5.84086 26.3416C5.78886 26.3168 5.73765 26.2896 5.68805 26.26C5.63925 26.2304 5.59124 26.1984 5.54564 26.1648C5.52804 26.152 5.51125 26.1392 5.49445 26.1248C5.48245 26.1152 5.46966 26.1048 5.45766 26.0944C5.44726 26.0864 5.43604 26.0768 5.42564 26.0664C5.41444 26.0568 5.40405 26.0472 5.39365 26.0376C5.38565 26.0312 5.37765 26.0232 5.36965 26.0144C5.34965 25.996 5.33045 25.9768 5.31205 25.9568C5.29045 25.9344 5.27045 25.912 5.25125 25.888C5.24165 25.8768 5.23204 25.8648 5.22244 25.8536C5.21204 25.8408 5.20165 25.828 5.19205 25.8152C5.15205 25.7616 5.11446 25.7056 5.08086 25.648C5.06406 25.6192 5.04725 25.5896 5.03205 25.56C5.01365 25.5256 4.99684 25.4904 4.98164 25.4536C4.96964 25.4264 4.95845 25.3984 4.94805 25.3696C4.94245 25.3544 4.93605 25.34 4.93125 25.324C4.92565 25.3088 4.92005 25.2936 4.91605 25.2776C4.91205 25.2664 4.90884 25.2552 4.90564 25.2432C4.90004 25.2264 4.89525 25.2096 4.89125 25.192C4.88965 25.1856 4.88804 25.1792 4.88644 25.1728C4.88404 25.1632 4.88166 25.1536 4.87926 25.1432C4.87126 25.1112 4.86486 25.0784 4.86006 25.0456C4.85766 25.0352 4.85605 25.024 4.85445 25.0136C4.85285 25.0048 4.85125 24.996 4.85045 24.9864C4.84725 24.9672 4.84484 24.9488 4.84324 24.9296C4.84164 24.9112 4.84006 24.892 4.83846 24.872C4.83686 24.8608 4.83605 24.8496 4.83605 24.8384C4.83525 24.8272 4.83525 24.8152 4.83445 24.804C4.83205 24.7752 4.83205 24.7464 4.83205 24.7168C4.83205 24.6912 4.83285 24.6648 4.83445 24.6392C4.83445 24.6312 4.83445 24.6232 4.83525 24.6152C4.83605 24.6016 4.83686 24.588 4.83846 24.5744C4.84006 24.5552 4.84164 24.536 4.84404 24.5168C4.84644 24.4952 4.84885 24.4736 4.85285 24.452C4.85365 24.4448 4.85445 24.4384 4.85605 24.4312C4.86085 24.3976 4.86725 24.364 4.87525 24.3312C4.88005 24.3072 4.88565 24.284 4.89205 24.26C4.89765 24.2368 4.90485 24.2136 4.91205 24.1904C4.91285 24.188 4.91365 24.1848 4.91445 24.1824C4.93125 24.1264 4.95125 24.072 4.97445 24.0184C4.99685 23.9648 5.02245 23.9128 5.04965 23.8624C5.06005 23.8432 5.07044 23.8248 5.08164 23.8064C5.08964 23.7928 5.09764 23.78 5.10564 23.7672C5.13204 23.7256 5.16005 23.6848 5.18885 23.6456C5.22325 23.6 5.25926 23.556 5.29766 23.5144C5.29766 23.5136 5.29846 23.5136 5.29846 23.5136C5.31766 23.4928 5.33766 23.472 5.35766 23.452C5.68646 23.124 6.14405 22.9256 6.64965 22.9336C6.71125 22.9344 6.77125 22.9384 6.83045 22.9456C6.86005 22.9488 6.88966 22.9536 6.91926 22.9584C6.93926 22.9616 6.95926 22.9648 6.97846 22.9696C6.98486 22.9704 6.99045 22.9712 6.99605 22.9736C7.00725 22.976 7.01765 22.9784 7.02805 22.9808C7.06965 22.9896 7.11125 23.0008 7.15125 23.0136C7.16565 23.0184 7.17925 23.0224 7.19365 23.0272C7.23445 23.0408 7.27525 23.056 7.31445 23.0728C7.32565 23.0776 7.33685 23.0824 7.34805 23.0872C7.37125 23.0976 7.39365 23.108 7.41605 23.1192C7.44165 23.132 7.46725 23.1448 7.49285 23.1592C7.56005 23.1968 7.62565 23.2392 7.68725 23.2856C7.70725 23.3 7.72724 23.3152 7.74644 23.3312C7.75844 23.34 7.76966 23.3496 7.78086 23.3584C7.80006 23.3752 7.81926 23.392 7.83766 23.4088C7.86246 23.432 7.88645 23.456 7.91045 23.4808C7.98565 23.5584 8.05365 23.6424 8.11285 23.732C8.14485 23.78 8.17446 23.8288 8.20086 23.8792C8.20966 23.8944 8.21764 23.9104 8.22484 23.9264C8.23124 23.9384 8.23764 23.9504 8.24324 23.9632C8.25044 23.9768 8.25684 23.9912 8.26244 24.0056C8.26884 24.02 8.27526 24.0344 8.28086 24.0496C8.28246 24.0528 8.28404 24.056 8.28484 24.0592C8.28964 24.0696 8.29366 24.08 8.29766 24.0912C8.29926 24.0952 8.30084 24.0992 8.30164 24.1032C8.30564 24.1128 8.30885 24.1224 8.31205 24.1328C8.32005 24.1544 8.32725 24.1752 8.33365 24.1968C8.34165 24.2216 8.34885 24.2472 8.35525 24.272C8.35925 24.288 8.36324 24.3032 8.36644 24.3192C8.37124 24.3384 8.37526 24.3576 8.37926 24.3768C8.39046 24.4344 8.39924 24.4928 8.40484 24.552C8.40724 24.5784 8.40965 24.6048 8.41045 24.632C8.41205 24.6664 8.41285 24.7008 8.41285 24.7352C8.41285 24.7632 8.41205 24.7904 8.40965 24.8176H8.40885Z" fill="#3F51B5"/>
</g>
<defs>
<clipPath id="clip0_1283_11452">
<rect width="40" height="40" fill="white"/>
</clipPath>
</defs>
</svg>
