<svg width="40" height="40" viewBox="0 0 40 40" fill="none" xmlns="http://www.w3.org/2000/svg">
<path d="M36.8413 8.38248C36.7349 8.25128 36.6245 8.12808 36.5101 8.01288C36.4821 7.98328 36.4533 7.95528 36.4237 7.92728C36.3877 7.89208 36.3517 7.85848 36.3149 7.82488C36.2413 7.75848 36.1661 7.69528 36.0901 7.63528C36.0525 7.60488 36.0141 7.57608 35.9749 7.54728C35.8205 7.43288 35.6605 7.33128 35.4965 7.24328C35.4309 7.20728 35.3645 7.17448 35.2973 7.14328C35.2637 7.12728 35.2301 7.11208 35.1957 7.09768C35.1445 7.07608 35.0933 7.05528 35.0421 7.03608H35.0413C34.9893 7.01608 34.9373 6.99768 34.8853 6.98008C34.1861 6.75048 33.4149 6.72728 32.5885 6.91688C30.8589 7.31368 29.8013 8.43928 29.3541 10.1529C29.3477 10.1785 29.3373 10.2057 29.3253 10.2345C29.3165 10.2529 29.3069 10.2721 29.2965 10.2905C29.2405 10.3953 29.1573 10.4929 29.0909 10.4969C28.5349 10.5297 27.9757 10.5129 27.3533 10.5129V9.98168C27.3533 8.12888 27.3053 6.27448 27.3661 4.42408C27.4285 2.51128 25.9773 1.18808 24.1461 1.20008C17.8949 1.24168 11.6429 1.21528 5.39172 1.21608C5.03332 1.21608 4.70131 1.25288 4.39731 1.32488C4.35651 1.33448 4.31733 1.34408 4.27813 1.35528C4.23813 1.36648 4.19893 1.37768 4.15973 1.38968C4.12133 1.40168 4.08374 1.41448 4.04614 1.42808C3.93974 1.46568 3.83731 1.50808 3.73891 1.55528C3.70051 1.57368 3.66372 1.59208 3.62692 1.61288C3.58852 1.63288 3.55012 1.65448 3.51332 1.67688C3.47812 1.69768 3.44454 1.71928 3.41094 1.74168C3.36934 1.76888 3.32854 1.79768 3.28934 1.82728C2.55894 2.37288 2.16051 3.26808 2.16051 4.44568C2.15971 14.8305 2.15971 25.2153 2.16051 35.6009C2.16051 36.7633 2.53492 37.6481 3.23012 38.1993C3.26852 38.2297 3.30772 38.2593 3.34852 38.2881C3.42932 38.3449 3.51492 38.3985 3.60372 38.4473C3.64772 38.4713 3.69333 38.4945 3.73973 38.5169C3.76293 38.5281 3.78612 38.5385 3.81012 38.5497C3.88052 38.5809 3.95414 38.6105 4.02934 38.6377C4.10454 38.6641 4.18131 38.6889 4.26051 38.7113C4.30371 38.7233 4.34694 38.7345 4.39094 38.7449C4.45734 38.7601 4.52531 38.7745 4.59411 38.7873C4.66291 38.7993 4.73332 38.8097 4.80532 38.8193C4.85332 38.8257 4.90132 38.8305 4.95012 38.8353C5.09652 38.8489 5.24854 38.8553 5.40614 38.8553C11.6445 38.8553 17.8821 38.8553 24.1205 38.8553C24.2669 38.8553 24.4141 38.8569 24.5605 38.8497C24.6829 38.8441 24.8029 38.8305 24.9213 38.8105C24.9629 38.8033 25.0037 38.7953 25.0445 38.7865C25.4805 38.6929 25.8805 38.5041 26.2197 38.2425C26.2469 38.2217 26.2741 38.2001 26.3005 38.1785C26.3253 38.1577 26.3501 38.1369 26.3741 38.1145C26.3917 38.0993 26.4085 38.0841 26.4253 38.0681C26.7133 37.8009 26.9461 37.4753 27.1045 37.1097C27.1149 37.0857 27.1253 37.0609 27.1349 37.0361C27.1557 36.9857 27.1741 36.9345 27.1917 36.8825C27.2037 36.8465 27.2157 36.8105 27.2261 36.7737C27.2357 36.7401 27.2453 36.7065 27.2533 36.6721C27.2621 36.6385 27.2701 36.6041 27.2773 36.5705C27.2797 36.5609 27.2813 36.5513 27.2829 36.5425C27.2909 36.5057 27.2973 36.4689 27.3037 36.4313C27.3037 36.4241 27.3061 36.4169 27.3069 36.4097C27.3133 36.3705 27.3181 36.3305 27.3229 36.2905C27.3309 36.2185 27.3365 36.1449 27.3389 36.0713C27.3429 35.9625 27.3461 35.8537 27.3493 35.7449C27.3517 35.6553 27.3541 35.5657 27.3549 35.4761C27.3565 35.4361 27.3573 35.3961 27.3573 35.3561C27.3597 35.2329 27.3613 35.1097 27.3621 34.9865C27.3661 34.5593 27.3653 34.1313 27.3637 33.7041C27.3637 33.6985 27.3637 33.6937 27.3637 33.6889C27.3637 33.4833 27.3629 33.2785 27.3629 33.0737C27.3629 31.7401 27.3629 30.4073 27.3597 29.0745C27.3573 27.7409 27.3541 26.4081 27.3485 25.0753V25.0697C27.3485 25.0385 27.3501 25.0097 27.3533 24.9841C27.3549 24.9641 27.3581 24.9457 27.3629 24.9289C27.3645 24.9217 27.3661 24.9145 27.3685 24.9081C27.3813 24.8657 27.4005 24.8337 27.4277 24.8089C27.4405 24.7969 27.4549 24.7873 27.4717 24.7785C27.4981 24.7649 27.5285 24.7561 27.5629 24.7513C27.5741 24.7489 27.5861 24.7473 27.5981 24.7465C27.6301 24.7425 27.6653 24.7417 27.7037 24.7425C28.3829 24.7553 29.0629 24.7481 29.7429 24.7465C30.9941 24.7433 31.9517 24.2761 32.5093 23.4457C32.5381 23.4025 32.5653 23.3593 32.5917 23.3145C32.6053 23.2929 32.6181 23.2697 32.6309 23.2473C32.6565 23.2017 32.6805 23.1553 32.7037 23.1081C32.7157 23.0849 32.7269 23.0609 32.7381 23.0369C32.7605 22.9889 32.7813 22.9393 32.8013 22.8897C32.8317 22.8145 32.8589 22.7377 32.8837 22.6585C32.9085 22.5793 32.9309 22.4985 32.9509 22.4161C32.9645 22.3609 32.9765 22.3049 32.9869 22.2473C32.9941 22.2121 33.0005 22.1761 33.0061 22.1393C33.0245 22.0313 33.0381 21.9193 33.0469 21.8049C33.0549 21.7137 33.0597 21.6201 33.0613 21.5249C33.0621 21.4929 33.0629 21.4609 33.0629 21.4289C33.0637 21.0697 33.0645 20.7105 33.0645 20.3513C33.0653 19.4273 33.0653 18.5033 33.0645 17.5793C33.0645 16.9961 33.0645 16.4129 33.0645 15.8297V15.3913C33.1037 15.3705 33.1285 15.3553 33.1469 15.3449C33.1597 15.3369 33.1693 15.3321 33.1789 15.3297C33.1821 15.3289 33.1845 15.3281 33.1877 15.3281C33.2205 15.3273 33.2541 15.3265 33.2877 15.3257C33.3869 15.3241 33.4877 15.3249 33.5869 15.3209C34.0301 15.3017 34.4445 15.2361 34.8285 15.1233C34.9245 15.0953 35.0189 15.0641 35.1109 15.0297C35.2957 14.9617 35.4725 14.8817 35.6405 14.7897C35.8941 14.6521 36.1293 14.4865 36.3453 14.2945C36.4173 14.2305 36.4869 14.1641 36.5549 14.0937C36.8941 13.7433 37.1805 13.3161 37.4093 12.8121C38.1213 11.2457 37.9293 9.71688 36.8429 8.38168L36.8413 8.38248ZM3.35254 3.99048C3.39334 3.13448 4.12772 2.44888 5.01172 2.38248C5.14372 2.37288 5.27814 2.37768 5.41094 2.37768C11.6493 2.37688 17.8877 2.37688 24.1253 2.37768C25.4837 2.37768 26.1685 3.05928 26.1717 4.41288C26.1725 5.02168 26.1717 5.63128 26.1717 6.26088H3.34532C3.34532 5.48008 3.31734 4.73368 3.35254 3.99048ZM10.6629 21.4521C10.6669 23.4761 11.9413 24.7601 13.9693 24.7265C14.0533 24.7249 14.1333 24.7265 14.2101 24.7313C14.2389 24.7329 14.2677 24.7353 14.2949 24.7385C14.2973 24.7385 14.2997 24.7385 14.3029 24.7393C14.3285 24.7417 14.3541 24.7449 14.3789 24.7489C14.3917 24.7505 14.4053 24.7529 14.4189 24.7553C14.4253 24.7553 14.4317 24.7569 14.4381 24.7585C14.4453 24.7601 14.4517 24.7617 14.4581 24.7625C14.4885 24.7681 14.5181 24.7753 14.5469 24.7825C14.5685 24.7881 14.5901 24.7945 14.6117 24.8017C14.6157 24.8025 14.6197 24.8041 14.6237 24.8057C14.6429 24.8121 14.6621 24.8185 14.6813 24.8257C14.7533 24.8537 14.8213 24.8881 14.8861 24.9297C14.8989 24.9385 14.9117 24.9465 14.9237 24.9561C14.9365 24.9641 14.9485 24.9737 14.9613 24.9841C14.9861 25.0033 15.0109 25.0241 15.0341 25.0449C15.0461 25.0561 15.0581 25.0673 15.0685 25.0793C15.1149 25.1257 15.1581 25.1769 15.2005 25.2353C15.2213 25.2641 15.2421 25.2937 15.2613 25.3257C15.2813 25.3577 15.3005 25.3913 15.3197 25.4265C15.3293 25.4441 15.3381 25.4617 15.3477 25.4801C15.7085 26.1905 16.1677 26.8513 16.5925 27.5281C16.6949 27.6921 16.8093 27.8353 16.9325 27.9577C16.9629 27.9881 16.9941 28.0177 17.0261 28.0457C17.0485 28.0657 17.0709 28.0849 17.0941 28.1033C17.1173 28.1217 17.1405 28.1393 17.1637 28.1569C17.1789 28.1689 17.1949 28.1801 17.2101 28.1905C17.2309 28.2049 17.2517 28.2193 17.2733 28.2329C17.2989 28.2489 17.3245 28.2641 17.3501 28.2793C17.3765 28.2937 17.4021 28.3081 17.4285 28.3217C17.4813 28.3481 17.5341 28.3721 17.5885 28.3937C17.6597 28.4217 17.7325 28.4449 17.8061 28.4625C17.8357 28.4697 17.8661 28.4761 17.8965 28.4817C17.9029 28.4833 17.9101 28.4849 17.9165 28.4857C17.9445 28.4905 17.9717 28.4945 17.9997 28.4977C18.0277 28.5009 18.0557 28.5041 18.0837 28.5057C18.0885 28.5057 18.0933 28.5065 18.0981 28.5065C18.1301 28.5089 18.1629 28.5097 18.1949 28.5097C18.2229 28.5097 18.2509 28.5089 18.2789 28.5073C18.3493 28.5041 18.4197 28.4953 18.4901 28.4825C18.5077 28.4793 18.5253 28.4761 18.5429 28.4721C18.5549 28.4697 18.5677 28.4665 18.5797 28.4633C18.5925 28.4609 18.6053 28.4577 18.6173 28.4537C18.6445 28.4465 18.6725 28.4385 18.6997 28.4297C18.7269 28.4209 18.7541 28.4113 18.7813 28.4009C18.8037 28.3921 18.8269 28.3833 18.8493 28.3737C18.8725 28.3641 18.8941 28.3537 18.9165 28.3433C18.9173 28.3433 18.9173 28.3425 18.9173 28.3425C18.9437 28.3297 18.9701 28.3161 18.9965 28.3025C19.0101 28.2953 19.0229 28.2881 19.0357 28.2809C19.0685 28.2617 19.1021 28.2417 19.1341 28.2201C19.1573 28.2057 19.1805 28.1897 19.2029 28.1729C19.2533 28.1369 19.3021 28.0977 19.3501 28.0553C19.3741 28.0345 19.3981 28.0129 19.4213 27.9905C19.5021 27.9129 19.5789 27.8265 19.6509 27.7321C19.6725 27.7041 19.6941 27.6745 19.7141 27.6449C19.7269 27.6265 19.7397 27.6081 19.7525 27.5889C19.7701 27.5617 19.7877 27.5337 19.8053 27.5049C19.9861 27.2057 20.1661 26.9057 20.3477 26.6065C20.4389 26.4569 20.5301 26.3081 20.6221 26.1593C20.6685 26.0841 20.7157 26.0081 20.7629 25.9329C20.8029 25.8689 20.8429 25.8049 20.8837 25.7409C20.9429 25.6465 21.0029 25.5529 21.0637 25.4601C21.1189 25.3753 21.1741 25.2913 21.2293 25.2073C21.2469 25.1809 21.2637 25.1545 21.2813 25.1289C21.2885 25.1177 21.2965 25.1065 21.3053 25.0953C21.3229 25.0729 21.3421 25.0505 21.3637 25.0289C21.3701 25.0217 21.3773 25.0145 21.3853 25.0081C21.3925 25.0009 21.4005 24.9937 21.4077 24.9873C21.4221 24.9745 21.4365 24.9617 21.4525 24.9497C21.4549 24.9473 21.4573 24.9449 21.4605 24.9433C21.4741 24.9337 21.4869 24.9233 21.5013 24.9137C21.5109 24.9065 21.5213 24.9001 21.5309 24.8937C21.5493 24.8809 21.5685 24.8697 21.5877 24.8593C21.5989 24.8529 21.6101 24.8473 21.6213 24.8417C21.6661 24.8185 21.7117 24.8001 21.7565 24.7873C21.7693 24.7833 21.7813 24.7801 21.7941 24.7777C21.8013 24.7761 21.8077 24.7745 21.8149 24.7737C21.8197 24.7721 21.8245 24.7713 21.8293 24.7713C21.8357 24.7697 21.8421 24.7689 21.8485 24.7689C21.8509 24.7681 21.8533 24.7673 21.8557 24.7681C21.8645 24.7665 21.8741 24.7657 21.8829 24.7657C23.2549 24.7345 24.6285 24.7505 26.0013 24.7529C26.0101 24.7529 26.0197 24.7545 26.0293 24.7569C26.0581 24.7633 26.0917 24.7777 26.1405 24.7913V32.5833H3.36614V7.48328H26.1333V10.5137H25.6677C21.7365 10.5137 17.8045 10.5105 13.8725 10.5153C13.8229 10.5153 13.7733 10.5153 13.7245 10.5185C13.6957 10.5193 13.6669 10.5209 13.6381 10.5233C13.6357 10.5225 13.6333 10.5225 13.6317 10.5233C13.6293 10.5225 13.6277 10.5233 13.6261 10.5241C13.6261 10.5241 13.6256 10.5241 13.6245 10.5241C13.6245 10.5241 13.6181 10.5241 13.6149 10.5249C13.6149 10.5249 13.6144 10.5249 13.6133 10.5249C13.5973 10.5249 13.5821 10.5265 13.5661 10.5281C13.5325 10.5297 13.4981 10.5329 13.4645 10.5377C13.4429 10.5393 13.4213 10.5417 13.4005 10.5449C13.4005 10.5449 13.3981 10.5441 13.3973 10.5449C13.3741 10.5473 13.3509 10.5505 13.3277 10.5545C13.3237 10.5545 13.3205 10.5545 13.3165 10.5561C13.3013 10.5585 13.2877 10.5609 13.2725 10.5625C13.2381 10.5673 13.2037 10.5729 13.1693 10.5801C13.1645 10.5801 13.1605 10.5801 13.1565 10.5825C13.1213 10.5889 13.0869 10.5961 13.0533 10.6041C13.0373 10.6073 13.0213 10.6113 13.0045 10.6153C12.9285 10.6329 12.8541 10.6529 12.7805 10.6769C12.7605 10.6825 12.7405 10.6889 12.7205 10.6961C12.6613 10.7153 12.6029 10.7369 12.5453 10.7601C12.5261 10.7673 12.5077 10.7753 12.4893 10.7833C12.4837 10.7849 12.4781 10.7873 12.4725 10.7905C12.4533 10.7977 12.4349 10.8057 12.4165 10.8145C12.4117 10.8161 12.4077 10.8185 12.4029 10.8209C12.3933 10.8257 12.3837 10.8305 12.3741 10.8345C12.3365 10.8521 12.2997 10.8705 12.2629 10.8897C12.1893 10.9273 12.1173 10.9681 12.0485 11.0121C12.0157 11.0329 11.9845 11.0537 11.9533 11.0753C11.9477 11.0785 11.9421 11.0825 11.9365 11.0865C11.9101 11.1049 11.8845 11.1241 11.8589 11.1433C11.8365 11.1593 11.8141 11.1769 11.7925 11.1945C11.7693 11.2121 11.7477 11.2305 11.7261 11.2489C11.6981 11.2721 11.6701 11.2969 11.6429 11.3217C11.6117 11.3505 11.5805 11.3793 11.5509 11.4097C11.5301 11.4305 11.5101 11.4513 11.4917 11.4721C11.4853 11.4777 11.4805 11.4825 11.4765 11.4881C11.4637 11.5017 11.4509 11.5161 11.4381 11.5305C11.4309 11.5361 11.4261 11.5425 11.4213 11.5489C11.4013 11.5721 11.3813 11.5953 11.3621 11.6193C11.3541 11.6273 11.3469 11.6369 11.3405 11.6457C11.3197 11.6713 11.2997 11.6969 11.2805 11.7233C11.2589 11.7521 11.2381 11.7809 11.2181 11.8097C11.1973 11.8385 11.1781 11.8681 11.1589 11.8985C11.1389 11.9305 11.1197 11.9625 11.1005 11.9953C11.0877 12.0161 11.0757 12.0377 11.0637 12.0593C11.0493 12.0849 11.0357 12.1097 11.0221 12.1361C11.0021 12.1753 10.9829 12.2145 10.9645 12.2545C10.9477 12.2913 10.9309 12.3281 10.9157 12.3657C10.8989 12.4065 10.8829 12.4481 10.8677 12.4897C10.8629 12.5017 10.8589 12.5137 10.8549 12.5257C10.8437 12.5553 10.8333 12.5865 10.8237 12.6169C10.8197 12.6281 10.8165 12.6393 10.8133 12.6505C10.8013 12.6881 10.7901 12.7265 10.7797 12.7657C10.7669 12.8105 10.7557 12.8561 10.7453 12.9017C10.6805 13.1841 10.6661 13.4833 10.6653 13.7745C10.6597 16.3337 10.6581 18.8929 10.6637 21.4521H10.6629ZM26.1157 36.2977C26.0397 37.0705 25.2989 37.6361 24.4829 37.6897C24.3365 37.6993 24.1901 37.6945 24.0429 37.6945C17.8461 37.6953 11.6493 37.6769 5.45332 37.7097C4.22212 37.7169 3.22774 36.9753 3.33254 35.5641C3.37494 34.9961 3.33973 34.4217 3.33973 33.8217H26.1333C26.1333 34.6569 26.1949 35.4841 26.1157 36.2977ZM31.8869 21.5681C31.8829 22.7849 31.0997 23.5609 29.8773 23.5633C27.2781 23.5673 24.6781 23.5769 22.0789 23.5577C21.2157 23.5513 20.6037 23.8897 20.1749 24.6321C19.7341 25.3929 19.2637 26.1369 18.7981 26.8833C18.4061 27.5113 17.9725 27.5129 17.5853 26.8913C17.0917 26.1001 16.5981 25.3089 16.1149 24.5105C15.7285 23.8721 15.1725 23.5545 14.4269 23.5641C14.2005 23.5673 13.9733 23.5673 13.7469 23.5633C12.6437 23.5441 11.8613 22.7785 11.8437 21.6713C11.8277 20.5913 11.8389 19.5113 11.8389 18.4313C11.8389 16.8713 11.8357 15.3113 11.8397 13.7513C11.8437 12.4449 12.5949 11.6905 13.9021 11.6881C16.3685 11.6833 18.8349 11.6865 21.3013 11.6865C23.7677 11.6865 26.3133 11.6929 28.8197 11.6785C29.1669 11.6769 29.3245 11.7505 29.4125 12.1201C29.7037 13.3401 30.4421 14.2401 31.5437 14.8281C31.7845 14.9561 31.8973 15.0801 31.8957 15.3681C31.8829 17.4345 31.8933 19.5009 31.8869 21.5681ZM33.5181 14.1633C33.4813 14.1633 33.4445 14.1625 33.4077 14.1609C33.3837 14.1609 33.3589 14.1593 33.3349 14.1577C33.2909 14.1553 33.2477 14.1521 33.2045 14.1473C33.1717 14.1441 33.1389 14.1401 33.1061 14.1353C33.0733 14.1305 33.0405 14.1257 33.0077 14.1201C32.9917 14.1177 32.9757 14.1153 32.9597 14.1121C32.8709 14.0953 32.7829 14.0753 32.6965 14.0505C32.6741 14.0449 32.6525 14.0385 32.6309 14.0313C32.5989 14.0217 32.5669 14.0113 32.5357 14.0009C32.5117 13.9929 32.4885 13.9841 32.4645 13.9753H32.4637C32.4173 13.9577 32.3709 13.9393 32.3253 13.9201C32.2789 13.9009 32.2333 13.8801 32.1885 13.8577C32.1589 13.8433 32.1301 13.8289 32.1013 13.8137C32.0637 13.7945 32.0277 13.7737 31.9917 13.7529C31.9645 13.7377 31.9381 13.7217 31.9117 13.7049C31.8253 13.6513 31.7421 13.5937 31.6621 13.5313C31.6405 13.5145 31.6189 13.4977 31.5973 13.4801C31.5757 13.4625 31.5541 13.4449 31.5333 13.4265C31.4701 13.3729 31.4093 13.3161 31.3509 13.2561C31.3333 13.2385 31.3165 13.2209 31.2997 13.2033C31.2653 13.1673 31.2317 13.1305 31.1997 13.0921C31.1669 13.0545 31.1357 13.0169 31.1061 12.9777C31.0605 12.9193 31.0173 12.8585 30.9757 12.7969C30.9485 12.7553 30.9221 12.7137 30.8965 12.6713C30.8717 12.6281 30.8469 12.5857 30.8237 12.5417H30.8229C30.8069 12.5105 30.7909 12.4793 30.7757 12.4481C30.7517 12.4009 30.7301 12.3537 30.7093 12.3049C30.6941 12.2705 30.6797 12.2353 30.6661 12.1993C30.6637 12.1937 30.6613 12.1881 30.6597 12.1825C30.6517 12.1617 30.6437 12.1417 30.6365 12.1209C30.6285 12.1001 30.6213 12.0785 30.6149 12.0577C30.6069 12.0337 30.5997 12.0097 30.5917 11.9857C30.5917 11.9857 30.5917 11.9857 30.5917 11.9841C30.5773 11.9361 30.5637 11.8873 30.5517 11.8385C30.5381 11.7889 30.5269 11.7385 30.5173 11.6881C30.4765 11.4849 30.4549 11.2753 30.4549 11.0601C30.4549 11.0241 30.4549 10.9889 30.4565 10.9537C30.4581 10.9177 30.4597 10.8825 30.4621 10.8473C30.4749 10.6713 30.5021 10.4985 30.5421 10.3313C30.5509 10.2977 30.5597 10.2641 30.5685 10.2313C30.5893 10.1585 30.6117 10.0873 30.6365 10.0169C30.6533 9.97048 30.6717 9.92408 30.6901 9.87848C30.7093 9.83208 30.7293 9.78728 30.7501 9.74248C30.7685 9.70328 30.7877 9.66488 30.8077 9.62648C30.8157 9.60968 30.8245 9.59368 30.8333 9.57768C30.8509 9.54488 30.8693 9.51288 30.8877 9.48088C30.9133 9.43928 30.9389 9.39688 30.9653 9.35608C30.9781 9.33608 30.9917 9.31528 31.0061 9.29528C31.0341 9.25528 31.0629 9.21528 31.0917 9.17608C31.1061 9.15688 31.1213 9.13768 31.1365 9.11848C31.1557 9.09448 31.1749 9.07128 31.1941 9.04808C31.2141 9.02488 31.2341 9.00168 31.2541 8.97928C31.2741 8.95608 31.2949 8.93368 31.3157 8.91208C31.3365 8.88968 31.3581 8.86808 31.3797 8.84648C31.4125 8.81208 31.4469 8.78008 31.4813 8.74888C31.4813 8.74728 31.4829 8.74648 31.4837 8.74648C31.5173 8.71608 31.5517 8.68648 31.5869 8.65688C31.5885 8.65448 31.5909 8.65288 31.5933 8.65128C31.6277 8.62328 31.6621 8.59608 31.6965 8.56968C31.7149 8.55528 31.7341 8.54088 31.7533 8.52728C31.7717 8.51368 31.7909 8.50088 31.8101 8.48728C31.8485 8.46088 31.8877 8.43528 31.9269 8.41048C31.9469 8.39768 31.9669 8.38568 31.9869 8.37448C32.0069 8.36248 32.0269 8.35048 32.0477 8.33928C32.0757 8.32328 32.1045 8.30808 32.1341 8.29288C32.1581 8.28008 32.1821 8.26808 32.2061 8.25688C32.2301 8.24488 32.2541 8.23368 32.2789 8.22328C32.2829 8.22088 32.2869 8.21928 32.2909 8.21768C32.3037 8.21208 32.3173 8.20648 32.3301 8.20088C32.3453 8.19448 32.3605 8.18808 32.3757 8.18168C32.3925 8.17448 32.4101 8.16808 32.4269 8.16168C32.4485 8.15288 32.4701 8.14488 32.4925 8.13768C32.5285 8.12488 32.5645 8.11288 32.6013 8.10168C32.6421 8.08888 32.6829 8.07768 32.7237 8.06728C32.7525 8.05928 32.7821 8.05208 32.8117 8.04568C32.8477 8.03768 32.8837 8.03048 32.9197 8.02408C32.9453 8.01928 32.9709 8.01528 32.9965 8.01128C33.0309 8.00568 33.0653 8.00088 33.0997 7.99688C33.1533 7.99128 33.2069 7.98648 33.2613 7.98408C33.2797 7.98248 33.2997 7.98168 33.3181 7.98168C33.3437 7.98088 33.3693 7.98008 33.3949 7.98008H33.4061C33.4477 7.98008 33.4893 7.98008 33.5309 7.98248C33.5581 7.98328 33.5861 7.98488 33.6133 7.98648C33.6325 7.98808 33.6517 7.98888 33.6709 7.99048C33.7061 7.99288 33.7413 7.99608 33.7757 8.00008C33.8453 8.00728 33.9141 8.01608 33.9821 8.02808C34.0165 8.03368 34.0501 8.04008 34.0837 8.04728C34.1165 8.05368 34.1493 8.06088 34.1821 8.06808C34.2013 8.07208 34.2197 8.07688 34.2381 8.08168C34.2573 8.08568 34.2765 8.09128 34.2949 8.09608C34.3269 8.10488 34.3581 8.11368 34.3893 8.12328C34.4717 8.14728 34.5525 8.17528 34.6317 8.20648C34.6621 8.21848 34.6925 8.23048 34.7221 8.24328C34.7757 8.26568 34.8293 8.29048 34.8813 8.31528C34.8869 8.31848 34.8925 8.32088 34.8989 8.32408C34.9245 8.33688 34.9509 8.35048 34.9765 8.36408C35.1109 8.43528 35.2397 8.51608 35.3613 8.60488L35.4189 8.64808C35.4365 8.66088 35.4533 8.67448 35.4701 8.68808C35.4957 8.70888 35.5213 8.72968 35.5461 8.75128C35.5877 8.78648 35.6285 8.82248 35.6677 8.86008C35.6869 8.87848 35.7053 8.89688 35.7245 8.91528C35.7437 8.93448 35.7629 8.95368 35.7805 8.97288C35.7933 8.98568 35.8061 8.99928 35.8181 9.01288C35.8429 9.04008 35.8669 9.06728 35.8909 9.09528C35.9069 9.11368 35.9221 9.13208 35.9381 9.15128C35.9765 9.19848 36.0141 9.24648 36.0493 9.29608C36.0645 9.31768 36.0805 9.34008 36.0957 9.36248C36.1149 9.39048 36.1333 9.41848 36.1509 9.44728C36.1645 9.46808 36.1773 9.48888 36.1893 9.50968C36.2061 9.53768 36.2229 9.56568 36.2389 9.59448C36.2589 9.62968 36.2781 9.66568 36.2957 9.70248C36.3125 9.73528 36.3285 9.76808 36.3437 9.80168C36.3597 9.83528 36.3749 9.86968 36.3885 9.90408C36.3981 9.92648 36.4069 9.94888 36.4157 9.97128C36.4245 9.99368 36.4333 10.0169 36.4413 10.0401C36.4493 10.0633 36.4573 10.0865 36.4653 10.1097C36.4749 10.1377 36.4837 10.1649 36.4917 10.1929C36.5029 10.2289 36.5125 10.2649 36.5221 10.3009C36.5309 10.3337 36.5389 10.3657 36.5461 10.3985C36.5557 10.4417 36.5645 10.4849 36.5725 10.5289C36.5829 10.5849 36.5917 10.6417 36.5981 10.6985C36.6013 10.7233 36.6045 10.7489 36.6069 10.7745C36.6173 10.8769 36.6221 10.9809 36.6221 11.0865C36.6221 12.7689 35.2365 14.1521 33.5413 14.1633H33.5181Z" fill="#3F51B5"/>
<path d="M21.866 18.1985C19.4404 18.1985 17.014 18.1985 14.5884 18.1985C14.4548 18.1985 14.3204 18.2041 14.1892 18.1881C13.8644 18.1481 13.6828 17.9473 13.6652 17.6313C13.6468 17.3057 13.8332 17.1065 14.1452 17.0393C14.2732 17.0113 14.41 17.0177 14.5428 17.0177C19.4212 17.0169 24.2996 17.0169 29.1788 17.0177C29.2988 17.0177 29.4212 17.0089 29.538 17.0297C29.8676 17.0881 30.0748 17.2785 30.0596 17.6273C30.0444 17.9665 29.8468 18.1777 29.5036 18.1905C28.9844 18.2089 28.4644 18.2001 27.9444 18.2001C25.918 18.2001 23.8924 18.2001 21.866 18.2001V18.1985Z" fill="#3F51B5"/>
<path d="M21.8669 20.1137C23.6125 20.1137 25.3581 20.1137 27.1037 20.1137C27.2101 20.1137 27.3181 20.1073 27.4237 20.1185C27.7445 20.1521 27.9437 20.3313 27.9693 20.6529C27.9957 20.9801 27.8077 21.1793 27.5061 21.2641C27.3933 21.2961 27.2685 21.2873 27.1493 21.2873C23.6309 21.2881 20.1133 21.2881 16.5949 21.2873C16.5413 21.2873 16.4885 21.2889 16.4349 21.2873C16.0021 21.2721 15.7357 21.0361 15.7461 20.6777C15.7557 20.3305 16.0061 20.1169 16.4301 20.1161C17.7893 20.1121 19.1485 20.1145 20.5077 20.1145C20.9605 20.1145 21.4141 20.1145 21.8669 20.1145V20.1137Z" fill="#3F51B5"/>
<path d="M21.8797 13.9441C23.6781 13.9441 25.4765 13.9473 27.2749 13.9417C27.6229 13.9409 27.8789 14.0521 27.9613 14.4113C28.0325 14.7217 27.8221 15.0233 27.4909 15.0873C27.3485 15.1153 27.1989 15.1097 27.0533 15.1097C23.5893 15.1105 20.1261 15.1105 16.6621 15.1097C16.5685 15.1097 16.4749 15.1129 16.3821 15.1065C15.9821 15.0793 15.7269 14.8297 15.7445 14.4873C15.7613 14.1569 16.0053 13.9465 16.4037 13.9449C17.6157 13.9401 18.8285 13.9425 20.0405 13.9425C20.6533 13.9425 21.2661 13.9425 21.8789 13.9425L21.8797 13.9441Z" fill="#3F51B5"/>
<path d="M14.755 36.3C14.5958 36.3 14.4349 36.3136 14.2773 36.2968C13.9477 36.2616 13.771 36.0488 13.7654 35.736C13.7598 35.4216 13.9358 35.192 14.2622 35.164C14.5918 35.1352 14.9278 35.1344 15.2566 35.1656C15.5806 35.196 15.7518 35.4184 15.7462 35.7408C15.7406 36.0648 15.5574 36.26 15.2334 36.296C15.0758 36.3136 14.9149 36.2992 14.7557 36.3H14.755Z" fill="#3F51B5"/>
<path d="M14.7415 3.75128C15.4599 3.75128 16.1783 3.74648 16.8967 3.75288C17.3431 3.75688 17.6191 3.97608 17.6319 4.31608C17.6455 4.67768 17.3663 4.91928 16.8983 4.92088C15.4743 4.92648 14.0511 4.92648 12.6271 4.92088C12.1495 4.91928 11.8911 4.69368 11.9015 4.31688C11.9111 3.96088 12.1614 3.75688 12.6254 3.75288C13.3302 3.74648 14.0358 3.75128 14.7406 3.75128H14.7415Z" fill="#3F51B5"/>
</svg>
