<svg width="274" height="88" viewBox="0 0 274 88" fill="black" xmlns="http://www.w3.org/2000/svg">
<g clip-path="url(#clip0_1310_3357)">
<path d="M38.5603 14.1945C31.2148 11.4789 22.3298 12.5945 16.2012 17.5706C6.68573 25.277 6.67107 38.2091 12.8437 48C14.0459 49.9082 15.5414 51.7724 17.2715 53.5926H17.3888C20.8929 53.1669 26.7576 55.677 30.0565 56.9541C32.549 57.9229 35.2761 59.0238 37.8712 59.611C38.1791 59.6844 38.5163 59.7284 38.8535 59.7578C37.8419 59.244 36.8302 58.7009 35.8332 58.1284C28.8396 54.1504 23.576 49.0862 20.3065 43.9046C11.4068 29.7688 24.617 14.4587 45.1141 28.3009C47.0788 16.2495 52.8702 12.5064 58.7642 12.5798C77.6191 12.7706 76.8421 45.6954 66.5349 58.0697C81.4312 48.822 88.2782 16.2935 71.1093 3.90455C67.0187 0.939416 61.9604 -0.572511 56.3303 0.20547C48.501 1.27703 41.6099 6.97244 38.5603 14.1945V14.1945Z" fill="#3f51b5"/>
<path fill-rule="evenodd" clip-rule="evenodd" d="M83 88C82.5162 66.2018 69.0127 59.4495 50.8029 60.844C45.3634 61.255 41.1261 63.0312 37.2848 62.1504C31.2441 60.7853 21.7287 55.6917 17.6674 56.1615C11.8174 56.8367 15.4681 60.5064 15.4681 60.5064C15.4681 60.5064 26.1419 67.5963 27.4468 68.2275C28.7517 68.8587 34.1325 70.5321 35.4521 70.3413C34.2938 70.9284 30.4378 70.2092 26.8016 69.0202C25.702 68.6679 24.6171 67.7578 23.4001 66.9798C18.1806 63.5596 14.3538 62.1064 13.005 59.7284C11.6708 57.3504 14.1486 56.1468 14.1486 56.1468C14.1486 56.1468 10.6004 52.6385 7.37487 44.6532C5.33689 39.633 1.20228 38.9871 0.0879934 40.4991C-0.410505 41.1743 1.42221 44.7853 1.95003 46.1064C4.2226 51.8018 7.05231 61.6367 10.1899 64.8073C14.1632 68.844 23.0629 78.7376 31.4054 81.0422C54.527 87.4422 63.2947 72.1174 83.0147 88H83Z" fill="#3f51b5"/>
<path d="M54.2044 33.7761C50.5536 32.4257 46.1258 32.9835 43.0762 35.4642C33.3115 43.3761 43.2814 57.6 54.7176 56.6312C54.0871 56.3229 53.4567 55.9853 52.8409 55.633C49.366 53.6514 46.7416 51.1413 45.1141 48.5578C40.6863 41.5266 47.2547 33.9082 57.4593 40.7926C58.4416 34.789 61.3153 32.9394 64.2477 32.9688C73.6312 33.0715 73.25 49.4385 68.1184 55.6036C75.5372 50.9945 78.9387 34.8183 70.3909 28.6532C68.3676 27.1853 65.8458 26.4367 63.0454 26.8183C59.1454 27.3468 55.7292 30.1945 54.2044 33.7761V33.7761Z" fill="#3f51b5"/>
</g>
<path d="M121.04 14.726C126.343 14.726 130.716 15.382 134.16 16.694C137.659 17.9513 140.283 19.892 142.032 22.516C143.781 25.0853 144.656 28.3106 144.656 32.192C144.656 34.7066 144.191 36.948 143.262 38.916C142.333 40.884 141.075 42.606 139.49 44.082C137.959 45.558 136.183 46.788 134.16 47.772L151.298 73.274H135.636L122.434 51.298H116.94V73.274H103V14.726H121.04ZM120.466 25.714H116.94V40.392H120.466C122.707 40.392 124.566 40.146 126.042 39.654C127.518 39.1073 128.611 38.26 129.322 37.112C130.087 35.9093 130.47 34.4333 130.47 32.684C130.47 31.0986 130.115 29.814 129.404 28.83C128.693 27.7913 127.6 27.026 126.124 26.534C124.648 25.9873 122.762 25.714 120.466 25.714Z" fill="#3f51b5"/>
<path d="M177.207 14.726C184.697 14.726 190.218 16.366 193.771 19.646C197.379 22.8713 199.183 27.3813 199.183 33.176C199.183 35.8 198.801 38.3146 198.035 40.72C197.27 43.0706 195.985 45.1753 194.181 47.034C192.432 48.8926 190.109 50.3686 187.211 51.462C184.369 52.5553 180.843 53.102 176.633 53.102H171.713V73.274H157.773V14.726H177.207ZM176.715 26.124H171.713V41.704H175.403C177.317 41.704 178.984 41.4306 180.405 40.884C181.881 40.3373 183.029 39.4626 183.849 38.26C184.669 37.0573 185.079 35.4993 185.079 33.586C185.079 31.1806 184.396 29.3493 183.029 28.092C181.663 26.78 179.558 26.124 176.715 26.124Z" fill="#3f51b5"/>
<path d="M234.516 73.274L221.396 29.076H221.068C221.177 30.1693 221.286 31.7546 221.396 33.832C221.505 35.8546 221.614 38.0413 221.724 40.392C221.833 42.688 221.888 44.8473 221.888 46.87V73.274H209.424V14.726H228.284L241.322 58.022H241.65L255.098 14.726H273.876V73.274H260.92V46.542C260.92 44.6833 260.947 42.6333 261.002 40.392C261.111 38.096 261.193 35.9366 261.248 33.914C261.357 31.8366 261.439 30.2513 261.494 29.158H261.166L247.636 73.274H234.516Z" fill="#3f51b5"/>
<defs>
<clipPath id="clip0_1310_3357">
<rect width="83" height="88" fill="#3f51b5"/>
</clipPath>
</defs>
</svg>
